<svg width="24" height="24" viewBox="0 0 24 24" fill="none" xmlns="http://www.w3.org/2000/svg">
<path fill-rule="evenodd" clip-rule="evenodd" d="M8.50001 6C8.50001 4.067 10.067 2.5 12 2.5C13.933 2.5 15.5 4.067 15.5 6V6.0083V6.0166V6.02491V6.03322V6.04153V6.04985V6.05817V6.06649V6.07482V6.08315V6.09148V6.09981V6.10815V6.11649V6.12484V6.13318V6.14153V6.14989V6.15824V6.1666V6.17496V6.18332V6.19168V6.20005V6.20841V6.21678V6.22515V6.23353V6.2419V6.25028V6.25865V6.26703V6.27541V6.28379V6.29218V6.30056V6.30895V6.31733V6.32572V6.33411V6.34249V6.35088V6.35927V6.36766V6.37605V6.38444V6.39283V6.40123V6.40962V6.41801V6.4264V6.43479V6.44318V6.45157V6.45996V6.46835V6.47674V6.48513V6.49351V6.5019V6.51029V6.51867V6.52706V6.53544V6.54382V6.5522V6.56058V6.56896V6.57733V6.58571V6.59408V6.60245V6.61082V6.61919V6.62756V6.63592V6.64428V6.65264V6.661V6.66935V6.67771V6.68606V6.69441V6.70275V6.71109V6.71943V6.72777V6.7361V6.74443V6.75276V6.76108V6.7694V6.77772V6.78603V6.79434V6.80265V6.81096V6.81925V6.82755V6.83584V6.84413V6.85241V6.86069V6.86897V6.87724V6.88551V6.89377V6.90203V6.91028V6.91853V6.92677V6.93501V6.94324V6.95147V6.95969V6.96791V6.97613V6.98433V6.99254V7H8.50001L8.50001 6ZM7.50001 7L7.50001 6C7.50001 3.51472 9.51473 1.5 12 1.5C14.4853 1.5 16.5 3.51472 16.5 6V6.0083V6.0166V6.02491V6.03322V6.04153V6.04985V6.05817V6.06649V6.07482V6.08315V6.09148V6.09981V6.10815V6.11649V6.12484V6.13318V6.14153V6.14989V6.15824V6.1666V6.17496V6.18332V6.19168V6.20005V6.20841V6.21678V6.22515V6.23353V6.2419V6.25028V6.25865V6.26703V6.27541V6.28379V6.29218V6.30056V6.30895V6.31733V6.32572V6.33411V6.34249V6.35088V6.35927V6.36766V6.37605V6.38444V6.39283V6.40123V6.40962V6.41801V6.4264V6.43479V6.44318V6.45157V6.45996V6.46835V6.47674V6.48513V6.49351V6.5019V6.51029V6.51867V6.52706V6.53544V6.54382V6.5522V6.56058V6.56896V6.57733V6.58571V6.59408V6.60245V6.61082V6.61919V6.62756V6.63592V6.64428V6.65264V6.661V6.66935V6.67771V6.68606V6.69441V6.70275V6.71109V6.71943V6.72777V6.7361V6.74443V6.75276V6.76108V6.7694V6.77772V6.78603V6.79434V6.80265V6.81096V6.81925V6.82755V6.83584V6.84413V6.85241V6.86069V6.86897V6.87724V6.88551V6.89377V6.90203V6.91028V6.91853V6.92677V6.93501V6.94324V6.95147V6.95969V6.96791V6.97613V6.98433V6.99254V7H18C18.5523 7 19 7.44772 19 8V20C19 20.5523 18.5523 21 18 21H6C5.44772 21 5 20.5523 5 20V8C5 7.44772 5.44772 7 6 7H7.50001ZM16.5 8H18V20H6V8H7.5L7.5 8.32843L7.5 8.84191L7.5 8.9617L7.5 8.99057V8.99766V8.99941V8.99985V8.99996V8.99999L8 9L7.5 9C7.5 9.27614 7.72385 9.5 8 9.5C8.27614 9.5 8.5 9.27615 8.5 9L8 9L8.5 9V8.99997V8.99986V8.99942V8.99767V8.99058L8.5 8.96171L8.5 8.84191L8.5 8.32843L8.5 8H15.5V8.00399V8.01076V8.01752V8.02426V8.03098V8.03769V8.04438V8.05105V8.05771V8.06435V8.07098V8.07758V8.08418V8.09075V8.09731V8.10385V8.11037V8.11688V8.12337V8.12984V8.13629V8.14273V8.14915V8.15555V8.16193V8.1683V8.17465V8.18098V8.18729V8.19359V8.19986V8.20612V8.21236V8.21858V8.22478V8.23097V8.23713V8.24328V8.24941V8.25552V8.26161V8.26768V8.27373V8.27977V8.28578V8.29177V8.29775V8.3037V8.30964V8.31556V8.32145V8.32733V8.33319V8.33902V8.34484V8.35064V8.35641V8.36217V8.36791V8.37362V8.37932V8.38499V8.39064V8.39628V8.40189V8.40748V8.41305V8.4186V8.42413V8.42963V8.43512V8.44058V8.44603V8.45145V8.45685V8.46223V8.46758V8.47292V8.47823V8.48352V8.48879V8.49403V8.49926V8.50446V8.50964V8.51479V8.51993V8.52504V8.53013V8.53519V8.54024V8.54526V8.55026V8.55523V8.56018V8.56511V8.57001V8.57489V8.57975V8.58458V8.58939V8.59418V8.59894V8.60368V8.6084V8.61309V8.61775V8.6224V8.62702V8.63161V8.63618V8.64072V8.64524V8.64974V8.65421V8.65866V8.66308V8.66747V8.67185V8.67619V8.68051V8.68481V8.68908V8.69332V8.69754V8.70174V8.7059V8.71005V8.71416V8.71825V8.72232V8.72636V8.73037V8.73435V8.73831V8.74225V8.74615V8.75003V8.75389V8.75771V8.76152V8.76529V8.76903V8.77275V8.77645V8.78011V8.78375V8.78736V8.79094V8.7945V8.79803V8.80153V8.805V8.80844V8.81186V8.81525V8.81861V8.82195V8.82525V8.82853V8.83177V8.83499V8.83819V8.84135V8.84448V8.84759V8.85066V8.85371V8.85673V8.85972V8.86268V8.86561V8.86851V8.87139V8.87423V8.87704V8.87983V8.88258V8.88531V8.888V8.89066V8.8933V8.8959V8.89848V8.90102V8.90354V8.90602V8.90847V8.9109V8.91329V8.91565V8.91798V8.92028V8.92255V8.92479V8.92699V8.92917V8.93131V8.93343V8.93551V8.93756V8.93958V8.94156V8.94352V8.94544V8.94733V8.94919V8.95102V8.95282V8.95458V8.95631V8.95801V8.95968V8.96131V8.96291V8.96448V8.96602V8.96752V8.96899V8.97043V8.97183V8.9732V8.97454V8.97584V8.97712V8.97835V8.97956V8.98073V8.98186V8.98297V8.98404V8.98507V8.98607V8.98704V8.98798V8.98887V8.98974V8.99057V8.99136V8.99213V8.99285V8.99355V8.9942V8.99483V8.99541V8.99597V8.99648V8.99696V8.99741V8.99782V8.9982V8.99854V8.99885V8.99912V8.99935V8.99955V8.99971V8.99984V8.99993V8.99998L16 9H15.5C15.5 9.27614 15.7239 9.5 16 9.5C16.2761 9.5 16.5 9.27614 16.5 9H16L16.5 8.99998V8.99993V8.99984V8.99971V8.99955V8.99935V8.99912V8.99885V8.99854V8.9982V8.99782V8.99741V8.99696V8.99648V8.99597V8.99541V8.99483V8.9942V8.99355V8.99285V8.99213V8.99136V8.99057V8.98974V8.98887V8.98798V8.98704V8.98607V8.98507V8.98404V8.98297V8.98186V8.98073V8.97956V8.97835V8.97712V8.97584V8.97454V8.9732V8.97183V8.97043V8.96899V8.96752V8.96602V8.96448V8.96291V8.96131V8.95968V8.95801V8.95631V8.95458V8.95282V8.95102V8.94919V8.94733V8.94544V8.94352V8.94156V8.93958V8.93756V8.93551V8.93343V8.93131V8.92917V8.92699V8.92479V8.92255V8.92028V8.91798V8.91565V8.91329V8.9109V8.90847V8.90602V8.90354V8.90102V8.89848V8.8959V8.8933V8.89066V8.888V8.88531V8.88258V8.87983V8.87704V8.87423V8.87139V8.86851V8.86561V8.86268V8.85972V8.85673V8.85371V8.85066V8.84759V8.84448V8.84135V8.83819V8.83499V8.83177V8.82853V8.82525V8.82195V8.81861V8.81525V8.81186V8.80844V8.805V8.80153V8.79803V8.7945V8.79094V8.78736V8.78375V8.78011V8.77645V8.77275V8.76903V8.76529V8.76152V8.75771V8.75389V8.75003V8.74615V8.74225V8.73831V8.73435V8.73037V8.72636V8.72232V8.71825V8.71416V8.71005V8.7059V8.70174V8.69754V8.69332V8.68908V8.68481V8.68051V8.67619V8.67185V8.66747V8.66308V8.65866V8.65421V8.64974V8.64524V8.64072V8.63618V8.63161V8.62702V8.6224V8.61775V8.61309V8.6084V8.60368V8.59894V8.59418V8.58939V8.58458V8.57975V8.57489V8.57001V8.56511V8.56018V8.55523V8.55026V8.54526V8.54024V8.53519V8.53013V8.52504V8.51993V8.51479V8.50964V8.50446V8.49926V8.49403V8.48879V8.48352V8.47823V8.47292V8.46758V8.46223V8.45685V8.45145V8.44603V8.44058V8.43512V8.42963V8.42413V8.4186V8.41305V8.40748V8.40189V8.39628V8.39064V8.38499V8.37932V8.37362V8.36791V8.36217V8.35641V8.35064V8.34484V8.33902V8.33319V8.32733V8.32145V8.31556V8.30964V8.3037V8.29775V8.29177V8.28578V8.27977V8.27373V8.26768V8.26161V8.25552V8.24941V8.24328V8.23713V8.23097V8.22478V8.21858V8.21236V8.20612V8.19986V8.19359V8.18729V8.18098V8.17465V8.1683V8.16193V8.15555V8.14915V8.14273V8.13629V8.12984V8.12337V8.11688V8.11037V8.10385V8.09731V8.09075V8.08418V8.07758V8.07098V8.06435V8.05771V8.05105V8.04438V8.03769V8.03098V8.02426V8.01752V8.01076V8.00399V8Z" fill="#5A5758"/>
</svg>
