<svg width="24" height="24" viewBox="0 0 24 24" fill="none" xmlns="http://www.w3.org/2000/svg">
<path d="M4 6.59998H5.77778H20" stroke="#5A5758"/>
<path d="M8.4445 6.6V4.8C8.4445 4.32261 8.6318 3.86477 8.9652 3.52721C9.2986 3.18964 9.75078 3 10.2223 3H13.7778C14.2493 3 14.7015 3.18964 15.0349 3.52721C15.3683 3.86477 15.5556 4.32261 15.5556 4.8V6.6M18.2223 6.6V19.2C18.2223 19.6774 18.035 20.1352 17.7016 20.4728C17.3682 20.8104 16.916 21 16.4445 21H7.55561C7.08411 21 6.63193 20.8104 6.29853 20.4728C5.96513 20.1352 5.77783 19.6774 5.77783 19.2V6.6H18.2223Z" stroke="#5A5758"/>
<path d="M10.2222 11.1V16.5" stroke="#5A5758"/>
<path d="M13.7778 11.1V16.5" stroke="#5A5758"/>
</svg>
