<svg width="22" height="21" viewBox="0 0 22 21" fill="none" xmlns="http://www.w3.org/2000/svg">
<path d="M10.6634 19.7197L10.9987 20.025L11.3352 19.721L12.7852 18.411L12.7863 18.41L12.8509 18.3513C15.3875 16.0462 17.5337 14.0959 19.0434 12.2489C20.5716 10.3792 21.5 8.55423 21.5 6.5C21.5 3.14386 18.8561 0.5 15.5 0.5C13.8016 0.5 12.1708 1.20801 11 2.35738C9.82919 1.20801 8.19843 0.5 6.5 0.5C3.14386 0.5 0.5 3.14386 0.5 6.5C0.5 8.55424 1.42838 10.3793 2.95672 12.2478C4.47166 14.1 6.62734 16.0547 9.17538 18.3653L9.21341 18.3997L9.21413 18.4004L10.6634 19.7197Z" fill="#F54545" stroke="white"/>
</svg>
