<svg width="85" height="927" viewBox="0 0 85 927" fill="none" xmlns="http://www.w3.org/2000/svg">
<rect width="85" height="927" fill="#FAFAFA"/>
<path fill-rule="evenodd" clip-rule="evenodd" d="M18.5 180C18.5 178.067 20.067 176.5 22 176.5C23.933 176.5 25.5 178.067 25.5 180V180.008V180.017V180.025V180.033V180.042V180.05V180.058V180.066V180.075V180.083V180.091V180.1V180.108V180.116V180.125V180.133V180.142V180.15V180.158V180.167V180.175V180.183V180.192V180.2V180.208V180.217V180.225V180.234V180.242V180.25V180.259V180.267V180.275V180.284V180.292V180.301V180.309V180.317V180.326V180.334V180.342V180.351V180.359V180.368V180.376V180.384V180.393V180.401V180.41V180.418V180.426V180.435V180.443V180.452V180.46V180.468V180.477V180.485V180.494V180.502V180.51V180.519V180.527V180.535V180.544V180.552V180.561V180.569V180.577V180.586V180.594V180.602V180.611V180.619V180.628V180.636V180.644V180.653V180.661V180.669V180.678V180.686V180.694V180.703V180.711V180.719V180.728V180.736V180.744V180.753V180.761V180.769V180.778V180.786V180.794V180.803V180.811V180.819V180.828V180.836V180.844V180.852V180.861V180.869V180.877V180.886V180.894V180.902V180.91V180.919V180.927V180.935V180.943V180.951V180.96V180.968V180.976V180.984V180.993V181H18.5L18.5 180ZM17.5 181H16C15.4477 181 15 181.448 15 182V194C15 194.552 15.4477 195 16 195H21.8096C21.5158 194.694 21.2516 194.359 21.0218 194H16V182H17.5L17.5 182.328L17.5 182.842L17.5 182.962L17.5 182.991V182.998V182.999V183V183V183L18 183L17.5 183C17.5 183.276 17.7239 183.5 18 183.5C18.2761 183.5 18.5 183.276 18.5 183L18 183L18.5 183V183V183V182.999V182.998V182.991L18.5 182.962L18.5 182.842L18.5 182.328L18.5 182H25.5V182.004V182.011V182.018V182.024V182.031V182.038V182.044V182.051V182.058V182.064V182.071V182.078V182.084V182.091V182.097V182.104V182.11V182.117V182.123V182.13V182.136V182.143V182.149V182.156V182.162V182.168V182.175V182.181V182.187V182.194V182.2V182.206V182.212V182.219V182.225V182.231V182.237V182.243V182.249V182.256V182.262V182.268V182.274V182.28V182.286V182.292V182.298V182.304V182.31V182.316V182.321V182.327V182.333V182.339V182.345V182.351V182.356V182.362V182.368V182.374V182.379V182.385V182.391V182.396V182.402V182.407V182.413V182.419V182.424V182.43V182.435V182.441V182.446V182.451V182.457V182.462V182.468V182.473V182.478V182.484V182.489V182.494V182.499V182.504V182.51V182.515V182.52V182.525V182.53V182.535V182.54V182.545V182.55V182.555V182.56V182.565V182.57V182.575V182.58V182.585V182.589V182.594V182.599V182.604V182.608V182.613V182.618V182.622V182.627V182.632V182.636V182.641V182.645V182.65V182.654V182.659V182.663V182.667V182.672V182.676V182.681V182.685V182.689V182.693V182.698V182.702V182.706V182.71V182.714V182.718V182.722V182.726V182.73V182.734V182.738V182.742V182.746V182.75V182.754V182.758V182.762V182.765V182.769V182.773V182.776V182.78V182.784V182.787V182.791V182.794V182.798V182.802V182.805V182.808V182.812V182.815V182.819V182.822V182.825V182.829V182.832V182.835V182.838V182.841V182.844V182.848V182.851V182.854V182.857V182.86V182.863V182.866V182.869V182.871V182.874V182.877V182.88V182.883V182.885V182.888V182.891V182.893V182.896V182.898V182.901V182.904V182.906V182.908V182.911V182.913V182.916V182.918V182.92V182.923V182.925V182.927V182.929V182.931V182.933V182.936V182.938V182.94V182.942V182.944V182.945V182.947V182.949V182.951V182.953V182.955V182.956V182.958V182.96V182.961V182.963V182.964V182.966V182.968V182.969V182.97V182.972V182.973V182.975V182.976V182.977V182.978V182.98V182.981V182.982V182.983V182.984V182.985V182.986V182.987V182.988V182.989V182.99V182.991V182.991V182.992V182.993V182.994V182.994V182.995V182.995V182.996V182.996V182.997V182.997V182.998V182.998V182.999V182.999V182.999V182.999V183V183V183V183V183L26 183H25.5C25.5 183.276 25.7239 183.5 26 183.5C26.2761 183.5 26.5 183.276 26.5 183H26L26.5 183V183V183V183V183V182.999V182.999V182.999V182.999V182.998V182.998V182.997V182.997V182.996V182.996V182.995V182.995V182.994V182.994V182.993V182.992V182.991V182.991V182.99V182.989V182.988V182.987V182.986V182.985V182.984V182.983V182.982V182.981V182.98V182.978V182.977V182.976V182.975V182.973V182.972V182.97V182.969V182.968V182.966V182.964V182.963V182.961V182.96V182.958V182.956V182.955V182.953V182.951V182.949V182.947V182.945V182.944V182.942V182.94V182.938V182.936V182.933V182.931V182.929V182.927V182.925V182.923V182.92V182.918V182.916V182.913V182.911V182.908V182.906V182.904V182.901V182.898V182.896V182.893V182.891V182.888V182.885V182.883V182.88V182.877V182.874V182.871V182.869V182.866V182.863V182.86V182.857V182.854V182.851V182.848V182.844V182.841V182.838V182.835V182.832V182.829V182.825V182.822V182.819V182.815V182.812V182.808V182.805V182.802V182.798V182.794V182.791V182.787V182.784V182.78V182.776V182.773V182.769V182.765V182.762V182.758V182.754V182.75V182.746V182.742V182.738V182.734V182.73V182.726V182.722V182.718V182.714V182.71V182.706V182.702V182.698V182.693V182.689V182.685V182.681V182.676V182.672V182.667V182.663V182.659V182.654V182.65V182.645V182.641V182.636V182.632V182.627V182.622V182.618V182.613V182.608V182.604V182.599V182.594V182.589V182.585V182.58V182.575V182.57V182.565V182.56V182.555V182.55V182.545V182.54V182.535V182.53V182.525V182.52V182.515V182.51V182.504V182.499V182.494V182.489V182.484V182.478V182.473V182.468V182.462V182.457V182.451V182.446V182.441V182.435V182.43V182.424V182.419V182.413V182.407V182.402V182.396V182.391V182.385V182.379V182.374V182.368V182.362V182.356V182.351V182.345V182.339V182.333V182.327V182.321V182.316V182.31V182.304V182.298V182.292V182.286V182.28V182.274V182.268V182.262V182.256V182.249V182.243V182.237V182.231V182.225V182.219V182.212V182.206V182.2V182.194V182.187V182.181V182.175V182.168V182.162V182.156V182.149V182.143V182.136V182.13V182.123V182.117V182.11V182.104V182.097V182.091V182.084V182.078V182.071V182.064V182.058V182.051V182.044V182.038V182.031V182.024V182.018V182.011V182.004V182H28V184.174C28.3448 184.255 28.6789 184.364 29 184.498V182C29 181.448 28.5523 181 28 181H26.5V180.993V180.984V180.976V180.968V180.96V180.951V180.943V180.935V180.927V180.919V180.91V180.902V180.894V180.886V180.877V180.869V180.861V180.852V180.844V180.836V180.828V180.819V180.811V180.803V180.794V180.786V180.778V180.769V180.761V180.753V180.744V180.736V180.728V180.719V180.711V180.703V180.694V180.686V180.678V180.669V180.661V180.653V180.644V180.636V180.628V180.619V180.611V180.602V180.594V180.586V180.577V180.569V180.561V180.552V180.544V180.535V180.527V180.519V180.51V180.502V180.494V180.485V180.477V180.468V180.46V180.452V180.443V180.435V180.426V180.418V180.41V180.401V180.393V180.384V180.376V180.368V180.359V180.351V180.342V180.334V180.326V180.317V180.309V180.301V180.292V180.284V180.275V180.267V180.259V180.25V180.242V180.234V180.225V180.217V180.208V180.2V180.192V180.183V180.175V180.167V180.158V180.15V180.142V180.133V180.125V180.116V180.108V180.1V180.091V180.083V180.075V180.066V180.058V180.05V180.042V180.033V180.025V180.017V180.008V180C26.5 177.515 24.4853 175.5 22 175.5C19.5147 175.5 17.5 177.515 17.5 180L17.5 181Z" fill="#5A5758"/>
<circle cx="26.5" cy="190.5" r="5.5" fill="#F54545"/>
<path d="M24.5588 193.5H28.5588V192.206H26.584L27.5588 191.223C28.0966 190.685 28.4748 190.08 28.4748 189.374C28.4748 188.189 27.5336 187.5 26.4832 187.5C25.6681 187.5 24.8782 187.912 24.5 188.786L25.6345 189.45C25.7941 189.08 26.0882 188.811 26.5 188.811C26.895 188.811 27.1303 189.063 27.1303 189.433C27.1303 189.777 26.8782 190.122 26.5336 190.475L24.5588 192.525V193.5Z" fill="white"/>
<path fill-rule="evenodd" clip-rule="evenodd" d="M55.5 180C55.5 178.067 57.067 176.5 59 176.5C60.933 176.5 62.5 178.067 62.5 180V180.008V180.017V180.025V180.033V180.042V180.05V180.058V180.066V180.075V180.083V180.091V180.1V180.108V180.116V180.125V180.133V180.142V180.15V180.158V180.167V180.175V180.183V180.192V180.2V180.208V180.217V180.225V180.234V180.242V180.25V180.259V180.267V180.275V180.284V180.292V180.301V180.309V180.317V180.326V180.334V180.342V180.351V180.359V180.368V180.376V180.384V180.393V180.401V180.41V180.418V180.426V180.435V180.443V180.452V180.46V180.468V180.477V180.485V180.494V180.502V180.51V180.519V180.527V180.535V180.544V180.552V180.561V180.569V180.577V180.586V180.594V180.602V180.611V180.619V180.628V180.636V180.644V180.653V180.661V180.669V180.678V180.686V180.694V180.703V180.711V180.719V180.728V180.736V180.744V180.753V180.761V180.769V180.778V180.786V180.794V180.803V180.811V180.819V180.828V180.836V180.844V180.852V180.861V180.869V180.877V180.886V180.894V180.902V180.91V180.919V180.927V180.935V180.943V180.951V180.96V180.968V180.976V180.984V180.993V181H55.5L55.5 180ZM54.5 181H53C52.4477 181 52 181.448 52 182V194C52 194.552 52.4477 195 53 195H58.8096C58.5158 194.694 58.2516 194.359 58.0218 194H53V182H54.5L54.5 182.328L54.5 182.842L54.5 182.962L54.5 182.991V182.998V182.999V183V183V183L55 183L54.5 183C54.5 183.276 54.7239 183.5 55 183.5C55.2761 183.5 55.5 183.276 55.5 183L55 183L55.5 183V183V183V182.999V182.998V182.991L55.5 182.962L55.5 182.842L55.5 182.328L55.5 182H62.5V182.004V182.011V182.018V182.024V182.031V182.038V182.044V182.051V182.058V182.064V182.071V182.078V182.084V182.091V182.097V182.104V182.11V182.117V182.123V182.13V182.136V182.143V182.149V182.156V182.162V182.168V182.175V182.181V182.187V182.194V182.2V182.206V182.212V182.219V182.225V182.231V182.237V182.243V182.249V182.256V182.262V182.268V182.274V182.28V182.286V182.292V182.298V182.304V182.31V182.316V182.321V182.327V182.333V182.339V182.345V182.351V182.356V182.362V182.368V182.374V182.379V182.385V182.391V182.396V182.402V182.407V182.413V182.419V182.424V182.43V182.435V182.441V182.446V182.451V182.457V182.462V182.468V182.473V182.478V182.484V182.489V182.494V182.499V182.504V182.51V182.515V182.52V182.525V182.53V182.535V182.54V182.545V182.55V182.555V182.56V182.565V182.57V182.575V182.58V182.585V182.589V182.594V182.599V182.604V182.608V182.613V182.618V182.622V182.627V182.632V182.636V182.641V182.645V182.65V182.654V182.659V182.663V182.667V182.672V182.676V182.681V182.685V182.689V182.693V182.698V182.702V182.706V182.71V182.714V182.718V182.722V182.726V182.73V182.734V182.738V182.742V182.746V182.75V182.754V182.758V182.762V182.765V182.769V182.773V182.776V182.78V182.784V182.787V182.791V182.794V182.798V182.802V182.805V182.808V182.812V182.815V182.819V182.822V182.825V182.829V182.832V182.835V182.838V182.841V182.844V182.848V182.851V182.854V182.857V182.86V182.863V182.866V182.869V182.871V182.874V182.877V182.88V182.883V182.885V182.888V182.891V182.893V182.896V182.898V182.901V182.904V182.906V182.908V182.911V182.913V182.916V182.918V182.92V182.923V182.925V182.927V182.929V182.931V182.933V182.936V182.938V182.94V182.942V182.944V182.945V182.947V182.949V182.951V182.953V182.955V182.956V182.958V182.96V182.961V182.963V182.964V182.966V182.968V182.969V182.97V182.972V182.973V182.975V182.976V182.977V182.978V182.98V182.981V182.982V182.983V182.984V182.985V182.986V182.987V182.988V182.989V182.99V182.991V182.991V182.992V182.993V182.994V182.994V182.995V182.995V182.996V182.996V182.997V182.997V182.998V182.998V182.999V182.999V182.999V182.999V183V183V183V183V183L63 183H62.5C62.5 183.276 62.7239 183.5 63 183.5C63.2761 183.5 63.5 183.276 63.5 183H63L63.5 183V183V183V183V183V182.999V182.999V182.999V182.999V182.998V182.998V182.997V182.997V182.996V182.996V182.995V182.995V182.994V182.994V182.993V182.992V182.991V182.991V182.99V182.989V182.988V182.987V182.986V182.985V182.984V182.983V182.982V182.981V182.98V182.978V182.977V182.976V182.975V182.973V182.972V182.97V182.969V182.968V182.966V182.964V182.963V182.961V182.96V182.958V182.956V182.955V182.953V182.951V182.949V182.947V182.945V182.944V182.942V182.94V182.938V182.936V182.933V182.931V182.929V182.927V182.925V182.923V182.92V182.918V182.916V182.913V182.911V182.908V182.906V182.904V182.901V182.898V182.896V182.893V182.891V182.888V182.885V182.883V182.88V182.877V182.874V182.871V182.869V182.866V182.863V182.86V182.857V182.854V182.851V182.848V182.844V182.841V182.838V182.835V182.832V182.829V182.825V182.822V182.819V182.815V182.812V182.808V182.805V182.802V182.798V182.794V182.791V182.787V182.784V182.78V182.776V182.773V182.769V182.765V182.762V182.758V182.754V182.75V182.746V182.742V182.738V182.734V182.73V182.726V182.722V182.718V182.714V182.71V182.706V182.702V182.698V182.693V182.689V182.685V182.681V182.676V182.672V182.667V182.663V182.659V182.654V182.65V182.645V182.641V182.636V182.632V182.627V182.622V182.618V182.613V182.608V182.604V182.599V182.594V182.589V182.585V182.58V182.575V182.57V182.565V182.56V182.555V182.55V182.545V182.54V182.535V182.53V182.525V182.52V182.515V182.51V182.504V182.499V182.494V182.489V182.484V182.478V182.473V182.468V182.462V182.457V182.451V182.446V182.441V182.435V182.43V182.424V182.419V182.413V182.407V182.402V182.396V182.391V182.385V182.379V182.374V182.368V182.362V182.356V182.351V182.345V182.339V182.333V182.327V182.321V182.316V182.31V182.304V182.298V182.292V182.286V182.28V182.274V182.268V182.262V182.256V182.249V182.243V182.237V182.231V182.225V182.219V182.212V182.206V182.2V182.194V182.187V182.181V182.175V182.168V182.162V182.156V182.149V182.143V182.136V182.13V182.123V182.117V182.11V182.104V182.097V182.091V182.084V182.078V182.071V182.064V182.058V182.051V182.044V182.038V182.031V182.024V182.018V182.011V182.004V182H65V184.174C65.3448 184.255 65.6789 184.364 66 184.498V182C66 181.448 65.5523 181 65 181H63.5V180.993V180.984V180.976V180.968V180.96V180.951V180.943V180.935V180.927V180.919V180.91V180.902V180.894V180.886V180.877V180.869V180.861V180.852V180.844V180.836V180.828V180.819V180.811V180.803V180.794V180.786V180.778V180.769V180.761V180.753V180.744V180.736V180.728V180.719V180.711V180.703V180.694V180.686V180.678V180.669V180.661V180.653V180.644V180.636V180.628V180.619V180.611V180.602V180.594V180.586V180.577V180.569V180.561V180.552V180.544V180.535V180.527V180.519V180.51V180.502V180.494V180.485V180.477V180.468V180.46V180.452V180.443V180.435V180.426V180.418V180.41V180.401V180.393V180.384V180.376V180.368V180.359V180.351V180.342V180.334V180.326V180.317V180.309V180.301V180.292V180.284V180.275V180.267V180.259V180.25V180.242V180.234V180.225V180.217V180.208V180.2V180.192V180.183V180.175V180.167V180.158V180.15V180.142V180.133V180.125V180.116V180.108V180.1V180.091V180.083V180.075V180.066V180.058V180.05V180.042V180.033V180.025V180.017V180.008V180C63.5 177.515 61.4853 175.5 59 175.5C56.5147 175.5 54.5 177.515 54.5 180L54.5 181Z" fill="#5A5758"/>
<path fill-rule="evenodd" clip-rule="evenodd" d="M63.5 196C66.5376 196 69 193.538 69 190.5C69 187.462 66.5376 185 63.5 185C60.4624 185 58 187.462 58 190.5C58 193.538 60.4624 196 63.5 196ZM65.6366 187.5C66.8766 187.5 67.7166 188.316 67.7166 189.476C67.7166 189.908 67.5966 190.3 67.3886 190.612L65.6766 193.212H64.2046L65.4206 191.444C64.3086 191.356 63.5566 190.564 63.5566 189.476C63.5566 188.316 64.4046 187.5 65.6366 187.5ZM65.6366 188.7C65.2126 188.7 64.8366 188.988 64.8366 189.476C64.8366 189.964 65.2126 190.252 65.6366 190.252C66.0686 190.252 66.4366 189.972 66.4366 189.476C66.4366 188.98 66.0686 188.7 65.6366 188.7ZM61.4 189.852H62.68V190.972H61.4V192.252H60.28V190.972H59V189.852H60.28V188.572H61.4V189.852Z" fill="#F54545"/>
<path fill-rule="evenodd" clip-rule="evenodd" d="M38.5 228C38.5 226.067 40.067 224.5 42 224.5C43.933 224.5 45.5 226.067 45.5 228V228.008V228.017V228.025V228.033V228.042V228.05V228.058V228.066V228.075V228.083V228.091V228.1V228.108V228.116V228.125V228.133V228.142V228.15V228.158V228.167V228.175V228.183V228.192V228.2V228.208V228.217V228.225V228.234V228.242V228.25V228.259V228.267V228.275V228.284V228.292V228.301V228.309V228.317V228.326V228.334V228.342V228.351V228.359V228.368V228.376V228.384V228.393V228.401V228.41V228.418V228.426V228.435V228.443V228.452V228.46V228.468V228.477V228.485V228.494V228.502V228.51V228.519V228.527V228.535V228.544V228.552V228.561V228.569V228.577V228.586V228.594V228.602V228.611V228.619V228.628V228.636V228.644V228.653V228.661V228.669V228.678V228.686V228.694V228.703V228.711V228.719V228.728V228.736V228.744V228.753V228.761V228.769V228.778V228.786V228.794V228.803V228.811V228.819V228.828V228.836V228.844V228.852V228.861V228.869V228.877V228.886V228.894V228.902V228.91V228.919V228.927V228.935V228.943V228.951V228.96V228.968V228.976V228.984V228.993V229H38.5L38.5 228ZM37.5 229L37.5 228C37.5 225.515 39.5147 223.5 42 223.5C44.4853 223.5 46.5 225.515 46.5 228V228.008V228.017V228.025V228.033V228.042V228.05V228.058V228.066V228.075V228.083V228.091V228.1V228.108V228.116V228.125V228.133V228.142V228.15V228.158V228.167V228.175V228.183V228.192V228.2V228.208V228.217V228.225V228.234V228.242V228.25V228.259V228.267V228.275V228.284V228.292V228.301V228.309V228.317V228.326V228.334V228.342V228.351V228.359V228.368V228.376V228.384V228.393V228.401V228.41V228.418V228.426V228.435V228.443V228.452V228.46V228.468V228.477V228.485V228.494V228.502V228.51V228.519V228.527V228.535V228.544V228.552V228.561V228.569V228.577V228.586V228.594V228.602V228.611V228.619V228.628V228.636V228.644V228.653V228.661V228.669V228.678V228.686V228.694V228.703V228.711V228.719V228.728V228.736V228.744V228.753V228.761V228.769V228.778V228.786V228.794V228.803V228.811V228.819V228.828V228.836V228.844V228.852V228.861V228.869V228.877V228.886V228.894V228.902V228.91V228.919V228.927V228.935V228.943V228.951V228.96V228.968V228.976V228.984V228.993V229H48C48.5523 229 49 229.448 49 230V242C49 242.552 48.5523 243 48 243H36C35.4477 243 35 242.552 35 242V230C35 229.448 35.4477 229 36 229H37.5ZM46.5 230H48V242H36V230H37.5L37.5 230.328L37.5 230.842L37.5 230.962L37.5 230.991V230.998V230.999V231V231V231L38 231L37.5 231C37.5 231.276 37.7239 231.5 38 231.5C38.2761 231.5 38.5 231.276 38.5 231L38 231L38.5 231V231V231V230.999V230.998V230.991L38.5 230.962L38.5 230.842L38.5 230.328L38.5 230H45.5V230.004V230.011V230.018V230.024V230.031V230.038V230.044V230.051V230.058V230.064V230.071V230.078V230.084V230.091V230.097V230.104V230.11V230.117V230.123V230.13V230.136V230.143V230.149V230.156V230.162V230.168V230.175V230.181V230.187V230.194V230.2V230.206V230.212V230.219V230.225V230.231V230.237V230.243V230.249V230.256V230.262V230.268V230.274V230.28V230.286V230.292V230.298V230.304V230.31V230.316V230.321V230.327V230.333V230.339V230.345V230.351V230.356V230.362V230.368V230.374V230.379V230.385V230.391V230.396V230.402V230.407V230.413V230.419V230.424V230.43V230.435V230.441V230.446V230.451V230.457V230.462V230.468V230.473V230.478V230.484V230.489V230.494V230.499V230.504V230.51V230.515V230.52V230.525V230.53V230.535V230.54V230.545V230.55V230.555V230.56V230.565V230.57V230.575V230.58V230.585V230.589V230.594V230.599V230.604V230.608V230.613V230.618V230.622V230.627V230.632V230.636V230.641V230.645V230.65V230.654V230.659V230.663V230.667V230.672V230.676V230.681V230.685V230.689V230.693V230.698V230.702V230.706V230.71V230.714V230.718V230.722V230.726V230.73V230.734V230.738V230.742V230.746V230.75V230.754V230.758V230.762V230.765V230.769V230.773V230.776V230.78V230.784V230.787V230.791V230.794V230.798V230.802V230.805V230.808V230.812V230.815V230.819V230.822V230.825V230.829V230.832V230.835V230.838V230.841V230.844V230.848V230.851V230.854V230.857V230.86V230.863V230.866V230.869V230.871V230.874V230.877V230.88V230.883V230.885V230.888V230.891V230.893V230.896V230.898V230.901V230.904V230.906V230.908V230.911V230.913V230.916V230.918V230.92V230.923V230.925V230.927V230.929V230.931V230.933V230.936V230.938V230.94V230.942V230.944V230.945V230.947V230.949V230.951V230.953V230.955V230.956V230.958V230.96V230.961V230.963V230.964V230.966V230.968V230.969V230.97V230.972V230.973V230.975V230.976V230.977V230.978V230.98V230.981V230.982V230.983V230.984V230.985V230.986V230.987V230.988V230.989V230.99V230.991V230.991V230.992V230.993V230.994V230.994V230.995V230.995V230.996V230.996V230.997V230.997V230.998V230.998V230.999V230.999V230.999V230.999V231V231V231V231V231L46 231H45.5C45.5 231.276 45.7239 231.5 46 231.5C46.2761 231.5 46.5 231.276 46.5 231H46L46.5 231V231V231V231V231V230.999V230.999V230.999V230.999V230.998V230.998V230.997V230.997V230.996V230.996V230.995V230.995V230.994V230.994V230.993V230.992V230.991V230.991V230.99V230.989V230.988V230.987V230.986V230.985V230.984V230.983V230.982V230.981V230.98V230.978V230.977V230.976V230.975V230.973V230.972V230.97V230.969V230.968V230.966V230.964V230.963V230.961V230.96V230.958V230.956V230.955V230.953V230.951V230.949V230.947V230.945V230.944V230.942V230.94V230.938V230.936V230.933V230.931V230.929V230.927V230.925V230.923V230.92V230.918V230.916V230.913V230.911V230.908V230.906V230.904V230.901V230.898V230.896V230.893V230.891V230.888V230.885V230.883V230.88V230.877V230.874V230.871V230.869V230.866V230.863V230.86V230.857V230.854V230.851V230.848V230.844V230.841V230.838V230.835V230.832V230.829V230.825V230.822V230.819V230.815V230.812V230.808V230.805V230.802V230.798V230.794V230.791V230.787V230.784V230.78V230.776V230.773V230.769V230.765V230.762V230.758V230.754V230.75V230.746V230.742V230.738V230.734V230.73V230.726V230.722V230.718V230.714V230.71V230.706V230.702V230.698V230.693V230.689V230.685V230.681V230.676V230.672V230.667V230.663V230.659V230.654V230.65V230.645V230.641V230.636V230.632V230.627V230.622V230.618V230.613V230.608V230.604V230.599V230.594V230.589V230.585V230.58V230.575V230.57V230.565V230.56V230.555V230.55V230.545V230.54V230.535V230.53V230.525V230.52V230.515V230.51V230.504V230.499V230.494V230.489V230.484V230.478V230.473V230.468V230.462V230.457V230.451V230.446V230.441V230.435V230.43V230.424V230.419V230.413V230.407V230.402V230.396V230.391V230.385V230.379V230.374V230.368V230.362V230.356V230.351V230.345V230.339V230.333V230.327V230.321V230.316V230.31V230.304V230.298V230.292V230.286V230.28V230.274V230.268V230.262V230.256V230.249V230.243V230.237V230.231V230.225V230.219V230.212V230.206V230.2V230.194V230.187V230.181V230.175V230.168V230.162V230.156V230.149V230.143V230.136V230.13V230.123V230.117V230.11V230.104V230.097V230.091V230.084V230.078V230.071V230.064V230.058V230.051V230.044V230.038V230.031V230.024V230.018V230.011V230.004V230Z" fill="#5A5758"/>
<path d="M46 133.5C46 135.709 44.2091 137.5 42 137.5C39.7909 137.5 38 135.709 38 133.5C38 131.291 39.7909 129.5 42 129.5C44.2091 129.5 46 131.291 46 133.5Z" stroke="#5A5758"/>
<path d="M34.5 146V146.5H35H49H49.5V146C49.5 142.341 46.067 139.5 42 139.5C37.933 139.5 34.5 142.341 34.5 146Z" stroke="#5A5758"/>
<circle cx="42" cy="714" r="8.5" stroke="#5A5758"/>
<path d="M42 709V714L45 716" stroke="#5A5758" stroke-linecap="round" stroke-linejoin="round"/>
<rect x="34.5" y="756.5" width="15" height="11" rx="0.5" stroke="#5A5758"/>
<rect x="35" y="760" width="14" height="1" fill="#5A5758"/>
<rect x="44.25" y="764.25" width="2.5" height="0.5" rx="0.25" stroke="#5A5758" stroke-width="0.5"/>
<rect x="41.25" y="764.25" width="1.5" height="0.5" rx="0.25" stroke="#5A5758" stroke-width="0.5"/>
<rect x="35" y="805" width="14" height="1" fill="#5A5758"/>
<rect x="35" y="810" width="14" height="1" fill="#5A5758"/>
<rect x="35" y="815" width="10" height="1" fill="#5A5758"/>
<path d="M44.5755 93.5639L49 98M47 88.5C47 92.0899 44.0899 95 40.5 95C36.9101 95 34 92.0899 34 88.5C34 84.9101 36.9101 82 40.5 82C44.0899 82 47 84.9101 47 88.5Z" stroke="#5A5758"/>
<path d="M40.8866 49.6603L40.8859 49.6596C38.3008 47.3155 36.1957 45.4057 34.7308 43.6147C33.2716 41.8307 32.5 40.2258 32.5 38.5C32.5 35.6961 34.6961 33.5 37.5 33.5C39.0886 33.5 40.6211 34.242 41.6193 35.4142L42 35.8612L42.3807 35.4142C43.3789 34.242 44.9114 33.5 46.5 33.5C49.3039 33.5 51.5 35.6961 51.5 38.5C51.5 40.2258 50.7284 41.8308 49.2691 43.6161C47.8065 45.4055 45.7058 47.3144 43.1265 49.6584L43.1148 49.669L43.1137 49.67L42.0013 50.675L40.8866 49.6603Z" stroke="#5A5758"/>
<path d="M49.5 322L34 337.5M49.5 337.5L34 322" stroke="#5A5758"/>
<path d="M42.5 370.25L34.75 378M42.5 385.75L34.75 378M34.75 378H50" stroke="#5A5758"/>
<path d="M38 427L42 423L46 427" stroke="#5A5758"/>
<path d="M38 526L42 522L46 526" stroke="#5A5758"/>
<path d="M46 518L42 522L38 518" stroke="#5A5758"/>
<path d="M36 618H48M42 612V624" stroke="#5A5758"/>
<path d="M36 666H48" stroke="#5A5758"/>
<path d="M46 473L42 477L38 473" stroke="#5A5758"/>
<path d="M32.8334 563.333V568.333M32.8334 568.333H37.8334M32.8334 568.333L36.7 564.7C37.5957 563.804 38.7037 563.149 39.9207 562.797C41.1377 562.445 42.4241 562.407 43.6598 562.687C44.8955 562.966 46.0402 563.555 46.9872 564.396C47.9341 565.238 48.6524 566.306 49.075 567.5M51.1667 576.667V571.667M51.1667 571.667H46.1667M51.1667 571.667L47.3 575.3C46.4044 576.196 45.2964 576.851 44.0794 577.203C42.8623 577.555 41.576 577.593 40.3403 577.313C39.1046 577.034 37.9599 576.445 37.0129 575.604C36.066 574.762 35.3477 573.694 34.925 572.5" stroke="#5A5758"/>
<path d="M34 276.6H35.7778H50" stroke="#5A5758"/>
<path d="M38.4445 276.6V274.8C38.4445 274.323 38.6318 273.865 38.9652 273.527C39.2986 273.19 39.7508 273 40.2223 273H43.7778C44.2493 273 44.7015 273.19 45.0349 273.527C45.3683 273.865 45.5556 274.323 45.5556 274.8V276.6M48.2223 276.6V289.2C48.2223 289.677 48.035 290.135 47.7016 290.473C47.3682 290.81 46.916 291 46.4445 291H37.5556C37.0841 291 36.6319 290.81 36.2985 290.473C35.9651 290.135 35.7778 289.677 35.7778 289.2V276.6H48.2223Z" stroke="#5A5758"/>
<path d="M40.2222 281.1V286.5" stroke="#5A5758"/>
<path d="M43.7778 281.1V286.5" stroke="#5A5758"/>
</svg>
