<svg width="24" height="24" viewBox="0 0 24 24" fill="none" xmlns="http://www.w3.org/2000/svg">
<path d="M2.83337 5.33332V10.3333M2.83337 10.3333H7.83337M2.83337 10.3333L6.70004 6.69998C7.59566 5.80391 8.70368 5.14932 9.92071 4.79729C11.1377 4.44527 12.4241 4.40727 13.6598 4.68686C14.8955 4.96645 16.0402 5.55451 16.9872 6.39616C17.9341 7.23782 18.6524 8.30564 19.075 9.49998M21.1667 18.6666V13.6666M21.1667 13.6666H16.1667M21.1667 13.6666L17.3 17.3C16.4044 18.1961 15.2964 18.8506 14.0794 19.2027C12.8623 19.5547 11.576 19.5927 10.3403 19.3131C9.10459 19.0335 7.95987 18.4455 7.01293 17.6038C6.06598 16.7621 5.34768 15.6943 4.92504 14.5" stroke="#5A5758"/>
</svg>
