<svg width="250" height="150" viewBox="0 0 250 150" fill="none" xmlns="http://www.w3.org/2000/svg">
<path d="M117.001 48.4844H194.258V86.8762H178.718C178.186 86.8762 177.676 87.0883 177.301 87.4656L171.665 93.1297C170.883 93.9155 169.611 93.9155 168.83 93.1297L140.82 64.9789C140.445 64.6017 139.935 64.3896 139.402 64.3896H118.692C118.159 64.3896 117.649 64.6017 117.274 64.9789L108.904 73.3905C104.213 78.1054 96.5824 78.1054 91.8912 73.3905L90.3417 71.8332C89.5654 71.053 89.5654 69.7922 90.3417 69.0119L106.368 52.9045C109.183 50.0751 113.01 48.4844 117.001 48.4844Z" stroke="#5A5758" stroke-width="2"/>
<path d="M162.062 86.3278L173.371 97.6943C175.146 99.4781 174.853 102.438 172.762 103.839L166.437 108.077C164.847 109.142 162.725 108.932 161.375 107.575L158.788 104.975M135.868 81.9401L158.788 104.975M158.788 104.975C158.788 104.975 148.965 115.944 141.871 108.814L140.78 107.718M125.5 92.3608L140.78 107.718M140.78 107.718C140.78 107.718 130.411 117.59 124.409 112.105C123.267 111.062 122.772 110.46 122.772 110.46M115.132 102.781L122.772 110.46M122.772 110.46C122.772 110.46 111.824 120.299 102.581 111.008C94.7774 103.166 81.483 90.9765 77.5288 87.3678C76.7944 86.6976 75.8363 86.3278 74.8421 86.3278H56.7419V48.4844H94.9409" stroke="#5A5758" stroke-width="2"/>
<path d="M24 43H56.7419V90.361C56.7419 91.4655 55.8465 92.361 54.7419 92.361H24" stroke="#5A5758" stroke-width="2"/>
<path d="M227 43H194.258V90.361C194.258 91.4655 195.153 92.361 196.258 92.361H227" stroke="#5A5758" stroke-width="2"/>
<path d="M85.5504 74.4822C85.5504 74.4822 89.0277 67.677 94.5546 63.565C94.9864 63.2438 95.604 62.8456 96.1465 62.5083C96.8508 62.0703 97.7511 62.1423 98.3953 62.6667L98.7363 62.9443C100.401 64.2994 100.885 66.6539 99.6439 68.4057C98.0653 70.634 95.6822 73.3759 93.0631 74.2149C89.971 75.2054 85.5504 74.4822 85.5504 74.4822Z" fill="#FBFBFB"/>
<path d="M85.5504 74.4822L84.6628 74.0235C84.5171 74.3088 84.5161 74.647 84.6602 74.9335C84.8042 75.2199 85.076 75.4199 85.3912 75.4715L85.5504 74.4822ZM93.0631 74.2149L93.3672 75.17L93.0631 74.2149ZM94.5546 63.565L95.1489 64.3708L94.5546 63.565ZM98.3953 62.6667L97.7679 63.4453L98.3953 62.6667ZM96.1465 62.5083L96.6721 63.3608L96.1465 62.5083ZM97.7679 63.4453L98.1088 63.7228L99.3637 62.1657L99.0228 61.8882L97.7679 63.4453ZM98.831 67.8238C98.0637 68.9068 97.1148 70.0943 96.0564 71.104C94.9894 72.1218 93.867 72.905 92.7591 73.2599L93.3672 75.17C94.8783 74.6859 96.257 73.6786 97.431 72.5586C98.6136 71.4305 99.6455 70.1329 100.457 68.9876L98.831 67.8238ZM92.7591 73.2599C91.3797 73.7017 89.6402 73.774 88.184 73.7183C87.4679 73.691 86.8438 73.6338 86.3999 73.5836C86.1783 73.5585 86.0024 73.5353 85.8835 73.5186C85.8241 73.5102 85.779 73.5035 85.7495 73.499C85.7348 73.4968 85.724 73.4951 85.7173 73.494C85.7139 73.4935 85.7116 73.4931 85.7103 73.4929C85.7097 73.4928 85.7093 73.4928 85.7092 73.4927C85.7091 73.4927 85.7091 73.4927 85.7092 73.4928C85.7093 73.4928 85.7094 73.4928 85.7094 73.4928C85.7095 73.4928 85.7097 73.4928 85.5504 74.4822C85.3912 75.4715 85.3914 75.4715 85.3916 75.4716C85.3916 75.4716 85.3918 75.4716 85.392 75.4716C85.3924 75.4717 85.3928 75.4718 85.3933 75.4718C85.3942 75.472 85.3955 75.4722 85.397 75.4724C85.4 75.4729 85.404 75.4736 85.4091 75.4744C85.4193 75.476 85.4337 75.4782 85.4521 75.4811C85.4889 75.4867 85.5418 75.4945 85.6093 75.504C85.7442 75.523 85.9379 75.5485 86.179 75.5758C86.6605 75.6302 87.3349 75.692 88.1104 75.7216C89.6375 75.78 91.6544 75.7186 93.3672 75.17L92.7591 73.2599ZM85.5504 74.4822C86.438 74.9408 86.4379 74.9409 86.4379 74.9411C86.4379 74.9411 86.4378 74.9412 86.4378 74.9412C86.4378 74.9412 86.4378 74.9411 86.4379 74.941C86.4381 74.9406 86.4385 74.9398 86.4391 74.9387C86.4403 74.9363 86.4424 74.9324 86.4452 74.9268C86.451 74.9157 86.4601 74.8983 86.4724 74.8749C86.4971 74.828 86.535 74.757 86.5856 74.6642C86.6869 74.4786 86.8391 74.206 87.0395 73.8647C87.4405 73.1817 88.0331 72.2264 88.7945 71.1452C90.3244 68.973 92.5045 66.3382 95.1489 64.3708L93.9604 62.7592C91.0779 64.9038 88.7559 67.7275 87.1654 69.9859C86.3666 71.1201 85.7444 72.123 85.3207 72.8445C85.1088 73.2055 84.9462 73.4966 84.8357 73.6992C84.7804 73.8005 84.7381 73.8797 84.7092 73.9346C84.6948 73.962 84.6836 73.9833 84.6759 73.9982C84.672 74.0057 84.669 74.0115 84.6668 74.0158C84.6657 74.0179 84.6648 74.0196 84.6642 74.0209C84.6638 74.0215 84.6636 74.0221 84.6633 74.0225C84.6632 74.0227 84.6631 74.023 84.663 74.0231C84.6629 74.0233 84.6628 74.0235 85.5504 74.4822ZM95.1489 64.3708C95.5449 64.0762 96.1322 63.6965 96.6721 63.3608L95.6208 61.6557C95.0757 61.9946 94.4279 62.4114 93.9604 62.7592L95.1489 64.3708ZM98.1088 63.7228C99.4231 64.7927 99.7242 66.5628 98.831 67.8238L100.457 68.9876C102.046 66.7449 101.379 63.8061 99.3637 62.1657L98.1088 63.7228ZM99.0228 61.8882C98.06 61.1044 96.6981 60.9859 95.6208 61.6557L96.6721 63.3608C97.0036 63.1548 97.4421 63.1801 97.7679 63.4453L99.0228 61.8882Z" fill="#E83094"/>
</svg>
