<svg width="250" height="150" viewBox="0 0 250 150" fill="none" xmlns="http://www.w3.org/2000/svg">
<circle cx="96" cy="110" r="10" stroke="#5A5758" stroke-width="2"/>
<circle cx="116" cy="110" r="10" stroke="#5A5758" stroke-width="2"/>
<circle cx="194" cy="110" r="10" stroke="#5A5758" stroke-width="2"/>
<path d="M71 43C71 41.8954 71.8954 41 73 41H182C183.105 41 184 41.8954 184 43V100H73C71.8954 100 71 99.1046 71 98V43Z" stroke="#5A5758" stroke-width="2"/>
<path d="M184 58V57H183V58H184ZM205.5 58L206.314 57.4188L206.015 57H205.5V58ZM184 100H183V101H184V100ZM203.8 108L202.82 108.199L202.983 109H203.8V108ZM217 108V109H218V108H217ZM217 83H218V82.9071L217.983 82.8157L217 83ZM211.197 67L210.318 67.4766L211.197 67ZM184 59H205.5V57H184V59ZM185 100V58H183V100H185ZM184 101H194V99H184V101ZM194 101C198.353 101 201.986 104.091 202.82 108.199L204.78 107.801C203.761 102.78 199.323 99 194 99V101ZM217 107H203.8V109H217V107ZM216 83V108H218V83H216ZM210.318 67.4766C212.966 72.3619 214.948 77.4796 216.017 83.1843L217.983 82.8157C216.869 76.8752 214.807 71.5612 212.076 66.5234L210.318 67.4766ZM204.686 58.5812C206.782 61.5154 208.678 64.4521 210.318 67.4766L212.076 66.5234C210.387 63.4088 208.444 60.4012 206.314 57.4188L204.686 58.5812ZM211.197 66H195V68H211.197V66ZM192 69V81H194V69H192ZM195 84H217V82H195V84ZM192 81C192 82.6569 193.343 84 195 84V82C194.448 82 194 81.5523 194 81H192ZM195 66C193.343 66 192 67.3431 192 69H194C194 68.4477 194.448 68 195 68V66Z" fill="#5A5758"/>
<path d="M76 100V99H75V100H76ZM86 110V111H87V110H86ZM126 110H125V111H126V110ZM184 110V111H185V110H184ZM116 101H194V99H116V101ZM96 101H116V99H96V101ZM76 101H96V99H76V101ZM77 106V100H75V106H77ZM80 109C78.3431 109 77 107.657 77 106H75C75 108.761 77.2386 111 80 111V109ZM86 109H80V111H86V109ZM87 110C87 105.029 91.0294 101 96 101V99C89.9249 99 85 103.925 85 110H87ZM96 101C100.971 101 105 105.029 105 110H107C107 103.925 102.075 99 96 99V101ZM107 110C107 105.029 111.029 101 116 101V99C109.925 99 105 103.925 105 110H107ZM116 101C120.971 101 125 105.029 125 110H127C127 103.925 122.075 99 116 99V101ZM184 109H126V111H184V109ZM194 99C187.925 99 183 103.925 183 110H185C185 105.029 189.029 101 194 101V99Z" fill="#5A5758"/>
<circle cx="96" cy="110" r="5" stroke="#5A5758" stroke-width="2"/>
<circle cx="116" cy="110" r="5" stroke="#5A5758" stroke-width="2"/>
<circle cx="194" cy="110" r="5" stroke="#5A5758" stroke-width="2"/>
<path d="M63 61L55 61" stroke="#E83094" stroke-width="2"/>
<g clip-path="url(#clip0)">
<path d="M140.211 80.7891C139.792 81.9962 139.079 83.0758 138.14 83.9274C136.761 85.1843 134.984 85.9481 133.161 86.2714C129.418 86.9504 125.494 86.0573 121.916 84.9559C120.192 84.4265 118.629 83.8566 117.263 83.2989C116.576 83.0281 115.953 82.7472 115.317 82.5229C114.737 82.3128 114.139 82.1598 113.53 82.0662C112.928 81.978 112.319 81.9583 111.713 82.0076C112.022 81.8507 112.319 81.6704 112.601 81.4681C113.502 80.7851 114.163 79.7201 114.608 78.5238L114.656 78.4066C115.276 76.7588 115.389 74.9584 114.982 73.2436C114.54 71.4557 113.569 69.8489 112.202 68.6402C110.748 67.2782 108.961 66.67 107.517 65.2858C106.892 64.6795 106.28 63.8995 106.163 62.8608C106.119 62.289 106.175 61.614 106.532 61.2139C106.755 60.9472 107.172 60.8684 107.37 61.2139C107.569 61.5595 107.438 61.6181 107.438 62.0222C107.392 62.346 107.41 62.6757 107.491 62.9923C107.571 63.309 107.713 63.6063 107.906 63.8672C108.349 64.5078 109.217 65.0392 109.694 64.2814C109.962 63.8551 109.85 63.75 110.168 63.3054C110.327 62.972 110.611 63.0023 110.764 62.6668C111.139 62.0364 111.205 61.2159 111.258 60.444C111.586 60.3834 111.87 60.149 112.152 60.351C112.136 59.8519 112.112 59.6882 111.834 59.3043C111.437 58.7506 110.853 58.401 110.371 57.9362C108.595 56.2307 107.019 54.2988 104.294 54.602C100.45 55.0425 98.8036 59.9691 99.034 63.2913C99.2325 66.2739 100.275 69.0444 101.52 71.532C102.388 73.2516 103.436 74.846 104.052 76.7556C104.266 77.4771 104.449 78.2975 104.231 79.0553C104.195 79.2484 104.104 79.4266 103.97 79.5676C103.835 79.7085 103.663 79.8058 103.474 79.8474C103.129 79.9606 102.64 79.809 102.451 80.3122C102.423 80.472 102.444 80.6368 102.511 80.7843C102.577 80.9317 102.687 81.0548 102.825 81.1367C103.522 81.4842 104.388 81.1791 104.811 80.3627C105.266 79.3629 105.405 78.2435 105.208 77.1598C104.94 75.7453 104.189 74.5954 103.83 73.2274C103.766 72.9364 103.683 72.4736 103.951 72.312C104.294 72.2392 104.588 72.5807 104.791 72.898C105.347 73.8316 105.386 75.0602 105.45 76.1858C105.5 77.5579 105.543 79.031 106.167 80.2071C106.488 80.8118 106.953 81.3244 107.521 81.6978C108.088 82.0711 108.738 82.293 109.412 82.3431C110.343 82.4178 111.264 82.3431 112.192 82.4967C113.154 82.6547 114.089 82.9485 114.972 83.3696C115.526 83.6424 116.149 83.9759 116.828 84.3073C118.347 85.0527 119.906 85.7112 121.497 86.2795C123.393 86.9646 125.348 87.4653 127.337 87.7749C129.466 88.0699 131.799 88.1588 134.158 87.5728C136.11 87.102 138.003 86.1098 139.321 84.5417C139.984 83.7592 140.518 82.8719 140.9 81.9147C140.924 81.852 140.993 81.6095 141.081 81.2923C140.776 81.1512 140.485 80.9828 140.211 80.7891Z" fill="url(#paint0_linear)"/>
<path d="M123.897 62.8403C123.822 62.7837 123.103 62.327 123.052 62.3553C123.804 61.9047 124.614 61.159 124.688 60.2456C124.732 59.8405 124.675 59.4306 124.524 59.0534C124.372 58.6761 124.13 58.3434 123.82 58.0854C123.694 57.6909 123.436 57.3536 123.091 57.1316C122.694 56.8957 122.239 56.7781 121.779 56.7921C121.297 56.8102 120.818 56.8779 120.349 56.9942C119.739 57.1304 119.136 57.3004 118.544 57.5034C118.01 57.6816 117.49 57.9011 116.989 58.1602C116.548 58.3933 116.328 58.6001 116.328 58.7806C116.382 58.928 116.462 59.0647 116.562 59.1847C116.514 59.3868 116.364 59.7546 116.443 59.9607C116.479 60.0577 116.927 60.2941 116.927 60.2881C116.998 60.0823 117.131 59.9047 117.307 59.7809C117.58 59.5459 117.926 59.4189 118.284 59.4232C118.453 59.4232 118.536 59.5707 118.536 59.8657C118.536 61.2095 118.375 62.5372 118.323 63.8749L118.218 66.5484C118.194 67.1748 117.895 68.2863 118.667 68.5692C118.913 68.6581 119.515 68.8642 119.761 68.7167C119.96 68.5975 119.96 68.0579 119.99 67.868C120.134 67.9468 121.092 69.0016 122.859 68.0842C123.538 67.7326 124.249 67.1951 124.589 66.5221C125.202 65.2955 125.039 63.6688 123.897 62.8403ZM119.773 58.9523C119.967 58.8623 120.166 58.7827 120.369 58.7139C121.094 58.4694 121.759 58.2188 122.541 58.336C122.715 58.3536 122.882 58.408 123.034 58.4956C123.963 59.0898 122.718 60.575 122.206 61.0054C121.693 61.4359 120.955 61.8299 120.305 61.8299C119.763 61.8299 120.293 59.8597 120.472 59.5667C120.462 59.4936 120.435 59.4238 120.395 59.3623C120.355 59.3008 120.302 59.2491 120.24 59.211C120.102 59.0933 119.944 59.0035 119.773 58.9463V58.9523ZM123.101 65.3703C123.077 65.454 123.049 65.5363 123.016 65.6168C122.909 65.8975 122.739 66.1484 122.518 66.3487C122.297 66.549 122.033 66.693 121.747 66.7687C121.308 66.8818 120.087 67.0516 120.021 66.5423C119.956 66.0331 119.972 64.1397 119.99 63.5819C120.001 63.2242 121.578 63.1454 122.303 63.398C123.145 63.6809 123.32 64.5883 123.101 65.3642V65.3703ZM164.008 65.2147C164.008 65.146 163.986 65.1137 163.942 65.1137C163.884 65.1795 163.836 65.2537 163.799 65.3339C163.635 65.6667 163.427 65.9753 163.182 66.2514C163.077 66.3585 162.89 66.5464 162.731 66.5221C162.532 66.4918 162.441 66.2392 162.39 66.0735C162.322 65.7975 162.299 65.5123 162.322 65.2288C162.361 64.6371 162.456 64.0505 162.604 63.4768C162.656 63.2445 162.709 63.0121 162.761 62.7777C162.779 62.6988 162.775 62.618 162.791 62.5412C162.814 62.4099 162.916 62.3109 162.854 62.1674C162.793 62.0239 162.618 61.933 162.513 61.8622C162.222 61.6881 161.896 61.5837 161.559 61.5571C161.385 61.5329 161.283 61.5228 161.25 61.5228C161.191 61.515 161.137 61.4847 161.099 61.4379C160.676 61.0054 160.295 60.8317 159.953 60.9185C158.454 61.2904 158.184 63.2788 157.985 64.5559C157.951 64.758 157.914 64.9803 157.884 65.1945C157.771 65.4526 157.644 65.7042 157.505 65.9482C157.401 66.12 157.296 66.2897 157.187 66.4575C157.119 66.5605 156.929 66.7808 156.75 66.7525C156.446 66.704 156.353 66.508 156.252 66.2574C156.205 66.1136 156.187 65.9618 156.198 65.8108C156.211 65.1383 156.278 64.468 156.396 63.8062C156.502 63.2263 156.863 62.521 156.794 61.931C156.756 61.5854 156.14 61.4419 155.88 61.3126C155.682 61.2196 155.547 61.159 155.39 61.3469C155.267 61.4944 155.116 61.6136 154.944 61.6965C154.773 61.7794 154.586 61.8242 154.397 61.8279C154.286 61.8279 154.23 61.7996 154.23 61.743V61.6278C154.23 61.252 154.502 60.6316 154.24 60.3366C153.978 60.0415 153.527 60.2416 153.293 60.476C152.86 60.9084 153.005 61.5773 152.975 62.129C152.966 62.5339 153.046 62.9356 153.209 63.3051C153.233 63.3582 153.25 63.4148 153.257 63.4728C153.257 63.4728 153.247 63.5314 153.235 63.6284C153.17 64.1255 153.178 64.6166 152.995 65.0955C152.82 65.4966 152.585 65.8675 152.298 66.1948C151.702 66.8717 151.13 67.09 150.584 67.09C150.456 67.0864 150.33 67.0513 150.218 66.9876C150.106 66.9239 150.011 66.8335 149.941 66.7242C149.755 66.4782 149.658 66.1753 149.665 65.8654C149.665 65.73 149.714 65.6633 149.816 65.6633C150.053 65.6964 150.291 65.7132 150.531 65.7138C151.259 65.6189 151.879 64.8651 152.145 64.2104C152.346 63.6999 152.399 63.1413 152.296 62.6012C152.194 62.0612 151.941 61.5626 151.567 61.1651C151.475 61.0729 151.363 61.0026 151.241 60.9593C151.119 60.9159 150.989 60.9007 150.86 60.9145C150.462 60.9082 150.065 60.9633 149.683 61.0782C149.512 61.1307 149.349 61.2035 149.18 61.2601C149.144 61.2742 148.783 61.3429 148.783 61.3571C148.737 61.4823 148.694 61.6258 148.648 61.7834C148.35 62.8096 148.159 63.8649 148.078 64.9318C148.078 64.9904 148.003 65.0753 147.981 65.1339C147.86 65.3667 147.709 65.5827 147.534 65.7765C147.366 66.0004 147.184 66.2124 146.988 66.411C146.623 66.8204 146.114 67.0666 145.572 67.096C145.444 67.0925 145.318 67.0574 145.206 66.9937C145.094 66.93 144.999 66.8396 144.929 66.7303C144.743 66.4843 144.646 66.1813 144.653 65.8715C144.653 65.7037 144.738 65.6694 144.887 65.6694C145.067 65.6993 145.251 65.7061 145.433 65.6896C146.396 65.5764 147.059 64.7136 147.268 63.8002C147.435 63.0424 147.3 62.248 146.893 61.5915C146.774 61.3947 146.628 61.217 146.458 61.064C146.4 61.0037 146.329 60.9572 146.251 60.9279C146.173 60.8985 146.09 60.8871 146.007 60.8943L145.471 60.9448C145.109 60.9664 144.751 61.0413 144.41 61.1671C144.205 61.2588 143.989 61.3214 143.767 61.353C143.721 61.4783 143.676 61.6218 143.632 61.7794C143.41 62.5626 143.246 63.3617 143.142 64.17C143.142 64.1821 143.142 64.1942 143.142 64.2063C143.1 64.5382 143.004 64.8606 142.858 65.1601C142.695 65.5099 142.487 65.8356 142.238 66.1281C142.095 66.2756 141.972 66.3302 141.799 66.217C141.219 65.825 141.479 64.9581 141.601 64.3983C141.799 63.59 141.98 62.7534 142.131 61.9411L142.165 61.7551C142.165 60.9125 140.921 60.9468 140.409 61.1752C140.175 61.2789 140.058 61.3759 140.058 61.4662C140.058 61.5632 140.131 61.646 140.139 61.739C140.126 61.8637 140.093 61.9854 140.04 62.0987C139.873 62.6685 139.684 63.2323 139.494 63.7961C139.34 64.3128 139.147 64.8167 138.918 65.3036C138.94 63.4182 139.275 61.5652 139.373 59.6879C139.398 59.1908 139.639 58.7422 139.74 58.2612C139.799 57.8627 139.712 57.4561 139.498 57.1175C139.154 56.5941 138.28 56.8487 137.824 57.067C137.74 57.1054 137.699 57.1377 137.699 57.1599C138.084 60.5467 137.176 63.9295 137.5 67.3264C137.508 67.4874 137.556 67.6436 137.641 67.7796C137.726 67.9157 137.845 68.0269 137.984 68.1024C138.099 68.2224 138.233 68.3203 138.382 68.3914C138.604 68.3688 138.813 68.2739 138.977 68.1206C139.176 67.874 139.033 67.5244 139.075 67.2375C139.177 66.7156 139.316 66.2017 139.49 65.6997C139.596 65.3361 139.721 64.9785 139.865 64.6287C139.893 64.562 140.014 64.178 140.097 64.2124C140.181 64.2468 140.127 64.3781 140.123 64.4306C140.103 64.8085 140.052 65.1824 140.03 65.5582C139.974 66.5019 140.121 67.7649 141.372 67.5507C141.906 67.4598 142.466 66.9829 142.814 66.5787C142.898 66.4869 142.966 66.3801 143.012 66.2635C143.033 66.2656 143.054 66.2656 143.074 66.2635C143.094 66.7282 143.258 67.1745 143.543 67.5386C143.813 67.909 144.178 68.1975 144.597 68.3732C145.09 68.5118 145.616 68.4518 146.067 68.2054C146.421 68.0369 146.754 67.8259 147.059 67.577C147.332 67.3561 147.577 67.1016 147.788 66.8192C147.881 66.6949 147.959 66.5591 148.019 66.415C148.048 66.3908 148.078 66.3625 148.106 66.3362C148.117 66.5964 148.176 66.8522 148.281 67.09C148.432 67.4226 148.658 67.7146 148.94 67.9426C149.222 68.1707 149.552 68.3285 149.905 68.4035C150.666 68.5308 151.365 68.1388 151.95 67.6861C152.896 66.9094 153.568 65.8405 153.865 64.6408C153.896 64.5216 154.107 63.2707 154.178 63.2687C154.484 63.2687 154.774 63.0404 154.887 63.4021C154.955 63.6183 154.722 64.1659 154.689 64.3943C154.49 65.5219 154.166 68.0317 155.896 68.1489C156.615 68.2014 157.254 67.4295 157.683 66.9263C157.752 66.8499 157.806 66.7607 157.842 66.6636C157.848 66.6363 157.852 66.6086 157.854 66.5807C157.891 66.9962 158.016 67.3987 158.219 67.7609C158.458 68.1832 158.974 68.6076 159.468 68.3812C160.064 68.1084 160.35 67.6113 160.66 67.0637C160.765 66.8616 160.841 66.7404 160.884 66.6717C160.991 66.9949 161.193 67.2769 161.462 67.48C161.634 67.5955 161.823 67.6816 162.022 67.7346C162.317 67.7392 162.608 67.6572 162.858 67.4982C163.092 67.3481 163.303 67.1643 163.486 66.9526C163.693 66.7181 163.85 66.443 163.948 66.1443C164.011 65.8366 164.025 65.5209 163.992 65.2086L164.008 65.2147ZM149.847 63.9153L150.131 62.6261C150.151 62.5392 150.352 61.5329 150.499 61.6157C150.599 61.6534 150.689 61.7154 150.761 61.7964C150.832 61.8774 150.884 61.9749 150.91 62.0805C151.004 62.5104 151.01 62.9557 150.926 63.3879C150.85 63.8628 150.761 64.4387 150.471 64.8328C150.407 64.9265 150.315 64.9972 150.209 65.0349C150.094 65.0712 149.695 64.9904 149.695 64.8166C149.711 64.5098 149.76 64.2056 149.84 63.9093L149.847 63.9153ZM144.78 64.1942C144.919 63.4688 145.062 62.7312 145.264 62.0239C145.354 61.7127 145.425 61.5733 145.481 61.6076L145.616 61.6743C145.676 61.6998 145.729 61.7398 145.77 61.7909C145.811 61.842 145.839 61.9025 145.852 61.9673C145.951 62.3985 145.97 62.8446 145.908 63.2828C145.879 63.5441 145.831 63.8028 145.765 64.0568C145.707 64.2965 145.62 64.5279 145.507 64.7459C145.476 64.8292 145.422 64.9018 145.351 64.9548C145.281 65.0078 145.197 65.0391 145.109 65.045C145.012 65.0391 144.918 65.01 144.833 64.9601C144.728 64.9035 144.675 64.851 144.675 64.8065C144.696 64.5988 144.729 64.3924 144.772 64.1882L144.78 64.1942ZM161.045 63.0141C161.015 63.1939 160.976 63.3697 160.952 63.5314C160.876 64.0326 160.813 64.5418 160.721 65.0349C160.662 65.4007 160.559 65.7576 160.414 66.0978C160.254 66.4263 160.057 66.7348 159.828 67.0172C159.611 67.0172 159.522 66.6131 159.492 66.4453C159.453 66.128 159.453 65.8069 159.492 65.4895C159.519 65.1413 159.567 64.7951 159.635 64.4529C159.738 63.9303 159.888 63.4182 160.082 62.9232C160.16 62.7211 160.249 62.5352 160.328 62.3391C160.362 62.2543 160.441 61.9815 160.559 61.9815C160.652 61.974 160.746 61.9957 160.827 62.0437C160.908 62.0917 160.973 62.1638 161.013 62.2502C161.085 62.4966 161.093 62.7575 161.037 63.008L161.045 63.0141ZM137.383 71.3053C136.626 70.5132 137.613 69.1269 138.56 69.7251C138.706 69.8137 138.828 69.9378 138.914 70.0863C139.001 70.2348 139.05 70.4029 139.056 70.5754C139.063 70.7479 139.027 70.9194 138.953 71.0744C138.878 71.2293 138.766 71.3629 138.628 71.4629C138.435 71.586 138.207 71.6378 137.981 71.6099C137.755 71.5819 137.545 71.4758 137.387 71.3093L137.383 71.3053ZM136.297 63.2546C136.309 63.0525 136.326 62.8504 136.344 62.6645C136.361 62.4727 136.407 62.2847 136.479 62.1068C136.525 62.0206 136.551 61.9247 136.553 61.8268C136.556 61.7288 136.536 61.6316 136.495 61.543C136.35 61.3025 136.054 61.2015 135.806 61.1085C135.526 61.0014 135.314 61.2944 135.046 61.1934C134.811 61.1065 134.648 61.2742 134.519 61.4318L134.486 61.3975C134.356 61.2652 134.201 61.1612 134.03 61.0918C133.859 61.0223 133.676 60.9888 133.493 60.9933C133.167 61.0438 132.867 61.3975 132.698 61.6581C132.448 62.0619 132.257 62.5011 132.132 62.9615C131.92 63.6365 131.87 64.3357 131.698 65.0167C131.595 65.369 131.42 65.6949 131.183 65.9725C131.02 66.1746 130.786 66.5787 130.476 66.4696C130.414 66.4429 130.358 66.4026 130.312 66.3517C130.267 66.3007 130.233 66.2403 130.212 66.1746C130.014 65.633 130.067 64.952 130.198 64.4003C130.276 64.0669 130.345 63.7577 130.417 63.4223C130.466 63.2496 130.502 63.0733 130.524 62.8949C130.511 62.7505 130.534 62.6052 130.591 62.4725C130.622 62.422 130.644 62.3667 130.657 62.3088C130.656 62.2285 130.633 62.1499 130.592 62.0813C130.551 62.0128 130.492 61.9567 130.423 61.9188C130.259 61.8127 130.082 61.7297 129.896 61.6723C129.717 61.6131 129.532 61.5705 129.344 61.545C129.172 61.5207 129.07 61.5106 129.037 61.5106C128.977 61.5035 128.923 61.473 128.886 61.4258C128.461 60.9933 128.08 60.8195 127.74 60.9064C127.39 60.9983 127.079 61.2041 126.854 61.4924C126.33 62.131 126.06 63.0828 125.861 63.881C125.579 65.0753 125.353 66.6393 125.985 67.7548C126.077 67.9413 126.213 68.1012 126.382 68.2202C126.551 68.3391 126.746 68.4133 126.95 68.4358C127.448 68.4722 127.798 68.0215 128.05 67.6517C128.182 67.4602 128.305 67.2619 128.417 67.0576C128.522 66.8556 128.598 66.7343 128.643 66.6656C128.874 67.2112 129.279 67.6962 129.908 67.7083C130.439 67.7205 130.913 67.3284 131.243 66.9384C131.4 66.7607 131.533 66.563 131.64 66.3504C131.682 66.2635 131.711 66.1928 131.735 66.1342L131.775 66.1564C131.782 66.4101 131.843 66.6593 131.954 66.8865C132.065 67.1137 132.224 67.3135 132.418 67.4719C133.334 68.167 134.114 67.3709 134.666 66.6313C134.635 66.6757 134.666 66.8616 134.666 66.9182C134.666 67.1203 134.684 67.3406 134.696 67.5527C134.696 68.2519 134.803 68.937 134.758 69.6361C134.742 69.9029 134.656 70.0403 134.499 70.0403C133.816 70.0403 133.318 69.5189 133.137 68.8824C133.098 68.747 133.062 68.6803 133.028 68.6945L132.71 68.8824C132.64 68.8892 132.572 68.9128 132.512 68.9511C132.483 68.9961 132.471 69.0497 132.478 69.1027C132.431 69.4995 132.496 69.9016 132.665 70.2626C132.79 70.5039 132.977 70.7058 133.207 70.8465C133.436 70.9872 133.699 71.0613 133.967 71.0608C134.311 71.0608 134.704 70.7213 134.96 70.5172C135.447 70.1373 135.953 69.6422 136.132 69.0279C136.34 68.3031 136.412 67.5448 136.342 66.7929C136.271 65.8923 136.246 64.9884 136.269 64.0851C136.265 63.8103 136.279 63.5314 136.299 63.2546H136.297ZM128.83 63.006C128.808 63.2323 128.761 63.4607 128.721 63.6931C128.566 64.5681 128.443 65.4047 128.099 66.2251C128.05 66.3423 127.73 67.0112 127.595 67.0112C127.46 67.0112 127.383 66.8818 127.321 66.6212C126.989 65.2187 127.508 63.6244 128.089 62.3573C128.207 62.1027 128.288 61.9754 128.332 61.9754C128.431 61.9616 128.531 61.9849 128.615 62.0411C128.698 62.0972 128.758 62.1824 128.784 62.2805C128.844 62.5173 128.861 62.7633 128.832 63.006H128.83ZM134.787 62.521C134.711 62.8013 134.674 63.0911 134.678 63.3819C134.658 63.6769 134.633 63.9719 134.591 64.2649C134.527 64.7226 134.434 65.1755 134.313 65.6209C134.226 66.0266 134.054 66.4084 133.808 66.7404C133.63 66.7404 133.505 66.603 133.431 66.3362C133.295 65.7622 133.285 65.1645 133.403 64.5862C133.493 64.1034 133.626 63.6299 133.8 63.1717C133.876 62.9696 133.949 62.7675 134.031 62.5655C134.088 62.4076 134.164 62.2571 134.255 62.1169L134.372 62.1492H134.523C134.557 62.1492 134.615 62.1977 134.698 62.2947C134.781 62.3917 134.811 62.4624 134.789 62.521H134.787ZM147.758 75.8904C147.528 75.3681 147.323 74.8339 147.147 74.29C147.047 73.8818 147.006 73.4613 147.024 73.0411C147.035 72.9693 147.025 72.8956 146.993 72.8303C146.961 72.765 146.91 72.7116 146.847 72.6774C146.69 72.6098 146.523 72.5689 146.353 72.5562C145.98 72.5348 145.611 72.6392 145.302 72.8532C145.191 72.9219 145.09 72.9785 145 73.023C144.911 73.0674 144.867 73.0755 144.867 73.0411C144.913 73.5326 144.888 74.0284 144.792 74.5123C144.679 75.3101 144.501 76.0969 144.26 76.8644C144.246 76.7412 144.186 76.7331 144.081 76.8442C143.926 77.0141 143.781 77.1929 143.646 77.3797C143.479 77.6061 143.314 77.8304 143.153 78.0526C142.655 78.7357 141.934 78.572 141.662 77.8102C141.525 77.4222 141.464 76.9453 141.722 76.5977C141.837 76.4401 141.948 76.2784 142.055 76.1168C142.454 75.527 142.797 74.9005 143.08 74.2455C143.656 72.8916 143.874 71.3619 143.477 69.9231C143.408 69.6662 143.315 69.4166 143.199 69.1774C143.129 69.0123 143.009 68.8747 142.856 68.7854C142.629 68.6975 142.398 68.6233 142.163 68.5631C142.018 68.5217 141.869 68.4933 141.72 68.4782C141.518 68.5207 141.319 68.5747 141.124 68.6399C140.985 68.6867 140.852 68.7497 140.727 68.8278C140.61 68.9006 140.55 68.9774 140.55 69.0582C140.553 69.2841 140.533 69.5097 140.489 69.7311L140.34 70.7415C140.201 71.6367 140.077 72.5258 139.998 73.4251C139.942 74.0677 139.948 74.6961 139.95 75.3408C139.95 75.7853 139.95 76.2279 139.95 76.6725C139.95 76.7553 139.95 76.8321 139.95 76.9049C139.948 76.9034 139.945 76.9027 139.941 76.9027C139.938 76.9027 139.935 76.9034 139.933 76.9049C139.768 76.9534 139.688 77.2585 139.607 77.3818C138.773 78.6427 138.465 77.499 138.493 76.5997C138.54 75.6593 138.708 74.7292 138.993 73.8333C139.053 73.6312 139.114 73.5059 139.025 73.322C138.898 73.0634 138.612 72.9037 138.374 72.7623C138.102 72.5986 137.697 72.7239 137.448 72.8815C137.395 72.9138 137.278 72.8451 137.216 72.8633C136.775 72.9886 137.131 73.3786 137.174 73.6171C137.234 73.9343 137.121 74.2738 137.069 74.585C137.013 74.9306 136.974 75.2781 136.924 75.6237C136.873 76.1248 136.755 76.6164 136.573 77.0847C136.438 77.3959 136.084 78.188 135.703 78.2163C135.194 78.2527 135.139 77.4929 135.139 77.1352C135.154 76.5001 135.241 75.8689 135.397 75.2539C135.492 74.8255 135.927 73.9424 135.474 73.6474C135.056 73.3862 134.575 73.2465 134.084 73.2432C134.055 73.2396 134.026 73.2301 134 73.2152C133.975 73.2003 133.952 73.1803 133.934 73.1563C133.511 72.7266 133.129 72.5541 132.788 72.639C132.083 72.8148 131.672 73.512 131.366 74.1364C130.969 74.9447 130.879 75.8116 130.756 76.6967C130.725 76.9311 130.701 77.1675 130.667 77.402C130.343 77.5272 130.22 77.8526 129.95 78.0466C129.859 78.1191 129.751 78.1659 129.637 78.1822C129.522 78.1986 129.406 78.1838 129.299 78.1395C129.112 78.0425 129.037 77.697 129.013 77.505C128.914 76.6967 129.104 75.8743 129.289 75.0801C129.386 74.6759 129.416 73.9586 129.636 73.5928C129.857 73.227 129.581 73.1644 129.336 72.9644C128.951 72.6451 128.778 72.5723 128.29 72.7623C128.119 72.828 127.971 72.9432 127.863 73.0937C127.77 73.2721 127.703 73.4634 127.664 73.6615C127.255 74.9265 126.922 76.2198 126.461 77.4666C126.396 77.6738 126.317 77.8763 126.225 78.0729C126.231 77.8427 126.252 77.6131 126.288 77.3858C126.346 76.7695 126.409 76.1531 126.487 75.5388C126.529 75.2236 126.576 74.9083 126.63 74.5951C126.674 74.3425 126.828 74.1364 126.828 73.8656C126.8 73.6912 126.718 73.5305 126.594 73.4069C126.489 73.2756 126.396 73.1199 126.209 73.1341C126.094 73.1547 125.981 73.1844 125.871 73.223C125.772 73.2424 125.671 73.2424 125.571 73.223C125.476 73.2048 125.373 73.1361 125.282 73.1563C125.053 73.2068 124.986 73.4615 124.922 73.6534L125.071 73.9545C125.009 74.0294 124.963 74.116 124.934 74.2093C124.905 74.3026 124.895 74.4008 124.904 74.4981C124.96 76.0076 124.817 77.5414 124.755 79.0549C124.739 79.2342 124.751 79.415 124.791 79.5905C124.898 79.9784 125.709 80.4452 126.058 80.2654C126.407 80.0855 126.346 79.7824 126.413 79.4753C126.612 78.5578 127.019 77.596 127.327 76.7028C127.44 76.3795 127.525 76.1996 127.595 76.1652C127.662 76.1652 127.696 76.2218 127.696 76.337C127.696 76.3815 127.672 76.5249 127.629 76.7695C127.515 77.3422 127.506 77.9314 127.603 78.5073C127.694 78.9943 127.99 79.5521 128.508 79.6551C128.795 79.7027 129.09 79.653 129.346 79.5137C129.68 79.3459 129.93 79.0671 130.238 78.867C130.327 78.8084 130.451 78.7357 130.48 78.6245C130.538 78.4528 130.604 78.2842 130.679 78.1193C130.697 78.5923 130.825 79.0541 131.052 79.4672C131.147 79.67 131.297 79.8415 131.483 79.962C131.67 80.0824 131.886 80.1469 132.107 80.1482C132.754 80.1482 133.219 79.259 133.497 78.77C133.602 78.5679 133.677 78.4467 133.721 78.378C133.829 78.7009 134.03 78.9828 134.299 79.1863C135.264 79.7925 136.301 78.9519 136.716 78.0708C136.779 77.957 136.824 77.8335 136.849 77.7051C136.849 77.6828 136.849 77.6343 136.839 77.5616V77.5252C136.883 77.8334 136.978 78.1319 137.119 78.4083C137.204 78.6556 137.361 78.8709 137.569 79.0263C137.776 79.1816 138.025 79.2698 138.282 79.2793C138.946 79.2894 139.426 78.7033 139.841 78.2507L139.909 78.1133C139.958 78.0264 139.992 77.9617 140.014 77.9112C140.049 78.1325 140.104 78.3503 140.177 78.5619C140.247 78.8014 140.354 79.0279 140.495 79.2328C140.679 79.4528 140.91 79.628 141.171 79.7455C141.431 79.863 141.713 79.9198 141.998 79.9118C142.5 79.9118 142.927 79.6046 143.304 79.3055C143.427 79.2045 144.367 78.5114 144.335 78.3517C144.344 78.4188 144.344 78.4867 144.335 78.5538C144.335 78.6225 144.335 78.6791 144.335 78.7235C144.335 79.2611 144.649 80.1381 145.236 80.2977C146.229 80.5584 147.534 79.2671 147.901 78.4447C148.305 77.5272 148.08 76.7048 147.76 75.8904H147.758ZM141.573 74.8194C141.583 74.4961 141.603 74.1162 141.63 73.6797C141.658 73.2432 141.692 72.7805 141.732 72.2935C141.771 71.8064 141.815 71.3578 141.865 70.9476C141.903 70.6081 141.959 70.2709 142.031 69.9372C142.093 69.6705 142.159 69.5331 142.23 69.5331C142.387 69.5331 142.486 69.7938 142.532 70.3151C142.565 70.691 142.587 70.9921 142.597 71.2184C142.609 71.4447 142.615 71.6044 142.615 71.6953C142.634 73.0181 142.264 74.3164 141.553 75.4236C141.553 75.3428 141.563 75.1427 141.575 74.8194H141.573ZM133.894 74.7164C133.874 74.8525 133.847 74.9874 133.812 75.1205C133.773 75.3004 133.771 75.4984 133.749 75.6823C133.707 76.0495 133.646 76.4144 133.568 76.7755C133.493 77.1299 133.385 77.4762 133.246 77.8102C133.097 78.141 132.906 78.4502 132.677 78.7296C132.553 78.7296 132.462 78.6003 132.401 78.3396C132.343 78.1056 132.312 77.8655 132.309 77.6242C132.313 77.1835 132.363 76.7444 132.46 76.3148C132.551 75.8831 132.665 75.4567 132.802 75.0377C132.908 74.7107 133.031 74.3896 133.171 74.0758C133.288 73.8212 133.37 73.6938 133.413 73.6938C133.512 73.6802 133.613 73.7039 133.696 73.7604C133.779 73.817 133.839 73.9026 133.864 74.001C133.921 74.235 133.932 74.4781 133.896 74.7164H133.894ZM146.44 78.8731C146.341 79.1398 146.11 79.2328 145.665 78.9761C144.915 78.5437 145.775 77.7536 145.364 77.2221C145.32 77.1655 144.768 77.5717 144.716 77.602C145.151 77.3494 145.326 74.7729 145.687 74.7729C145.753 74.7729 145.771 74.8376 145.737 74.975C145.622 75.4176 145.991 76.048 146.134 76.4502C146.235 76.7614 146.672 78.2668 146.442 78.8731H146.44Z" fill="#5A5758"/>
<path d="M135.659 59.7082C135.885 59.7361 136.107 59.7862 136.322 59.8578C136.332 59.8274 136.34 59.7971 136.35 59.7668C134.331 58.1554 132.223 56.6629 130.036 55.2969C126.497 53.1387 122.752 51.7727 118.582 52.0313C118.032 52.1546 117.76 52.8396 117.817 53.4459C117.863 53.9308 118.125 54.3592 118.625 54.3795C120.774 54.4663 122.927 54.4017 125.057 54.7391C127.141 55.0519 129.165 55.6913 131.056 56.6346C132.062 57.1486 133.036 57.7256 133.971 58.3624C134.132 58.4776 134.978 59.1889 135.659 59.7082Z" fill="#5A5758"/>
</g>
<path d="M63 42H18" stroke="#E83094" stroke-width="2"/>
<path d="M47 61L0 61" stroke="#E83094" stroke-width="2"/>
<path d="M63 80H18" stroke="#E83094" stroke-width="2"/>
<path d="M63 99H37" stroke="#E83094" stroke-width="2"/>
<defs>
<linearGradient id="paint0_linear" x1="116.564" y1="52.3993" x2="123.232" y2="89.5618" gradientUnits="userSpaceOnUse">
<stop stop-color="#5A5758"/>
<stop offset="0.25" stop-color="#5A5758"/>
<stop offset="0.78" stop-color="#5A5758"/>
<stop offset="1" stop-color="#D7569C"/>
</linearGradient>
<clipPath id="clip0">
<rect width="65" height="36" fill="white" transform="translate(99 52)"/>
</clipPath>
</defs>
</svg>
