<svg width="250" height="150" viewBox="0 0 250 150" fill="none" xmlns="http://www.w3.org/2000/svg">
<g clip-path="url(#clip0)">
<path d="M116.555 94.3217C116.511 94.2887 116.091 94.0223 116.061 94.0388C116.501 93.7759 116.974 93.341 117.017 92.8082C117.043 92.5718 117.01 92.3328 116.921 92.1127C116.833 91.8926 116.691 91.6985 116.51 91.548C116.436 91.3179 116.285 91.1212 116.084 90.9917C115.852 90.8541 115.586 90.7854 115.317 90.7936C115.035 90.8042 114.755 90.8437 114.481 90.9115C114.124 90.9909 113.772 91.0901 113.426 91.2086C113.113 91.3125 112.809 91.4405 112.517 91.5917C112.259 91.7276 112.13 91.8482 112.13 91.9535C112.162 92.0395 112.208 92.1193 112.267 92.1893C112.239 92.3072 112.151 92.5217 112.197 92.642C112.218 92.6985 112.481 92.8365 112.481 92.8329C112.522 92.7129 112.599 92.6093 112.702 92.537C112.862 92.4 113.065 92.3259 113.273 92.3284C113.372 92.3284 113.421 92.4144 113.421 92.5865C113.421 93.3704 113.327 94.1449 113.297 94.9253L113.235 96.4848C113.221 96.8502 113.046 97.4985 113.498 97.6636C113.642 97.7154 113.993 97.8357 114.137 97.7496C114.253 97.6801 114.253 97.3653 114.271 97.2545C114.355 97.3005 114.915 97.9158 115.948 97.3807C116.345 97.1755 116.761 96.862 116.959 96.4695C117.318 95.7539 117.223 94.805 116.555 94.3217ZM114.144 92.0537C114.258 92.0012 114.374 91.9548 114.492 91.9146C114.916 91.772 115.305 91.6258 115.762 91.6942C115.864 91.7045 115.962 91.7362 116.05 91.7873C116.594 92.1339 115.866 93.0003 115.566 93.2514C115.267 93.5025 114.835 93.7323 114.455 93.7323C114.138 93.7323 114.448 92.583 114.553 92.4121C114.547 92.3695 114.531 92.3287 114.508 92.2929C114.484 92.257 114.453 92.2268 114.417 92.2046C114.337 92.136 114.244 92.0836 114.144 92.0502V92.0537ZM116.09 95.7976C116.076 95.8464 116.059 95.8944 116.04 95.9414C115.978 96.1051 115.878 96.2514 115.749 96.3683C115.62 96.4851 115.465 96.5691 115.298 96.6133C115.042 96.6793 114.328 96.7783 114.289 96.4812C114.251 96.1842 114.26 95.0797 114.271 94.7543C114.278 94.5457 115.199 94.4997 115.623 94.6471C116.115 94.8121 116.218 95.3414 116.09 95.794V95.7976ZM140.005 95.7068C140.005 95.6667 139.992 95.6478 139.966 95.6478C139.932 95.6862 139.904 95.7295 139.883 95.7763C139.787 95.9704 139.665 96.1505 139.522 96.3115C139.46 96.374 139.351 96.4836 139.258 96.4695C139.142 96.4518 139.089 96.3044 139.058 96.2078C139.019 96.0468 139.006 95.8804 139.019 95.715C139.042 95.3698 139.097 95.0276 139.184 94.693C139.214 94.5575 139.245 94.4219 139.276 94.2852C139.286 94.2392 139.284 94.1921 139.293 94.1473C139.307 94.0706 139.366 94.0129 139.33 93.9292C139.294 93.8455 139.192 93.7924 139.13 93.7512C138.96 93.6496 138.77 93.5887 138.573 93.5732C138.471 93.559 138.412 93.5532 138.392 93.5532C138.358 93.5486 138.326 93.5309 138.304 93.5036C138.057 93.2514 137.834 93.15 137.634 93.2007C136.758 93.4176 136.6 94.5775 136.484 95.3225C136.464 95.4404 136.442 95.57 136.424 95.695C136.358 95.8455 136.284 95.9923 136.203 96.1347C136.142 96.2349 136.081 96.3339 136.017 96.4317C135.977 96.4919 135.866 96.6203 135.761 96.6038C135.584 96.5755 135.529 96.4612 135.47 96.315C135.443 96.2312 135.432 96.1426 135.439 96.0545C135.447 95.6622 135.485 95.2712 135.555 94.8852C135.616 94.5469 135.828 94.1355 135.787 93.7913C135.765 93.5897 135.405 93.506 135.253 93.4306C135.137 93.3763 135.058 93.341 134.966 93.4506C134.895 93.5366 134.806 93.6061 134.706 93.6545C134.606 93.7029 134.497 93.729 134.386 93.7311C134.321 93.7311 134.288 93.7146 134.288 93.6816V93.6144C134.288 93.3952 134.447 93.0333 134.294 92.8612C134.141 92.6891 133.877 92.8058 133.74 92.9425C133.487 93.1948 133.572 93.585 133.555 93.9068C133.549 94.143 133.596 94.3773 133.692 94.5928C133.706 94.6238 133.715 94.6568 133.719 94.6907C133.719 94.6907 133.714 94.7249 133.707 94.7814C133.668 95.0714 133.673 95.3579 133.566 95.6372C133.464 95.8712 133.327 96.0876 133.159 96.2785C132.81 96.6734 132.476 96.8007 132.157 96.8007C132.082 96.7986 132.008 96.7781 131.943 96.741C131.877 96.7038 131.822 96.6511 131.781 96.5873C131.672 96.4439 131.615 96.2671 131.619 96.0864C131.619 96.0074 131.648 95.9685 131.708 95.9685C131.846 95.9878 131.986 95.9976 132.125 95.9979C132.552 95.9425 132.914 95.5029 133.069 95.1209C133.187 94.8232 133.218 94.4973 133.158 94.1823C133.098 93.8672 132.95 93.5764 132.731 93.3445C132.677 93.2907 132.612 93.2497 132.541 93.2244C132.47 93.1992 132.393 93.1903 132.318 93.1983C132.085 93.1946 131.853 93.2268 131.63 93.2938C131.53 93.3245 131.435 93.3669 131.336 93.3999C131.315 93.4082 131.104 93.4482 131.104 93.4565C131.077 93.5296 131.052 93.6133 131.025 93.7052C130.851 94.3038 130.739 94.9194 130.692 95.5418C130.692 95.5759 130.648 95.6255 130.635 95.6596C130.564 95.7955 130.476 95.9215 130.374 96.0345C130.276 96.1651 130.169 96.2888 130.054 96.4046C129.841 96.6434 129.544 96.7871 129.227 96.8042C129.152 96.8022 129.078 96.7817 129.013 96.7445C128.947 96.7074 128.892 96.6546 128.851 96.5909C128.742 96.4474 128.685 96.2707 128.689 96.0899C128.689 95.9921 128.739 95.972 128.826 95.972C128.932 95.9895 129.039 95.9935 129.145 95.9838C129.708 95.9178 130.096 95.4144 130.218 94.8816C130.316 94.4396 130.237 93.9762 129.999 93.5932C129.929 93.4785 129.844 93.3748 129.744 93.2856C129.71 93.2504 129.669 93.2232 129.624 93.2061C129.578 93.189 129.529 93.1823 129.481 93.1865L129.167 93.216C128.956 93.2286 128.747 93.2723 128.548 93.3457C128.428 93.3992 128.301 93.4357 128.171 93.4541C128.145 93.5272 128.118 93.6109 128.092 93.7029C127.963 94.1597 127.867 94.6259 127.806 95.0974C127.806 95.1044 127.806 95.1115 127.806 95.1186C127.782 95.3122 127.725 95.5003 127.64 95.675C127.545 95.879 127.423 96.069 127.278 96.2396C127.194 96.3256 127.122 96.3575 127.021 96.2915C126.682 96.0628 126.834 95.5571 126.905 95.2306C127.021 94.759 127.127 94.271 127.215 93.7972L127.235 93.6887C127.235 93.1972 126.508 93.2172 126.208 93.3504C126.071 93.4109 126.003 93.4675 126.003 93.5201C126.003 93.5767 126.046 93.6251 126.05 93.6793C126.043 93.7521 126.023 93.823 125.992 93.8891C125.895 94.2215 125.785 94.5504 125.673 94.8793C125.583 95.1807 125.471 95.4746 125.336 95.7587C125.349 94.6588 125.545 93.5779 125.602 92.4828C125.617 92.1928 125.758 91.9311 125.817 91.6506C125.851 91.4181 125.801 91.1809 125.675 90.9834C125.475 90.6781 124.964 90.8266 124.697 90.9539C124.648 90.9763 124.624 90.9952 124.624 91.0082C124.849 92.9838 124.318 94.9571 124.508 96.9386C124.512 97.0325 124.541 97.1236 124.59 97.203C124.64 97.2823 124.709 97.3472 124.791 97.3913C124.858 97.4613 124.936 97.5184 125.023 97.5598C125.153 97.5467 125.275 97.4913 125.371 97.4019C125.487 97.2581 125.404 97.0541 125.428 96.8867C125.488 96.5823 125.569 96.2825 125.671 95.9897C125.733 95.7776 125.806 95.569 125.89 95.3649C125.906 95.326 125.977 95.1021 126.026 95.1221C126.075 95.1421 126.043 95.2188 126.041 95.2494C126.03 95.4698 125.999 95.6879 125.987 95.9072C125.954 96.4577 126.04 97.1944 126.771 97.0695C127.084 97.0164 127.411 96.7382 127.614 96.5025C127.664 96.4489 127.703 96.3866 127.73 96.3186C127.742 96.3198 127.754 96.3198 127.766 96.3186C127.778 96.5896 127.874 96.85 128.04 97.0624C128.198 97.2785 128.411 97.4468 128.657 97.5492C128.945 97.6301 129.252 97.5951 129.516 97.4514C129.723 97.3531 129.918 97.23 130.096 97.0848C130.256 96.956 130.399 96.8075 130.522 96.6427C130.577 96.5702 130.622 96.491 130.657 96.407C130.674 96.3928 130.692 96.3763 130.708 96.361C130.714 96.5128 130.749 96.662 130.81 96.8007C130.899 96.9947 131.031 97.165 131.196 97.2981C131.36 97.4311 131.554 97.5232 131.76 97.5669C132.204 97.6412 132.613 97.4125 132.956 97.1484C133.509 96.6954 133.901 96.0718 134.075 95.372C134.093 95.3025 134.216 94.5728 134.258 94.5716C134.437 94.5716 134.606 94.4384 134.673 94.6494C134.712 94.7755 134.576 95.095 134.556 95.2282C134.44 95.886 134.251 97.35 135.262 97.4184C135.683 97.449 136.056 96.9987 136.307 96.7052C136.347 96.6607 136.379 96.6086 136.4 96.552C136.404 96.5361 136.406 96.5199 136.407 96.5036C136.429 96.746 136.502 96.9808 136.621 97.1921C136.76 97.4384 137.062 97.686 137.351 97.5539C137.699 97.3948 137.866 97.1048 138.047 96.7854C138.109 96.6675 138.153 96.5968 138.178 96.5567C138.241 96.7452 138.359 96.9098 138.516 97.0282C138.617 97.0956 138.727 97.1458 138.844 97.1767C139.016 97.1794 139.186 97.1316 139.332 97.0388C139.469 96.9513 139.593 96.8441 139.699 96.7205C139.82 96.5838 139.912 96.4233 139.97 96.249C140.006 96.0696 140.015 95.8854 139.995 95.7032L140.005 95.7068ZM131.726 94.9488L131.892 94.1968C131.904 94.1461 132.021 93.559 132.107 93.6074C132.166 93.6294 132.218 93.6655 132.26 93.7128C132.302 93.76 132.332 93.8169 132.347 93.8785C132.403 94.1293 132.406 94.3891 132.357 94.6412C132.312 94.9182 132.26 95.2541 132.091 95.484C132.053 95.5387 131.999 95.5799 131.937 95.6019C131.87 95.6231 131.637 95.5759 131.637 95.4746C131.646 95.2956 131.675 95.1181 131.721 94.9453L131.726 94.9488ZM128.763 95.1115C128.845 94.6883 128.928 94.2581 129.047 93.8455C129.099 93.664 129.141 93.5826 129.173 93.6027L129.252 93.6416C129.287 93.6564 129.318 93.6798 129.342 93.7096C129.366 93.7394 129.383 93.7747 129.39 93.8125C129.448 94.064 129.459 94.3242 129.423 94.5799C129.406 94.7323 129.378 94.8832 129.339 95.0313C129.306 95.1711 129.255 95.3062 129.188 95.4333C129.17 95.4819 129.139 95.5242 129.098 95.5552C129.056 95.5861 129.007 95.6044 128.956 95.6078C128.899 95.6043 128.844 95.5874 128.795 95.5583C128.733 95.5253 128.702 95.4946 128.702 95.4687C128.715 95.3475 128.734 95.2271 128.759 95.108L128.763 95.1115ZM138.272 94.4231C138.255 94.528 138.232 94.6306 138.218 94.7249C138.174 95.0172 138.137 95.3143 138.083 95.6019C138.049 95.8153 137.988 96.0235 137.903 96.2219C137.81 96.4135 137.695 96.5935 137.561 96.7583C137.434 96.7583 137.382 96.5225 137.365 96.4247C137.341 96.2396 137.341 96.0522 137.365 95.8671C137.38 95.664 137.408 95.462 137.448 95.2624C137.509 94.9575 137.596 94.6589 137.709 94.37C137.755 94.2522 137.807 94.1437 137.853 94.0294C137.873 93.9799 137.92 93.8207 137.988 93.8207C138.043 93.8164 138.098 93.829 138.145 93.857C138.193 93.885 138.231 93.9271 138.254 93.9775C138.296 94.1212 138.301 94.2734 138.268 94.4196L138.272 94.4231ZM124.439 99.2596C123.997 98.7976 124.574 97.9889 125.128 98.3378C125.213 98.3895 125.284 98.462 125.334 98.5486C125.385 98.6352 125.414 98.7332 125.417 98.8339C125.421 98.9345 125.401 99.0345 125.357 99.1249C125.313 99.2153 125.248 99.2932 125.167 99.3516C125.054 99.4234 124.921 99.4536 124.789 99.4373C124.657 99.421 124.534 99.3591 124.441 99.262L124.439 99.2596ZM123.804 94.5634C123.811 94.4455 123.822 94.3276 123.832 94.2192C123.842 94.1073 123.869 93.9976 123.911 93.8938C123.938 93.8436 123.953 93.7876 123.954 93.7305C123.956 93.6734 123.944 93.6167 123.92 93.5649C123.835 93.4247 123.662 93.3657 123.517 93.3115C123.354 93.249 123.229 93.4199 123.073 93.361C122.936 93.3103 122.841 93.4082 122.765 93.5001L122.745 93.4801C122.669 93.4029 122.579 93.3423 122.479 93.3017C122.379 93.2612 122.272 93.2417 122.165 93.2443C121.975 93.2738 121.799 93.4801 121.701 93.6321C121.554 93.8676 121.442 94.1238 121.37 94.3924C121.245 94.7862 121.216 95.194 121.115 95.5913C121.056 95.7968 120.953 95.9869 120.815 96.1488C120.72 96.2667 120.583 96.5025 120.401 96.4388C120.365 96.4232 120.332 96.3997 120.306 96.37C120.279 96.3403 120.259 96.3051 120.247 96.2667C120.131 95.9508 120.162 95.5535 120.239 95.2317C120.284 95.0372 120.325 94.8569 120.367 94.6612C120.396 94.5605 120.416 94.4576 120.429 94.3535C120.422 94.2694 120.435 94.1846 120.469 94.1072C120.487 94.0777 120.5 94.0455 120.507 94.0117C120.506 93.9648 120.493 93.919 120.469 93.879C120.445 93.839 120.411 93.8063 120.37 93.7842C120.275 93.7223 120.171 93.6739 120.062 93.6404C119.957 93.6058 119.849 93.581 119.74 93.5661C119.639 93.552 119.58 93.5461 119.56 93.5461C119.525 93.5419 119.493 93.5241 119.472 93.4966C119.223 93.2443 119 93.1429 118.802 93.1936C118.597 93.2472 118.415 93.3672 118.284 93.5355C117.977 93.908 117.82 94.4632 117.704 94.9288C117.539 95.6254 117.406 96.5378 117.776 97.1885C117.829 97.2973 117.909 97.3906 118.008 97.46C118.106 97.5294 118.22 97.5726 118.34 97.5858C118.631 97.607 118.835 97.3441 118.983 97.1284C119.06 97.0166 119.132 96.901 119.198 96.7818C119.259 96.664 119.303 96.5932 119.33 96.5531C119.465 96.8714 119.701 97.1543 120.069 97.1614C120.379 97.1685 120.657 96.9398 120.85 96.7123C120.941 96.6086 121.019 96.4933 121.082 96.3693C121.106 96.3186 121.124 96.2773 121.137 96.2431L121.161 96.2561C121.165 96.4041 121.2 96.5494 121.265 96.682C121.33 96.8145 121.423 96.9311 121.537 97.0235C122.072 97.429 122.528 96.9645 122.851 96.5331C122.832 96.559 122.851 96.6675 122.851 96.7005C122.851 96.8184 122.861 96.9469 122.868 97.0706C122.868 97.4785 122.931 97.8781 122.904 98.286C122.895 98.4416 122.845 98.5217 122.753 98.5217C122.354 98.5217 122.063 98.2176 121.957 97.8463C121.934 97.7673 121.913 97.7284 121.893 97.7366L121.707 97.8463C121.666 97.8503 121.626 97.864 121.591 97.8864C121.575 97.9126 121.568 97.9439 121.572 97.9748C121.544 98.2062 121.582 98.4408 121.681 98.6514C121.754 98.7921 121.863 98.9099 121.998 98.992C122.132 99.0741 122.286 99.1173 122.442 99.117C122.643 99.117 122.873 98.919 123.023 98.7999C123.307 98.5783 123.603 98.2895 123.708 97.9311C123.83 97.5084 123.871 97.066 123.831 96.6274C123.789 96.102 123.775 95.5748 123.788 95.0478C123.786 94.8875 123.794 94.7249 123.805 94.5634H123.804ZM119.439 94.4184C119.426 94.5504 119.398 94.6836 119.375 94.8192C119.285 95.3296 119.213 95.8176 119.012 96.2962C118.983 96.3645 118.796 96.7547 118.717 96.7547C118.638 96.7547 118.593 96.6793 118.557 96.5272C118.363 95.7091 118.666 94.7791 119.006 94.04C119.075 93.8915 119.122 93.8172 119.148 93.8172C119.206 93.8091 119.264 93.8227 119.313 93.8555C119.362 93.8883 119.397 93.9379 119.412 93.9952C119.447 94.1333 119.457 94.2768 119.44 94.4184H119.439ZM122.922 94.1355C122.877 94.2989 122.856 94.468 122.858 94.6376C122.846 94.8097 122.831 94.9818 122.807 95.1528C122.77 95.4197 122.715 95.6839 122.644 95.9437C122.593 96.1804 122.493 96.4031 122.349 96.5968C122.245 96.5968 122.172 96.5166 122.129 96.361C122.049 96.0262 122.044 95.6775 122.113 95.3402C122.165 95.0585 122.243 94.7823 122.345 94.515C122.389 94.3972 122.432 94.2793 122.479 94.1614C122.513 94.0693 122.557 93.9815 122.611 93.8997L122.679 93.9186H122.767C122.787 93.9186 122.821 93.9469 122.87 94.0034C122.918 94.06 122.936 94.1013 122.923 94.1355H122.922ZM130.505 101.934C130.37 101.63 130.251 101.318 130.147 101.001C130.089 100.763 130.065 100.517 130.075 100.272C130.082 100.23 130.076 100.187 130.057 100.149C130.039 100.111 130.009 100.08 129.972 100.06C129.88 100.021 129.782 99.9967 129.683 99.9893C129.465 99.9768 129.249 100.038 129.069 100.163C129.004 100.203 128.945 100.236 128.892 100.262C128.84 100.288 128.815 100.292 128.815 100.272C128.842 100.559 128.827 100.848 128.77 101.13C128.705 101.596 128.601 102.055 128.459 102.502C128.451 102.431 128.416 102.426 128.355 102.491C128.264 102.59 128.179 102.694 128.101 102.803C128.003 102.935 127.907 103.066 127.813 103.196C127.521 103.594 127.1 103.499 126.941 103.054C126.861 102.828 126.825 102.55 126.976 102.347C127.043 102.255 127.108 102.161 127.171 102.066C127.404 101.722 127.604 101.357 127.77 100.975C128.106 100.185 128.234 99.2926 128.002 98.4533C127.961 98.3035 127.907 98.1579 127.839 98.0184C127.799 97.922 127.728 97.8418 127.639 97.7897C127.506 97.7384 127.371 97.6951 127.233 97.66C127.149 97.6359 127.062 97.6193 126.975 97.6105C126.857 97.6353 126.741 97.6668 126.626 97.7048C126.545 97.7321 126.467 97.7689 126.394 97.8144C126.326 97.8569 126.291 97.9017 126.291 97.9488C126.293 98.0806 126.281 98.2122 126.255 98.3414L126.168 98.9308C126.086 99.453 126.014 99.9716 125.968 100.496C125.936 100.871 125.939 101.238 125.94 101.614C125.94 101.873 125.94 102.131 125.94 102.39C125.94 102.439 125.94 102.484 125.94 102.526C125.939 102.525 125.937 102.525 125.935 102.525C125.933 102.525 125.931 102.525 125.93 102.526C125.833 102.554 125.787 102.732 125.739 102.804C125.252 103.54 125.072 102.873 125.088 102.348C125.116 101.799 125.214 101.257 125.381 100.734C125.415 100.616 125.451 100.543 125.399 100.436C125.325 100.285 125.158 100.192 125.018 100.11C124.859 100.014 124.623 100.087 124.477 100.179C124.446 100.198 124.378 100.158 124.342 100.168C124.084 100.242 124.292 100.469 124.317 100.608C124.352 100.793 124.286 100.991 124.256 101.173C124.223 101.374 124.2 101.577 124.171 101.779C124.141 102.071 124.072 102.358 123.965 102.631C123.887 102.812 123.68 103.275 123.457 103.291C123.16 103.312 123.127 102.869 123.127 102.66C123.136 102.29 123.187 101.922 123.278 101.563C123.334 101.313 123.588 100.798 123.323 100.626C123.079 100.474 122.798 100.392 122.511 100.39C122.494 100.388 122.477 100.382 122.462 100.374C122.447 100.365 122.433 100.353 122.423 100.339C122.176 100.089 121.952 99.9881 121.753 100.038C121.341 100.14 121.1 100.547 120.922 100.911C120.689 101.383 120.637 101.888 120.565 102.405C120.547 102.541 120.533 102.679 120.513 102.816C120.324 102.889 120.252 103.079 120.094 103.192C120.041 103.234 119.977 103.262 119.911 103.271C119.844 103.281 119.776 103.272 119.713 103.246C119.604 103.19 119.56 102.988 119.546 102.876C119.488 102.405 119.599 101.925 119.707 101.462C119.764 101.226 119.782 100.807 119.91 100.594C120.039 100.381 119.878 100.344 119.735 100.227C119.51 100.041 119.409 99.9987 119.123 100.11C119.023 100.148 118.937 100.215 118.874 100.303C118.819 100.407 118.78 100.519 118.758 100.634C118.518 101.372 118.323 102.126 118.054 102.854C118.016 102.975 117.97 103.093 117.916 103.207C117.92 103.073 117.932 102.939 117.953 102.807C117.987 102.447 118.024 102.088 118.069 101.729C118.094 101.545 118.121 101.361 118.153 101.179C118.178 101.031 118.269 100.911 118.269 100.753C118.252 100.651 118.204 100.558 118.132 100.486C118.07 100.409 118.016 100.318 117.907 100.326C117.84 100.338 117.774 100.356 117.709 100.378C117.651 100.39 117.592 100.39 117.534 100.378C117.478 100.368 117.418 100.328 117.365 100.339C117.231 100.369 117.192 100.517 117.154 100.629L117.241 100.805C117.205 100.849 117.178 100.899 117.161 100.954C117.145 101.008 117.139 101.065 117.144 101.122C117.176 102.003 117.093 102.897 117.057 103.78C117.047 103.885 117.055 103.99 117.078 104.093C117.14 104.319 117.614 104.591 117.818 104.486C118.023 104.381 117.987 104.205 118.026 104.025C118.142 103.49 118.38 102.929 118.56 102.408C118.626 102.22 118.676 102.115 118.717 102.095C118.756 102.095 118.776 102.128 118.776 102.195C118.776 102.221 118.762 102.304 118.737 102.447C118.67 102.781 118.665 103.125 118.722 103.461C118.775 103.745 118.948 104.07 119.251 104.13C119.419 104.158 119.591 104.129 119.741 104.048C119.936 103.95 120.082 103.787 120.262 103.671C120.314 103.636 120.386 103.594 120.404 103.529C120.438 103.429 120.476 103.331 120.52 103.234C120.531 103.51 120.605 103.78 120.738 104.021C120.794 104.139 120.881 104.239 120.99 104.309C121.099 104.38 121.225 104.417 121.355 104.418C121.733 104.418 122.005 103.899 122.167 103.614C122.229 103.496 122.273 103.425 122.298 103.385C122.361 103.574 122.479 103.738 122.636 103.857C123.2 104.211 123.806 103.72 124.049 103.206C124.086 103.14 124.112 103.068 124.127 102.993C124.127 102.98 124.127 102.952 124.121 102.909V102.888C124.147 103.068 124.202 103.242 124.285 103.403C124.335 103.547 124.426 103.673 124.548 103.764C124.669 103.854 124.814 103.906 124.965 103.911C125.353 103.917 125.634 103.575 125.876 103.311L125.916 103.231C125.945 103.18 125.965 103.143 125.977 103.113C125.998 103.242 126.03 103.369 126.073 103.493C126.113 103.632 126.176 103.765 126.258 103.884C126.366 104.012 126.501 104.115 126.653 104.183C126.806 104.252 126.971 104.285 127.137 104.28C127.431 104.28 127.68 104.101 127.901 103.926C127.973 103.867 128.522 103.463 128.503 103.37C128.508 103.409 128.508 103.449 128.503 103.488C128.503 103.528 128.503 103.561 128.503 103.587C128.503 103.9 128.687 104.412 129.031 104.505C129.611 104.657 130.374 103.904 130.588 103.424C130.824 102.889 130.693 102.409 130.506 101.934H130.505ZM126.889 101.31C126.894 101.121 126.906 100.899 126.922 100.645C126.939 100.39 126.958 100.12 126.981 99.8361C127.005 99.552 127.03 99.2903 127.059 99.051C127.082 98.8529 127.114 98.6562 127.157 98.4616C127.193 98.306 127.231 98.2258 127.273 98.2258C127.365 98.2258 127.423 98.3779 127.449 98.682C127.469 98.9013 127.481 99.0769 127.488 99.2089C127.495 99.341 127.498 99.4341 127.498 99.4871C127.509 100.259 127.293 101.016 126.877 101.662C126.877 101.615 126.883 101.498 126.89 101.31H126.889ZM122.399 101.249C122.388 101.329 122.372 101.408 122.352 101.485C122.329 101.59 122.327 101.706 122.315 101.813C122.29 102.027 122.255 102.24 122.209 102.451C122.165 102.657 122.102 102.859 122.021 103.054C121.934 103.247 121.822 103.427 121.688 103.59C121.616 103.59 121.562 103.515 121.526 103.363C121.493 103.226 121.475 103.086 121.473 102.946C121.475 102.689 121.505 102.432 121.561 102.182C121.614 101.93 121.681 101.681 121.761 101.437C121.823 101.246 121.895 101.059 121.977 100.876C122.045 100.727 122.093 100.653 122.118 100.653C122.176 100.645 122.235 100.659 122.284 100.692C122.332 100.725 122.367 100.775 122.382 100.832C122.415 100.969 122.422 101.11 122.401 101.249H122.399ZM129.734 103.674C129.676 103.83 129.541 103.884 129.281 103.734C128.842 103.482 129.345 103.021 129.105 102.711C129.079 102.678 128.757 102.915 128.726 102.933C128.981 102.785 129.083 101.282 129.294 101.282C129.332 101.282 129.343 101.32 129.323 101.4C129.256 101.658 129.472 102.026 129.555 102.261C129.614 102.442 129.87 103.321 129.735 103.674H129.734Z" fill="#5A5758"/>
</g>
<path d="M106 78.2792C106 76.3725 107.353 74.7696 109.251 74.589C112.149 74.3132 117.165 74 125 74C132.835 74 137.851 74.3132 140.749 74.589C142.647 74.7696 144 76.3725 144 78.2792V122C144 124.209 142.209 126 140 126H110C107.791 126 106 124.209 106 122V78.2792Z" stroke="#5A5758" stroke-width="2"/>
<path d="M115.977 27.9768C115.99 27.4337 116.434 27 116.977 27H134.023C134.566 27 135.01 27.4337 135.023 27.9768L135.976 68.9768C135.989 69.538 135.538 70 134.976 70H116.024C115.462 70 115.011 69.538 115.024 68.9768L115.977 27.9768Z" stroke="#5A5758" stroke-width="2"/>
<path d="M117 70H134C134 72.5022 135 74 135 74H116C116 74 117 72.5 117 70Z" stroke="#5A5758" stroke-width="2"/>
<path d="M125.5 24.002C128.484 24.002 133 24.5 133 26.002H118C118 24.5 122.516 24.002 125.5 24.002Z" fill="#E83094"/>
<g clip-path="url(#clip1)">
<path d="M74.5554 94.3217C74.5113 94.2887 74.091 94.0223 74.0608 94.0388C74.5008 93.7759 74.9745 93.341 75.0174 92.8082C75.043 92.5718 75.01 92.3328 74.9214 92.1127C74.8328 91.8926 74.6914 91.6985 74.5101 91.548C74.4361 91.3179 74.2855 91.1212 74.0841 90.9917C73.8516 90.8541 73.5857 90.7854 73.3167 90.7936C73.0349 90.8042 72.7548 90.8437 72.4808 90.9115C72.124 90.9909 71.7717 91.0901 71.4256 91.2086C71.1134 91.3125 70.8095 91.4405 70.5166 91.5917C70.2589 91.7276 70.13 91.8482 70.13 91.9535C70.162 92.0395 70.2083 92.1193 70.267 92.1893C70.2391 92.3072 70.1509 92.5217 70.1973 92.642C70.2182 92.6985 70.4806 92.8365 70.4806 92.8329C70.5217 92.7129 70.5994 92.6093 70.7023 92.537C70.8618 92.4 71.0646 92.3259 71.2735 92.3284C71.3722 92.3284 71.4209 92.4144 71.4209 92.5865C71.4209 93.3704 71.3269 94.1449 71.2967 94.9253L71.2352 96.4848C71.2213 96.8502 71.046 97.4985 71.4976 97.6636C71.6415 97.7154 71.9933 97.8357 72.1372 97.7496C72.2533 97.6801 72.2533 97.3653 72.2707 97.2545C72.3555 97.3005 72.915 97.9158 73.9482 97.3807C74.3453 97.1755 74.7609 96.862 74.9594 96.4695C75.3181 95.7539 75.2229 94.805 74.5554 94.3217ZM72.1442 92.0537C72.2578 92.0012 72.374 91.9548 72.4925 91.9146C72.9162 91.772 73.3051 91.6258 73.7625 91.6942C73.8638 91.7045 73.9619 91.7362 74.0504 91.7873C74.5937 92.1339 73.8658 93.0003 73.5663 93.2514C73.2668 93.5025 72.8349 93.7323 72.4553 93.7323C72.1384 93.7323 72.4483 92.583 72.5528 92.4121C72.5467 92.3695 72.5314 92.3287 72.5079 92.2929C72.4844 92.257 72.4533 92.2268 72.417 92.2046C72.3366 92.136 72.244 92.0836 72.1442 92.0502V92.0537ZM74.0899 95.7976C74.0758 95.8464 74.0592 95.8944 74.0399 95.9414C73.9777 96.1051 73.8779 96.2514 73.7489 96.3683C73.62 96.4851 73.4654 96.5691 73.2981 96.6133C73.0416 96.6793 72.3276 96.7783 72.2893 96.4812C72.251 96.1842 72.2603 95.0797 72.2707 94.7543C72.2777 94.5457 73.1994 94.4997 73.6232 94.6471C74.1154 94.8121 74.2176 95.3414 74.0899 95.794V95.7976ZM98.0046 95.7068C98.0046 95.6667 97.9918 95.6478 97.9663 95.6478C97.9323 95.6862 97.9041 95.7295 97.8827 95.7763C97.7866 95.9704 97.6652 96.1505 97.5216 96.3115C97.4601 96.374 97.351 96.4836 97.2581 96.4695C97.142 96.4518 97.0886 96.3044 97.0584 96.2078C97.0191 96.0468 97.0058 95.8804 97.019 95.715C97.0419 95.3698 97.0971 95.0276 97.1838 94.693C97.214 94.5575 97.2453 94.4219 97.2755 94.2852C97.286 94.2392 97.2836 94.1921 97.2929 94.1473C97.3069 94.0706 97.3661 94.0129 97.3301 93.9292C97.2941 93.8455 97.1919 93.7924 97.1304 93.7512C96.9604 93.6496 96.7698 93.5887 96.5732 93.5732C96.471 93.559 96.4118 93.5532 96.3921 93.5532C96.3575 93.5486 96.326 93.5309 96.3038 93.5036C96.0566 93.2514 95.8337 93.15 95.634 93.2007C94.7575 93.4176 94.5996 94.5775 94.4835 95.3225C94.4638 95.4404 94.4417 95.57 94.4243 95.695C94.3583 95.8455 94.2843 95.9923 94.2026 96.1347C94.1422 96.2349 94.0807 96.3339 94.0168 96.4317C93.9774 96.4919 93.8659 96.6203 93.7614 96.6038C93.5838 96.5755 93.5293 96.4612 93.4701 96.315C93.4427 96.2312 93.432 96.1426 93.4387 96.0545C93.4466 95.6622 93.4854 95.2712 93.5548 94.8852C93.6163 94.5469 93.8276 94.1355 93.787 93.7913C93.7649 93.5897 93.405 93.506 93.253 93.4306C93.1369 93.3763 93.0579 93.341 92.9662 93.4506C92.8947 93.5366 92.8059 93.6061 92.7058 93.6545C92.6057 93.7029 92.4966 93.729 92.3858 93.7311C92.3208 93.7311 92.2883 93.7146 92.2883 93.6816V93.6144C92.2883 93.3952 92.4473 93.0333 92.2941 92.8612C92.1408 92.6891 91.8773 92.8058 91.7403 92.9425C91.4872 93.1948 91.572 93.585 91.5546 93.9068C91.5495 94.143 91.5963 94.3773 91.6915 94.5928C91.7056 94.6238 91.715 94.6568 91.7194 94.6907C91.7194 94.6907 91.7136 94.7249 91.7066 94.7814C91.6683 95.0714 91.673 95.3579 91.5662 95.6372C91.4641 95.8712 91.3266 96.0876 91.1587 96.2785C90.8104 96.6734 90.4761 96.8007 90.1568 96.8007C90.0818 96.7986 90.0084 96.7781 89.9429 96.741C89.8774 96.7038 89.8217 96.6511 89.7807 96.5873C89.6723 96.4439 89.6154 96.2671 89.6193 96.0864C89.6193 96.0074 89.6483 95.9685 89.7076 95.9685C89.8461 95.9878 89.9857 95.9976 90.1255 95.9979C90.5515 95.9425 90.9137 95.5029 91.0693 95.1209C91.187 94.8232 91.2177 94.4973 91.1578 94.1823C91.0979 93.8672 90.9499 93.5764 90.7315 93.3445C90.6775 93.2907 90.6124 93.2497 90.541 93.2244C90.4695 93.1992 90.3934 93.1903 90.3182 93.1983C90.0853 93.1946 89.8532 93.2268 89.6298 93.2938C89.5299 93.3245 89.4347 93.3669 89.3361 93.3999C89.3152 93.4082 89.1039 93.4482 89.1039 93.4565C89.0772 93.5296 89.0516 93.6133 89.0249 93.7052C88.8506 94.3038 88.7389 94.9194 88.6918 95.5418C88.6918 95.5759 88.6476 95.6255 88.6349 95.6596C88.564 95.7955 88.4762 95.9215 88.3737 96.0345C88.2757 96.1651 88.1691 96.2888 88.0544 96.4046C87.8412 96.6434 87.5437 96.7871 87.2267 96.8042C87.1517 96.8022 87.0783 96.7817 87.0128 96.7445C86.9473 96.7074 86.8916 96.6546 86.8506 96.5909C86.7422 96.4474 86.6853 96.2707 86.6892 96.0899C86.6892 95.9921 86.7391 95.972 86.8262 95.972C86.9317 95.9895 87.0389 95.9935 87.1454 95.9838C87.7085 95.9178 88.0962 95.4144 88.2181 94.8816C88.316 94.4396 88.2371 93.9762 87.9987 93.5932C87.9294 93.4785 87.8437 93.3748 87.7445 93.2856C87.7104 93.2504 87.6692 93.2232 87.6236 93.2061C87.5781 93.189 87.5293 93.1823 87.4809 93.1865L87.1675 93.216C86.9558 93.2286 86.747 93.2723 86.5476 93.3457C86.4277 93.3992 86.3011 93.4357 86.1714 93.4541C86.1447 93.5272 86.118 93.6109 86.0925 93.7029C85.9626 94.1597 85.8667 94.6259 85.8057 95.0974C85.8057 95.1044 85.8057 95.1115 85.8057 95.1186C85.7815 95.3122 85.7254 95.5003 85.6397 95.675C85.5448 95.879 85.423 96.069 85.2775 96.2396C85.1939 96.3256 85.122 96.3575 85.021 96.2915C84.682 96.0628 84.8341 95.5571 84.9049 95.2306C85.021 94.759 85.1266 94.271 85.2148 93.7972L85.2346 93.6887C85.2346 93.1972 84.5078 93.2172 84.2083 93.3504C84.0713 93.4109 84.0029 93.4675 84.0029 93.5201C84.0029 93.5767 84.0458 93.6251 84.0505 93.6793C84.043 93.7521 84.0234 93.823 83.9924 93.8891C83.8949 94.2215 83.7846 94.5504 83.6732 94.8793C83.5831 95.1807 83.4705 95.4746 83.3365 95.7587C83.3493 94.6588 83.5455 93.5779 83.6023 92.4828C83.6174 92.1928 83.7579 91.9311 83.8171 91.6506C83.8514 91.4181 83.801 91.1809 83.6755 90.9834C83.4746 90.6781 82.9638 90.8266 82.6968 90.9539C82.6481 90.9763 82.6237 90.9952 82.6237 91.0082C82.8489 92.9838 82.3184 94.9571 82.5076 96.9386C82.5121 97.0325 82.5406 97.1236 82.5903 97.203C82.6399 97.2823 82.7091 97.3472 82.7909 97.3913C82.8576 97.4613 82.9362 97.5184 83.023 97.5598C83.1529 97.5467 83.275 97.4913 83.3713 97.4019C83.4874 97.2581 83.4038 97.0541 83.4282 96.8867C83.4882 96.5823 83.5693 96.2825 83.6708 95.9897C83.7328 95.7776 83.8061 95.569 83.8902 95.3649C83.9065 95.326 83.9773 95.1021 84.0261 95.1221C84.0748 95.1421 84.0435 95.2188 84.0412 95.2494C84.0296 95.4698 83.9994 95.6879 83.9866 95.9072C83.9541 96.4577 84.04 97.1944 84.7714 97.0695C85.0837 97.0164 85.411 96.7382 85.6142 96.5025C85.6637 96.4489 85.703 96.3866 85.7303 96.3186C85.7423 96.3198 85.7543 96.3198 85.7663 96.3186C85.778 96.5896 85.8739 96.85 86.0402 97.0624C86.1984 97.2785 86.4115 97.4468 86.6567 97.5492C86.9448 97.6301 87.2525 97.5951 87.5158 97.4514C87.7229 97.3531 87.9178 97.23 88.0962 97.0848C88.2558 96.956 88.3989 96.8075 88.5223 96.6427C88.5767 96.5702 88.622 96.491 88.6569 96.407C88.6743 96.3928 88.6918 96.3763 88.708 96.361C88.7145 96.5128 88.7491 96.662 88.8102 96.8007C88.8987 96.9947 89.0307 97.165 89.1956 97.2981C89.3604 97.4311 89.5537 97.5232 89.7598 97.5669C90.2044 97.6412 90.6131 97.4125 90.9555 97.1484C91.5086 96.6954 91.9015 96.0718 92.0746 95.372C92.0932 95.3025 92.2163 94.5728 92.2581 94.5716C92.4368 94.5716 92.6063 94.4384 92.6725 94.6494C92.712 94.7755 92.5762 95.095 92.5564 95.2282C92.4403 95.886 92.2511 97.35 93.2623 97.4184C93.6825 97.449 94.0563 96.9987 94.3071 96.7052C94.3474 96.6607 94.379 96.6086 94.3999 96.552C94.4035 96.5361 94.4058 96.5199 94.4069 96.5036C94.4287 96.746 94.5016 96.9808 94.6205 97.1921C94.7598 97.4384 95.0617 97.686 95.3507 97.5539C95.699 97.3948 95.8662 97.1048 96.0473 96.7854C96.1088 96.6675 96.1529 96.5968 96.1785 96.5567C96.241 96.7452 96.3589 96.9098 96.5163 97.0282C96.6166 97.0956 96.7272 97.1458 96.8437 97.1767C97.0162 97.1794 97.1859 97.1316 97.3324 97.0388C97.4692 96.9513 97.5927 96.8441 97.6992 96.7205C97.8202 96.5838 97.9123 96.4233 97.9697 96.249C98.0062 96.0696 98.0148 95.8854 97.9953 95.7032L98.0046 95.7068ZM89.7261 94.9488L89.8921 94.1968C89.9038 94.1461 90.021 93.559 90.1069 93.6074C90.1656 93.6294 90.2182 93.6655 90.2601 93.7128C90.3019 93.76 90.3319 93.8169 90.3472 93.8785C90.4025 94.1293 90.4057 94.3891 90.3565 94.6412C90.3124 94.9182 90.2601 95.2541 90.0907 95.484C90.0531 95.5387 89.9994 95.5799 89.9374 95.6019C89.8701 95.6231 89.6367 95.5759 89.6367 95.4746C89.6463 95.2956 89.6747 95.1181 89.7215 94.9453L89.7261 94.9488ZM86.7635 95.1115C86.8448 94.6883 86.9283 94.2581 87.0468 93.8455C87.099 93.664 87.1408 93.5826 87.1733 93.6027L87.2522 93.6416C87.2873 93.6564 87.3182 93.6798 87.3423 93.7096C87.3664 93.7394 87.3829 93.7747 87.3904 93.8125C87.4481 94.064 87.4592 94.3242 87.4229 94.5799C87.4061 94.7323 87.3781 94.8832 87.3393 95.0313C87.3055 95.1711 87.2549 95.3062 87.1884 95.4333C87.1702 95.4819 87.1387 95.5242 87.0975 95.5552C87.0564 95.5861 87.0073 95.6044 86.9562 95.6078C86.8993 95.6043 86.8441 95.5874 86.7948 95.5583C86.7333 95.5253 86.702 95.4946 86.702 95.4687C86.7147 95.3475 86.7336 95.2271 86.7589 95.108L86.7635 95.1115ZM96.2725 94.4231C96.2551 94.528 96.2319 94.6306 96.2179 94.7249C96.1738 95.0172 96.1367 95.3143 96.0833 95.6019C96.0485 95.8153 95.9881 96.0235 95.9033 96.2219C95.8099 96.4135 95.695 96.5935 95.5609 96.7583C95.4343 96.7583 95.3821 96.5225 95.3647 96.4247C95.3414 96.2396 95.3414 96.0522 95.3647 95.8671C95.3803 95.664 95.4082 95.462 95.4482 95.2624C95.5085 94.9575 95.596 94.6589 95.7094 94.37C95.7547 94.2522 95.807 94.1437 95.8534 94.0294C95.8731 93.9799 95.9196 93.8207 95.9881 93.8207C96.0428 93.8164 96.0976 93.829 96.1451 93.857C96.1925 93.885 96.2305 93.9271 96.2539 93.9775C96.2958 94.1212 96.3006 94.2734 96.2678 94.4196L96.2725 94.4231ZM82.4391 99.2596C81.9968 98.7976 82.5738 97.9889 83.1275 98.3378C83.2126 98.3895 83.2837 98.462 83.3344 98.5486C83.385 98.6352 83.4135 98.7332 83.4175 98.8339C83.4214 98.9345 83.4005 99.0345 83.3568 99.1249C83.3131 99.2153 83.2478 99.2932 83.167 99.3516C83.0543 99.4234 82.9207 99.4536 82.7886 99.4373C82.6565 99.421 82.5339 99.3591 82.4414 99.262L82.4391 99.2596ZM81.8041 94.5634C81.8111 94.4455 81.8215 94.3276 81.832 94.2192C81.842 94.1073 81.8686 93.9976 81.9109 93.8938C81.9378 93.8436 81.9526 93.7876 81.9542 93.7305C81.9558 93.6734 81.9442 93.6167 81.9202 93.5649C81.8354 93.4247 81.6625 93.3657 81.5174 93.3115C81.3537 93.249 81.2294 93.4199 81.0727 93.361C80.9357 93.3103 80.8405 93.4082 80.7651 93.5001L80.7453 93.4801C80.6693 93.4029 80.5787 93.3423 80.4789 93.3017C80.3792 93.2612 80.2723 93.2417 80.1649 93.2443C79.9745 93.2738 79.7992 93.4801 79.7005 93.6321C79.554 93.8676 79.4425 94.1238 79.3697 94.3924C79.2455 94.7862 79.2164 95.194 79.1154 95.5913C79.0555 95.7968 78.953 95.9869 78.8148 96.1488C78.7196 96.2667 78.5826 96.5025 78.4015 96.4388C78.365 96.4232 78.3323 96.3997 78.3056 96.37C78.2789 96.3403 78.259 96.3051 78.2471 96.2667C78.131 95.9508 78.1623 95.5535 78.2389 95.2317C78.2842 95.0372 78.3249 94.8569 78.3666 94.6612C78.3955 94.5605 78.4165 94.4576 78.4293 94.3535C78.4217 94.2694 78.4352 94.1846 78.4688 94.1072C78.4867 94.0777 78.4996 94.0455 78.5071 94.0117C78.5063 93.9648 78.4932 93.919 78.4691 93.879C78.4451 93.839 78.4109 93.8063 78.3701 93.7842C78.2745 93.7223 78.171 93.6739 78.0625 93.6404C77.9573 93.6058 77.8493 93.581 77.7398 93.5661C77.6388 93.552 77.5796 93.5461 77.5598 93.5461C77.5252 93.5419 77.4935 93.5241 77.4716 93.4966C77.2232 93.2443 77.0003 93.1429 76.8017 93.1936C76.5971 93.2472 76.4152 93.3672 76.284 93.5355C75.9775 93.908 75.8196 94.4632 75.7035 94.9288C75.5387 95.6254 75.4063 96.5378 75.7755 97.1885C75.8294 97.2973 75.9093 97.3906 76.0079 97.46C76.1064 97.5294 76.2205 97.5726 76.3397 97.5858C76.6311 97.607 76.8354 97.3441 76.9828 97.1284C77.0602 97.0166 77.1318 96.901 77.1976 96.7818C77.2591 96.664 77.3033 96.5932 77.33 96.5531C77.4646 96.8714 77.7014 97.1543 78.0695 97.1614C78.3794 97.1685 78.6569 96.9398 78.8496 96.7123C78.9413 96.6086 79.0193 96.4933 79.0818 96.3693C79.1061 96.3186 79.1236 96.2773 79.1375 96.2431L79.1607 96.2561C79.1646 96.4041 79.2003 96.5494 79.2653 96.682C79.3303 96.8145 79.4229 96.9311 79.5368 97.0235C80.072 97.429 80.5283 96.9645 80.851 96.5331C80.8324 96.559 80.851 96.6675 80.851 96.7005C80.851 96.8184 80.8614 96.9469 80.8684 97.0706C80.8684 97.4785 80.9311 97.8781 80.9044 98.286C80.8951 98.4416 80.8452 98.5217 80.7535 98.5217C80.3541 98.5217 80.0627 98.2176 79.9571 97.8463C79.9339 97.7673 79.913 97.7284 79.8932 97.7366L79.7075 97.8463C79.6663 97.8503 79.6265 97.864 79.5914 97.8864C79.5748 97.9126 79.5679 97.9439 79.5717 97.9748C79.5444 98.2062 79.5823 98.4408 79.6808 98.6514C79.7538 98.7921 79.8634 98.9099 79.9976 98.992C80.1319 99.0741 80.2857 99.1173 80.4424 99.117C80.6432 99.117 80.873 98.919 81.0228 98.7999C81.3072 98.5783 81.6033 98.2895 81.7077 97.9311C81.8296 97.5084 81.8713 97.066 81.8308 96.6274C81.7891 96.102 81.7748 95.5748 81.7878 95.0478C81.7855 94.8875 81.7936 94.7249 81.8053 94.5634H81.8041ZM77.4391 94.4184C77.4263 94.5504 77.3984 94.6836 77.3752 94.8192C77.2847 95.3296 77.2127 95.8176 77.0119 96.2962C76.9828 96.3645 76.7959 96.7547 76.717 96.7547C76.6381 96.7547 76.5928 96.6793 76.5568 96.5272C76.3629 95.7091 76.6659 94.7791 77.0061 94.04C77.0746 93.8915 77.1222 93.8172 77.1477 93.8172C77.2056 93.8091 77.2644 93.8227 77.3131 93.8555C77.3618 93.8883 77.3971 93.9379 77.4124 93.9952C77.4475 94.1333 77.4569 94.2768 77.4402 94.4184H77.4391ZM80.9218 94.1355C80.8772 94.2989 80.8557 94.468 80.858 94.6376C80.8463 94.8097 80.8313 94.9818 80.8069 95.1528C80.7697 95.4197 80.7154 95.6839 80.6443 95.9437C80.5934 96.1804 80.4928 96.4031 80.3495 96.5968C80.245 96.5968 80.1719 96.5166 80.1289 96.361C80.0491 96.0262 80.0435 95.6775 80.1127 95.3402C80.1651 95.0585 80.2428 94.7823 80.3448 94.515C80.3889 94.3972 80.4319 94.2793 80.4795 94.1614C80.5131 94.0693 80.5572 93.9815 80.6107 93.8997L80.6792 93.9186H80.7674C80.7871 93.9186 80.8208 93.9469 80.8696 94.0034C80.9183 94.06 80.9357 94.1013 80.923 94.1355H80.9218ZM88.5049 101.934C88.3699 101.63 88.2505 101.318 88.1473 101.001C88.0892 100.763 88.065 100.517 88.0753 100.272C88.0822 100.23 88.0759 100.187 88.0573 100.149C88.0388 100.111 88.0089 100.08 87.972 100.06C87.8801 100.021 87.7824 99.9967 87.6829 99.9893C87.465 99.9768 87.2492 100.038 87.0688 100.163C87.0038 100.203 86.9446 100.236 86.8924 100.262C86.8401 100.288 86.8146 100.292 86.8146 100.272C86.8417 100.559 86.8268 100.848 86.7705 101.13C86.7047 101.596 86.6006 102.055 86.4593 102.502C86.4512 102.431 86.4164 102.426 86.3549 102.491C86.2643 102.59 86.1794 102.694 86.1006 102.803C86.0031 102.935 85.9067 103.066 85.8127 103.196C85.5213 103.594 85.0999 103.499 84.9409 103.054C84.8608 102.828 84.8248 102.55 84.9757 102.347C85.043 102.255 85.108 102.161 85.1707 102.066C85.4036 101.722 85.6041 101.357 85.7698 100.975C86.1064 100.185 86.2341 99.2926 86.0019 98.4533C85.9613 98.3035 85.9069 98.1579 85.8394 98.0184C85.7987 97.922 85.7282 97.8418 85.6386 97.7897C85.5061 97.7384 85.3709 97.6951 85.2334 97.66C85.1487 97.6359 85.0621 97.6193 84.9745 97.6105C84.8568 97.6353 84.7405 97.6668 84.6263 97.7048C84.5449 97.7321 84.467 97.7689 84.3941 97.8144C84.3256 97.8569 84.2908 97.9017 84.2908 97.9488C84.2926 98.0806 84.2805 98.2122 84.2548 98.3414L84.1677 98.9308C84.0864 99.453 84.0145 99.9716 83.968 100.496C83.9355 100.871 83.939 101.238 83.9402 101.614C83.9402 101.873 83.9402 102.131 83.9402 102.39C83.9402 102.439 83.9402 102.484 83.9402 102.526C83.9385 102.525 83.9368 102.525 83.9349 102.525C83.9331 102.525 83.9313 102.525 83.9297 102.526C83.8334 102.554 83.7869 102.732 83.7393 102.804C83.2517 103.54 83.0718 102.873 83.0881 102.348C83.1157 101.799 83.214 101.257 83.3806 100.734C83.4154 100.616 83.4514 100.543 83.3992 100.436C83.3249 100.285 83.1577 100.192 83.0184 100.11C82.8594 100.014 82.6225 100.087 82.4774 100.179C82.4461 100.198 82.3776 100.158 82.3416 100.168C82.0839 100.242 82.2917 100.469 82.3172 100.608C82.352 100.793 82.2859 100.991 82.2557 101.173C82.2232 101.374 82.2 101.577 82.1709 101.779C82.1412 102.071 82.0721 102.358 81.9655 102.631C81.8865 102.812 81.6799 103.275 81.457 103.291C81.1598 103.312 81.1273 102.869 81.1273 102.66C81.1362 102.29 81.1868 101.922 81.2782 101.563C81.3339 101.313 81.5882 100.798 81.3235 100.626C81.0788 100.474 80.7978 100.392 80.5108 100.39C80.4936 100.388 80.4769 100.382 80.4617 100.374C80.4466 100.365 80.4333 100.353 80.4226 100.339C80.1757 100.089 79.9524 99.9881 79.7528 100.038C79.3406 100.14 79.1003 100.547 78.9216 100.911C78.6894 101.383 78.6371 101.888 78.5652 102.405C78.5466 102.541 78.5327 102.679 78.5129 102.816C78.3237 102.889 78.2517 103.079 78.0938 103.192C78.0407 103.234 77.9775 103.262 77.9106 103.271C77.8438 103.281 77.7756 103.272 77.7131 103.246C77.6039 103.19 77.5598 102.988 77.5459 102.876C77.4878 102.405 77.5993 101.925 77.7073 101.462C77.7641 101.226 77.7815 100.807 77.9104 100.594C78.0393 100.381 77.8779 100.344 77.7351 100.227C77.5099 100.041 77.4089 99.9987 77.1233 100.11C77.0233 100.148 76.9366 100.215 76.8737 100.303C76.8193 100.407 76.7802 100.519 76.7576 100.634C76.5185 101.372 76.3234 102.126 76.0541 102.854C76.0158 102.975 75.9696 103.093 75.916 103.207C75.9197 103.073 75.9321 102.939 75.9531 102.807C75.9868 102.447 76.0239 102.088 76.0692 101.729C76.0936 101.545 76.1215 101.361 76.1528 101.179C76.1783 101.031 76.2689 100.911 76.2689 100.753C76.2524 100.651 76.2044 100.558 76.1319 100.486C76.0704 100.409 76.0158 100.318 75.9067 100.326C75.8397 100.338 75.7737 100.356 75.7093 100.378C75.6514 100.39 75.5919 100.39 75.534 100.378C75.4783 100.368 75.4179 100.328 75.3645 100.339C75.231 100.369 75.1916 100.517 75.1544 100.629L75.2415 100.805C75.2053 100.849 75.1781 100.899 75.1614 100.954C75.1446 101.008 75.1387 101.065 75.144 101.122C75.1765 102.003 75.0929 102.897 75.0569 103.78C75.0475 103.885 75.0545 103.99 75.0778 104.093C75.1405 104.319 75.6141 104.591 75.8185 104.486C76.0228 104.381 75.9868 104.205 76.0263 104.025C76.1423 103.49 76.3803 102.929 76.5603 102.408C76.6264 102.22 76.6764 102.115 76.717 102.095C76.7565 102.095 76.7762 102.128 76.7762 102.195C76.7762 102.221 76.7623 102.304 76.7367 102.447C76.6702 102.781 76.6651 103.125 76.7216 103.461C76.775 103.745 76.948 104.07 77.251 104.13C77.4188 104.158 77.5909 104.129 77.7409 104.048C77.9359 103.95 78.0822 103.787 78.2622 103.671C78.3144 103.636 78.3864 103.594 78.4038 103.529C78.4376 103.429 78.4764 103.331 78.5199 103.234C78.5306 103.51 78.6053 103.78 78.7381 104.021C78.7938 104.139 78.8811 104.239 78.9901 104.309C79.0991 104.38 79.2255 104.417 79.3546 104.418C79.733 104.418 80.0047 103.899 80.1672 103.614C80.2287 103.496 80.2729 103.425 80.2984 103.385C80.3613 103.574 80.4791 103.738 80.6362 103.857C81.2004 104.211 81.8064 103.72 82.049 103.206C82.0861 103.14 82.1124 103.068 82.1268 102.993C82.1268 102.98 82.1268 102.952 82.121 102.909V102.888C82.1469 103.068 82.2022 103.242 82.2847 103.403C82.3347 103.547 82.4264 103.673 82.5477 103.764C82.6691 103.854 82.8145 103.906 82.965 103.911C83.3527 103.917 83.6337 103.575 83.8763 103.311L83.9158 103.231C83.9448 103.18 83.9645 103.143 83.9773 103.113C83.998 103.242 84.0298 103.369 84.0725 103.493C84.1133 103.632 84.1761 103.765 84.2583 103.884C84.3664 104.012 84.5014 104.115 84.6535 104.183C84.8055 104.252 84.9708 104.285 85.1371 104.28C85.4308 104.28 85.6804 104.101 85.9009 103.926C85.9729 103.867 86.522 103.463 86.5035 103.37C86.5085 103.409 86.5085 103.449 86.5035 103.488C86.5035 103.528 86.5035 103.561 86.5035 103.587C86.5035 103.9 86.6869 104.412 87.0305 104.505C87.611 104.657 88.3737 103.904 88.5884 103.424C88.8241 102.889 88.6929 102.409 88.506 101.934H88.5049ZM84.8886 101.31C84.8944 101.121 84.906 100.899 84.9223 100.645C84.9385 100.39 84.9583 100.12 84.9815 99.8361C85.0047 99.552 85.0303 99.2903 85.0593 99.051C85.0817 98.8529 85.1142 98.6562 85.1568 98.4616C85.1928 98.306 85.2311 98.2258 85.2729 98.2258C85.3646 98.2258 85.4226 98.3779 85.4493 98.682C85.4687 98.9013 85.4815 99.0769 85.4877 99.2089C85.4946 99.341 85.4981 99.4341 85.4981 99.4871C85.5092 100.259 85.2929 101.016 84.877 101.662C84.877 101.615 84.8828 101.498 84.8898 101.31H84.8886ZM80.3994 101.249C80.3878 101.329 80.3719 101.408 80.3518 101.485C80.3286 101.59 80.3274 101.706 80.3146 101.813C80.29 102.027 80.2547 102.24 80.209 102.451C80.165 102.657 80.102 102.859 80.0209 103.054C79.9338 103.247 79.8218 103.427 79.6878 103.59C79.6158 103.59 79.5624 103.515 79.5264 103.363C79.4925 103.226 79.4746 103.086 79.473 102.946C79.475 102.689 79.5046 102.432 79.5612 102.182C79.6144 101.93 79.6811 101.681 79.7609 101.437C79.8232 101.246 79.8952 101.059 79.9768 100.876C80.0453 100.727 80.0929 100.653 80.1185 100.653C80.1764 100.645 80.2351 100.659 80.2837 100.692C80.3322 100.725 80.3672 100.775 80.382 100.832C80.4153 100.969 80.4217 101.11 80.4006 101.249H80.3994ZM87.734 103.674C87.676 103.83 87.5413 103.884 87.2813 103.734C86.8424 103.482 87.3451 103.021 87.1048 102.711C87.0793 102.678 86.7565 102.915 86.7263 102.933C86.9806 102.785 87.0827 101.282 87.294 101.282C87.3323 101.282 87.3428 101.32 87.3231 101.4C87.2557 101.658 87.4716 102.026 87.5552 102.261C87.6144 102.442 87.8698 103.321 87.7352 103.674H87.734Z" fill="#5A5758"/>
</g>
<path d="M64 78.2792C64 76.3725 65.3526 74.7696 67.2508 74.589C70.1494 74.3132 75.1655 74 83 74C90.8345 74 95.8506 74.3132 98.7492 74.589C100.647 74.7696 102 76.3725 102 78.2792V122C102 124.209 100.209 126 98 126H68C65.7909 126 64 124.209 64 122V78.2792Z" stroke="#5A5758" stroke-width="2"/>
<path d="M73.9773 27.9768C73.9899 27.4337 74.4338 27 74.977 27H92.023C92.5662 27 93.0101 27.4337 93.0227 27.9768L93.9762 68.9768C93.9893 69.538 93.5379 70 92.9765 70H74.0235C73.4621 70 73.0107 69.538 73.0238 68.9768L73.9773 27.9768Z" stroke="#5A5758" stroke-width="2"/>
<path d="M75 70H92C92 72.5022 93 74 93 74H74C74 74 75 72.5 75 70Z" stroke="#5A5758" stroke-width="2"/>
<path d="M83.5 24.002C86.4844 24.002 91 24.5 91 26.002H76C76 24.5 80.5156 24.002 83.5 24.002Z" fill="#A90DF1"/>
<g clip-path="url(#clip2)">
<path d="M158.555 94.3217C158.511 94.2887 158.091 94.0223 158.061 94.0388C158.501 93.7759 158.974 93.341 159.017 92.8082C159.043 92.5718 159.01 92.3328 158.921 92.1127C158.833 91.8926 158.691 91.6985 158.51 91.548C158.436 91.3179 158.285 91.1212 158.084 90.9917C157.852 90.8541 157.586 90.7854 157.317 90.7936C157.035 90.8042 156.755 90.8437 156.481 90.9115C156.124 90.9909 155.772 91.0901 155.426 91.2086C155.113 91.3125 154.809 91.4405 154.517 91.5917C154.259 91.7276 154.13 91.8482 154.13 91.9535C154.162 92.0395 154.208 92.1193 154.267 92.1893C154.239 92.3072 154.151 92.5217 154.197 92.642C154.218 92.6985 154.481 92.8365 154.481 92.8329C154.522 92.7129 154.599 92.6093 154.702 92.537C154.862 92.4 155.065 92.3259 155.273 92.3284C155.372 92.3284 155.421 92.4144 155.421 92.5865C155.421 93.3704 155.327 94.1449 155.297 94.9253L155.235 96.4848C155.221 96.8502 155.046 97.4985 155.498 97.6636C155.642 97.7154 155.993 97.8357 156.137 97.7496C156.253 97.6801 156.253 97.3653 156.271 97.2545C156.355 97.3005 156.915 97.9158 157.948 97.3807C158.345 97.1755 158.761 96.862 158.959 96.4695C159.318 95.7539 159.223 94.805 158.555 94.3217ZM156.144 92.0537C156.258 92.0012 156.374 91.9548 156.492 91.9146C156.916 91.772 157.305 91.6258 157.762 91.6942C157.864 91.7045 157.962 91.7362 158.05 91.7873C158.594 92.1339 157.866 93.0003 157.566 93.2514C157.267 93.5025 156.835 93.7323 156.455 93.7323C156.138 93.7323 156.448 92.583 156.553 92.4121C156.547 92.3695 156.531 92.3287 156.508 92.2929C156.484 92.257 156.453 92.2268 156.417 92.2046C156.337 92.136 156.244 92.0836 156.144 92.0502V92.0537ZM158.09 95.7976C158.076 95.8464 158.059 95.8944 158.04 95.9414C157.978 96.1051 157.878 96.2514 157.749 96.3683C157.62 96.4851 157.465 96.5691 157.298 96.6133C157.042 96.6793 156.328 96.7783 156.289 96.4812C156.251 96.1842 156.26 95.0797 156.271 94.7543C156.278 94.5457 157.199 94.4997 157.623 94.6471C158.115 94.8121 158.218 95.3414 158.09 95.794V95.7976ZM182.005 95.7068C182.005 95.6667 181.992 95.6478 181.966 95.6478C181.932 95.6862 181.904 95.7295 181.883 95.7763C181.787 95.9704 181.665 96.1505 181.522 96.3115C181.46 96.374 181.351 96.4836 181.258 96.4695C181.142 96.4518 181.089 96.3044 181.058 96.2078C181.019 96.0468 181.006 95.8804 181.019 95.715C181.042 95.3698 181.097 95.0276 181.184 94.693C181.214 94.5575 181.245 94.4219 181.276 94.2852C181.286 94.2392 181.284 94.1921 181.293 94.1473C181.307 94.0706 181.366 94.0129 181.33 93.9292C181.294 93.8455 181.192 93.7924 181.13 93.7512C180.96 93.6496 180.77 93.5887 180.573 93.5732C180.471 93.559 180.412 93.5532 180.392 93.5532C180.358 93.5486 180.326 93.5309 180.304 93.5036C180.057 93.2514 179.834 93.15 179.634 93.2007C178.758 93.4176 178.6 94.5775 178.484 95.3225C178.464 95.4404 178.442 95.57 178.424 95.695C178.358 95.8455 178.284 95.9923 178.203 96.1347C178.142 96.2349 178.081 96.3339 178.017 96.4317C177.977 96.4919 177.866 96.6203 177.761 96.6038C177.584 96.5755 177.529 96.4612 177.47 96.315C177.443 96.2312 177.432 96.1426 177.439 96.0545C177.447 95.6622 177.485 95.2712 177.555 94.8852C177.616 94.5469 177.828 94.1355 177.787 93.7913C177.765 93.5897 177.405 93.506 177.253 93.4306C177.137 93.3763 177.058 93.341 176.966 93.4506C176.895 93.5366 176.806 93.6061 176.706 93.6545C176.606 93.7029 176.497 93.729 176.386 93.7311C176.321 93.7311 176.288 93.7146 176.288 93.6816V93.6144C176.288 93.3952 176.447 93.0333 176.294 92.8612C176.141 92.6891 175.877 92.8058 175.74 92.9425C175.487 93.1948 175.572 93.585 175.555 93.9068C175.549 94.143 175.596 94.3773 175.692 94.5928C175.706 94.6238 175.715 94.6568 175.719 94.6907C175.719 94.6907 175.714 94.7249 175.707 94.7814C175.668 95.0714 175.673 95.3579 175.566 95.6372C175.464 95.8712 175.327 96.0876 175.159 96.2785C174.81 96.6734 174.476 96.8007 174.157 96.8007C174.082 96.7986 174.008 96.7781 173.943 96.741C173.877 96.7038 173.822 96.6511 173.781 96.5873C173.672 96.4439 173.615 96.2671 173.619 96.0864C173.619 96.0074 173.648 95.9685 173.708 95.9685C173.846 95.9878 173.986 95.9976 174.125 95.9979C174.552 95.9425 174.914 95.5029 175.069 95.1209C175.187 94.8232 175.218 94.4973 175.158 94.1823C175.098 93.8672 174.95 93.5764 174.731 93.3445C174.677 93.2907 174.612 93.2497 174.541 93.2244C174.47 93.1992 174.393 93.1903 174.318 93.1983C174.085 93.1946 173.853 93.2268 173.63 93.2938C173.53 93.3245 173.435 93.3669 173.336 93.3999C173.315 93.4082 173.104 93.4482 173.104 93.4565C173.077 93.5296 173.052 93.6133 173.025 93.7052C172.851 94.3038 172.739 94.9194 172.692 95.5418C172.692 95.5759 172.648 95.6255 172.635 95.6596C172.564 95.7955 172.476 95.9215 172.374 96.0345C172.276 96.1651 172.169 96.2888 172.054 96.4046C171.841 96.6434 171.544 96.7871 171.227 96.8042C171.152 96.8022 171.078 96.7817 171.013 96.7445C170.947 96.7074 170.892 96.6546 170.851 96.5909C170.742 96.4474 170.685 96.2707 170.689 96.0899C170.689 95.9921 170.739 95.972 170.826 95.972C170.932 95.9895 171.039 95.9935 171.145 95.9838C171.708 95.9178 172.096 95.4144 172.218 94.8816C172.316 94.4396 172.237 93.9762 171.999 93.5932C171.929 93.4785 171.844 93.3748 171.744 93.2856C171.71 93.2504 171.669 93.2232 171.624 93.2061C171.578 93.189 171.529 93.1823 171.481 93.1865L171.167 93.216C170.956 93.2286 170.747 93.2723 170.548 93.3457C170.428 93.3992 170.301 93.4357 170.171 93.4541C170.145 93.5272 170.118 93.6109 170.092 93.7029C169.963 94.1597 169.867 94.6259 169.806 95.0974C169.806 95.1044 169.806 95.1115 169.806 95.1186C169.782 95.3122 169.725 95.5003 169.64 95.675C169.545 95.879 169.423 96.069 169.278 96.2396C169.194 96.3256 169.122 96.3575 169.021 96.2915C168.682 96.0628 168.834 95.5571 168.905 95.2306C169.021 94.759 169.127 94.271 169.215 93.7972L169.235 93.6887C169.235 93.1972 168.508 93.2172 168.208 93.3504C168.071 93.4109 168.003 93.4675 168.003 93.5201C168.003 93.5767 168.046 93.6251 168.05 93.6793C168.043 93.7521 168.023 93.823 167.992 93.8891C167.895 94.2215 167.785 94.5504 167.673 94.8793C167.583 95.1807 167.471 95.4746 167.336 95.7587C167.349 94.6588 167.545 93.5779 167.602 92.4828C167.617 92.1928 167.758 91.9311 167.817 91.6506C167.851 91.4181 167.801 91.1809 167.675 90.9834C167.475 90.6781 166.964 90.8266 166.697 90.9539C166.648 90.9763 166.624 90.9952 166.624 91.0082C166.849 92.9838 166.318 94.9571 166.508 96.9386C166.512 97.0325 166.541 97.1236 166.59 97.203C166.64 97.2823 166.709 97.3472 166.791 97.3913C166.858 97.4613 166.936 97.5184 167.023 97.5598C167.153 97.5467 167.275 97.4913 167.371 97.4019C167.487 97.2581 167.404 97.0541 167.428 96.8867C167.488 96.5823 167.569 96.2825 167.671 95.9897C167.733 95.7776 167.806 95.569 167.89 95.3649C167.906 95.326 167.977 95.1021 168.026 95.1221C168.075 95.1421 168.043 95.2188 168.041 95.2494C168.03 95.4698 167.999 95.6879 167.987 95.9072C167.954 96.4577 168.04 97.1944 168.771 97.0695C169.084 97.0164 169.411 96.7382 169.614 96.5025C169.664 96.4489 169.703 96.3866 169.73 96.3186C169.742 96.3198 169.754 96.3198 169.766 96.3186C169.778 96.5896 169.874 96.85 170.04 97.0624C170.198 97.2785 170.411 97.4468 170.657 97.5492C170.945 97.6301 171.252 97.5951 171.516 97.4514C171.723 97.3531 171.918 97.23 172.096 97.0848C172.256 96.956 172.399 96.8075 172.522 96.6427C172.577 96.5702 172.622 96.491 172.657 96.407C172.674 96.3928 172.692 96.3763 172.708 96.361C172.714 96.5128 172.749 96.662 172.81 96.8007C172.899 96.9947 173.031 97.165 173.196 97.2981C173.36 97.4311 173.554 97.5232 173.76 97.5669C174.204 97.6412 174.613 97.4125 174.956 97.1484C175.509 96.6954 175.901 96.0718 176.075 95.372C176.093 95.3025 176.216 94.5728 176.258 94.5716C176.437 94.5716 176.606 94.4384 176.673 94.6494C176.712 94.7755 176.576 95.095 176.556 95.2282C176.44 95.886 176.251 97.35 177.262 97.4184C177.683 97.449 178.056 96.9987 178.307 96.7052C178.347 96.6607 178.379 96.6086 178.4 96.552C178.404 96.5361 178.406 96.5199 178.407 96.5036C178.429 96.746 178.502 96.9808 178.621 97.1921C178.76 97.4384 179.062 97.686 179.351 97.5539C179.699 97.3948 179.866 97.1048 180.047 96.7854C180.109 96.6675 180.153 96.5968 180.178 96.5567C180.241 96.7452 180.359 96.9098 180.516 97.0282C180.617 97.0956 180.727 97.1458 180.844 97.1767C181.016 97.1794 181.186 97.1316 181.332 97.0388C181.469 96.9513 181.593 96.8441 181.699 96.7205C181.82 96.5838 181.912 96.4233 181.97 96.249C182.006 96.0696 182.015 95.8854 181.995 95.7032L182.005 95.7068ZM173.726 94.9488L173.892 94.1968C173.904 94.1461 174.021 93.559 174.107 93.6074C174.166 93.6294 174.218 93.6655 174.26 93.7128C174.302 93.76 174.332 93.8169 174.347 93.8785C174.403 94.1293 174.406 94.3891 174.357 94.6412C174.312 94.9182 174.26 95.2541 174.091 95.484C174.053 95.5387 173.999 95.5799 173.937 95.6019C173.87 95.6231 173.637 95.5759 173.637 95.4746C173.646 95.2956 173.675 95.1181 173.721 94.9453L173.726 94.9488ZM170.763 95.1115C170.845 94.6883 170.928 94.2581 171.047 93.8455C171.099 93.664 171.141 93.5826 171.173 93.6027L171.252 93.6416C171.287 93.6564 171.318 93.6798 171.342 93.7096C171.366 93.7394 171.383 93.7747 171.39 93.8125C171.448 94.064 171.459 94.3242 171.423 94.5799C171.406 94.7323 171.378 94.8832 171.339 95.0313C171.306 95.1711 171.255 95.3062 171.188 95.4333C171.17 95.4819 171.139 95.5242 171.098 95.5552C171.056 95.5861 171.007 95.6044 170.956 95.6078C170.899 95.6043 170.844 95.5874 170.795 95.5583C170.733 95.5253 170.702 95.4946 170.702 95.4687C170.715 95.3475 170.734 95.2271 170.759 95.108L170.763 95.1115ZM180.272 94.4231C180.255 94.528 180.232 94.6306 180.218 94.7249C180.174 95.0172 180.137 95.3143 180.083 95.6019C180.049 95.8153 179.988 96.0235 179.903 96.2219C179.81 96.4135 179.695 96.5935 179.561 96.7583C179.434 96.7583 179.382 96.5225 179.365 96.4247C179.341 96.2396 179.341 96.0522 179.365 95.8671C179.38 95.664 179.408 95.462 179.448 95.2624C179.509 94.9575 179.596 94.6589 179.709 94.37C179.755 94.2522 179.807 94.1437 179.853 94.0294C179.873 93.9799 179.92 93.8207 179.988 93.8207C180.043 93.8164 180.098 93.829 180.145 93.857C180.193 93.885 180.231 93.9271 180.254 93.9775C180.296 94.1212 180.301 94.2734 180.268 94.4196L180.272 94.4231ZM166.439 99.2596C165.997 98.7976 166.574 97.9889 167.128 98.3378C167.213 98.3895 167.284 98.462 167.334 98.5486C167.385 98.6352 167.414 98.7332 167.417 98.8339C167.421 98.9345 167.401 99.0345 167.357 99.1249C167.313 99.2153 167.248 99.2932 167.167 99.3516C167.054 99.4234 166.921 99.4536 166.789 99.4373C166.657 99.421 166.534 99.3591 166.441 99.262L166.439 99.2596ZM165.804 94.5634C165.811 94.4455 165.822 94.3276 165.832 94.2192C165.842 94.1073 165.869 93.9976 165.911 93.8938C165.938 93.8436 165.953 93.7876 165.954 93.7305C165.956 93.6734 165.944 93.6167 165.92 93.5649C165.835 93.4247 165.662 93.3657 165.517 93.3115C165.354 93.249 165.229 93.4199 165.073 93.361C164.936 93.3103 164.841 93.4082 164.765 93.5001L164.745 93.4801C164.669 93.4029 164.579 93.3423 164.479 93.3017C164.379 93.2612 164.272 93.2417 164.165 93.2443C163.975 93.2738 163.799 93.4801 163.701 93.6321C163.554 93.8676 163.442 94.1238 163.37 94.3924C163.245 94.7862 163.216 95.194 163.115 95.5913C163.056 95.7968 162.953 95.9869 162.815 96.1488C162.72 96.2667 162.583 96.5025 162.401 96.4388C162.365 96.4232 162.332 96.3997 162.306 96.37C162.279 96.3403 162.259 96.3051 162.247 96.2667C162.131 95.9508 162.162 95.5535 162.239 95.2317C162.284 95.0372 162.325 94.8569 162.367 94.6612C162.396 94.5605 162.416 94.4576 162.429 94.3535C162.422 94.2694 162.435 94.1846 162.469 94.1072C162.487 94.0777 162.5 94.0455 162.507 94.0117C162.506 93.9648 162.493 93.919 162.469 93.879C162.445 93.839 162.411 93.8063 162.37 93.7842C162.275 93.7223 162.171 93.6739 162.062 93.6404C161.957 93.6058 161.849 93.581 161.74 93.5661C161.639 93.552 161.58 93.5461 161.56 93.5461C161.525 93.5419 161.493 93.5241 161.472 93.4966C161.223 93.2443 161 93.1429 160.802 93.1936C160.597 93.2472 160.415 93.3672 160.284 93.5355C159.977 93.908 159.82 94.4632 159.704 94.9288C159.539 95.6254 159.406 96.5378 159.776 97.1885C159.829 97.2973 159.909 97.3906 160.008 97.46C160.106 97.5294 160.22 97.5726 160.34 97.5858C160.631 97.607 160.835 97.3441 160.983 97.1284C161.06 97.0166 161.132 96.901 161.198 96.7818C161.259 96.664 161.303 96.5932 161.33 96.5531C161.465 96.8714 161.701 97.1543 162.069 97.1614C162.379 97.1685 162.657 96.9398 162.85 96.7123C162.941 96.6086 163.019 96.4933 163.082 96.3693C163.106 96.3186 163.124 96.2773 163.137 96.2431L163.161 96.2561C163.165 96.4041 163.2 96.5494 163.265 96.682C163.33 96.8145 163.423 96.9311 163.537 97.0235C164.072 97.429 164.528 96.9645 164.851 96.5331C164.832 96.559 164.851 96.6675 164.851 96.7005C164.851 96.8184 164.861 96.9469 164.868 97.0706C164.868 97.4785 164.931 97.8781 164.904 98.286C164.895 98.4416 164.845 98.5217 164.753 98.5217C164.354 98.5217 164.063 98.2176 163.957 97.8463C163.934 97.7673 163.913 97.7284 163.893 97.7366L163.707 97.8463C163.666 97.8503 163.626 97.864 163.591 97.8864C163.575 97.9126 163.568 97.9439 163.572 97.9748C163.544 98.2062 163.582 98.4408 163.681 98.6514C163.754 98.7921 163.863 98.9099 163.998 98.992C164.132 99.0741 164.286 99.1173 164.442 99.117C164.643 99.117 164.873 98.919 165.023 98.7999C165.307 98.5783 165.603 98.2895 165.708 97.9311C165.83 97.5084 165.871 97.066 165.831 96.6274C165.789 96.102 165.775 95.5748 165.788 95.0478C165.786 94.8875 165.794 94.7249 165.805 94.5634H165.804ZM161.439 94.4184C161.426 94.5504 161.398 94.6836 161.375 94.8192C161.285 95.3296 161.213 95.8176 161.012 96.2962C160.983 96.3645 160.796 96.7547 160.717 96.7547C160.638 96.7547 160.593 96.6793 160.557 96.5272C160.363 95.7091 160.666 94.7791 161.006 94.04C161.075 93.8915 161.122 93.8172 161.148 93.8172C161.206 93.8091 161.264 93.8227 161.313 93.8555C161.362 93.8883 161.397 93.9379 161.412 93.9952C161.447 94.1333 161.457 94.2768 161.44 94.4184H161.439ZM164.922 94.1355C164.877 94.2989 164.856 94.468 164.858 94.6376C164.846 94.8097 164.831 94.9818 164.807 95.1528C164.77 95.4197 164.715 95.6839 164.644 95.9437C164.593 96.1804 164.493 96.4031 164.349 96.5968C164.245 96.5968 164.172 96.5166 164.129 96.361C164.049 96.0262 164.044 95.6775 164.113 95.3402C164.165 95.0585 164.243 94.7823 164.345 94.515C164.389 94.3972 164.432 94.2793 164.479 94.1614C164.513 94.0693 164.557 93.9815 164.611 93.8997L164.679 93.9186H164.767C164.787 93.9186 164.821 93.9469 164.87 94.0034C164.918 94.06 164.936 94.1013 164.923 94.1355H164.922ZM172.505 101.934C172.37 101.63 172.251 101.318 172.147 101.001C172.089 100.763 172.065 100.517 172.075 100.272C172.082 100.23 172.076 100.187 172.057 100.149C172.039 100.111 172.009 100.08 171.972 100.06C171.88 100.021 171.782 99.9967 171.683 99.9893C171.465 99.9768 171.249 100.038 171.069 100.163C171.004 100.203 170.945 100.236 170.892 100.262C170.84 100.288 170.815 100.292 170.815 100.272C170.842 100.559 170.827 100.848 170.77 101.13C170.705 101.596 170.601 102.055 170.459 102.502C170.451 102.431 170.416 102.426 170.355 102.491C170.264 102.59 170.179 102.694 170.101 102.803C170.003 102.935 169.907 103.066 169.813 103.196C169.521 103.594 169.1 103.499 168.941 103.054C168.861 102.828 168.825 102.55 168.976 102.347C169.043 102.255 169.108 102.161 169.171 102.066C169.404 101.722 169.604 101.357 169.77 100.975C170.106 100.185 170.234 99.2926 170.002 98.4533C169.961 98.3035 169.907 98.1579 169.839 98.0184C169.799 97.922 169.728 97.8418 169.639 97.7897C169.506 97.7384 169.371 97.6951 169.233 97.66C169.149 97.6359 169.062 97.6193 168.975 97.6105C168.857 97.6353 168.741 97.6668 168.626 97.7048C168.545 97.7321 168.467 97.7689 168.394 97.8144C168.326 97.8569 168.291 97.9017 168.291 97.9488C168.293 98.0806 168.281 98.2122 168.255 98.3414L168.168 98.9308C168.086 99.453 168.014 99.9716 167.968 100.496C167.936 100.871 167.939 101.238 167.94 101.614C167.94 101.873 167.94 102.131 167.94 102.39C167.94 102.439 167.94 102.484 167.94 102.526C167.939 102.525 167.937 102.525 167.935 102.525C167.933 102.525 167.931 102.525 167.93 102.526C167.833 102.554 167.787 102.732 167.739 102.804C167.252 103.54 167.072 102.873 167.088 102.348C167.116 101.799 167.214 101.257 167.381 100.734C167.415 100.616 167.451 100.543 167.399 100.436C167.325 100.285 167.158 100.192 167.018 100.11C166.859 100.014 166.623 100.087 166.477 100.179C166.446 100.198 166.378 100.158 166.342 100.168C166.084 100.242 166.292 100.469 166.317 100.608C166.352 100.793 166.286 100.991 166.256 101.173C166.223 101.374 166.2 101.577 166.171 101.779C166.141 102.071 166.072 102.358 165.965 102.631C165.887 102.812 165.68 103.275 165.457 103.291C165.16 103.312 165.127 102.869 165.127 102.66C165.136 102.29 165.187 101.922 165.278 101.563C165.334 101.313 165.588 100.798 165.323 100.626C165.079 100.474 164.798 100.392 164.511 100.39C164.494 100.388 164.477 100.382 164.462 100.374C164.447 100.365 164.433 100.353 164.423 100.339C164.176 100.089 163.952 99.9881 163.753 100.038C163.341 100.14 163.1 100.547 162.922 100.911C162.689 101.383 162.637 101.888 162.565 102.405C162.547 102.541 162.533 102.679 162.513 102.816C162.324 102.889 162.252 103.079 162.094 103.192C162.041 103.234 161.977 103.262 161.911 103.271C161.844 103.281 161.776 103.272 161.713 103.246C161.604 103.19 161.56 102.988 161.546 102.876C161.488 102.405 161.599 101.925 161.707 101.462C161.764 101.226 161.782 100.807 161.91 100.594C162.039 100.381 161.878 100.344 161.735 100.227C161.51 100.041 161.409 99.9987 161.123 100.11C161.023 100.148 160.937 100.215 160.874 100.303C160.819 100.407 160.78 100.519 160.758 100.634C160.518 101.372 160.323 102.126 160.054 102.854C160.016 102.975 159.97 103.093 159.916 103.207C159.92 103.073 159.932 102.939 159.953 102.807C159.987 102.447 160.024 102.088 160.069 101.729C160.094 101.545 160.121 101.361 160.153 101.179C160.178 101.031 160.269 100.911 160.269 100.753C160.252 100.651 160.204 100.558 160.132 100.486C160.07 100.409 160.016 100.318 159.907 100.326C159.84 100.338 159.774 100.356 159.709 100.378C159.651 100.39 159.592 100.39 159.534 100.378C159.478 100.368 159.418 100.328 159.365 100.339C159.231 100.369 159.192 100.517 159.154 100.629L159.241 100.805C159.205 100.849 159.178 100.899 159.161 100.954C159.145 101.008 159.139 101.065 159.144 101.122C159.176 102.003 159.093 102.897 159.057 103.78C159.047 103.885 159.055 103.99 159.078 104.093C159.14 104.319 159.614 104.591 159.818 104.486C160.023 104.381 159.987 104.205 160.026 104.025C160.142 103.49 160.38 102.929 160.56 102.408C160.626 102.22 160.676 102.115 160.717 102.095C160.756 102.095 160.776 102.128 160.776 102.195C160.776 102.221 160.762 102.304 160.737 102.447C160.67 102.781 160.665 103.125 160.722 103.461C160.775 103.745 160.948 104.07 161.251 104.13C161.419 104.158 161.591 104.129 161.741 104.048C161.936 103.95 162.082 103.787 162.262 103.671C162.314 103.636 162.386 103.594 162.404 103.529C162.438 103.429 162.476 103.331 162.52 103.234C162.531 103.51 162.605 103.78 162.738 104.021C162.794 104.139 162.881 104.239 162.99 104.309C163.099 104.38 163.225 104.417 163.355 104.418C163.733 104.418 164.005 103.899 164.167 103.614C164.229 103.496 164.273 103.425 164.298 103.385C164.361 103.574 164.479 103.738 164.636 103.857C165.2 104.211 165.806 103.72 166.049 103.206C166.086 103.14 166.112 103.068 166.127 102.993C166.127 102.98 166.127 102.952 166.121 102.909V102.888C166.147 103.068 166.202 103.242 166.285 103.403C166.335 103.547 166.426 103.673 166.548 103.764C166.669 103.854 166.814 103.906 166.965 103.911C167.353 103.917 167.634 103.575 167.876 103.311L167.916 103.231C167.945 103.18 167.965 103.143 167.977 103.113C167.998 103.242 168.03 103.369 168.073 103.493C168.113 103.632 168.176 103.765 168.258 103.884C168.366 104.012 168.501 104.115 168.653 104.183C168.806 104.252 168.971 104.285 169.137 104.28C169.431 104.28 169.68 104.101 169.901 103.926C169.973 103.867 170.522 103.463 170.503 103.37C170.508 103.409 170.508 103.449 170.503 103.488C170.503 103.528 170.503 103.561 170.503 103.587C170.503 103.9 170.687 104.412 171.031 104.505C171.611 104.657 172.374 103.904 172.588 103.424C172.824 102.889 172.693 102.409 172.506 101.934H172.505ZM168.889 101.31C168.894 101.121 168.906 100.899 168.922 100.645C168.939 100.39 168.958 100.12 168.981 99.8361C169.005 99.552 169.03 99.2903 169.059 99.051C169.082 98.8529 169.114 98.6562 169.157 98.4616C169.193 98.306 169.231 98.2258 169.273 98.2258C169.365 98.2258 169.423 98.3779 169.449 98.682C169.469 98.9013 169.481 99.0769 169.488 99.2089C169.495 99.341 169.498 99.4341 169.498 99.4871C169.509 100.259 169.293 101.016 168.877 101.662C168.877 101.615 168.883 101.498 168.89 101.31H168.889ZM164.399 101.249C164.388 101.329 164.372 101.408 164.352 101.485C164.329 101.59 164.327 101.706 164.315 101.813C164.29 102.027 164.255 102.24 164.209 102.451C164.165 102.657 164.102 102.859 164.021 103.054C163.934 103.247 163.822 103.427 163.688 103.59C163.616 103.59 163.562 103.515 163.526 103.363C163.493 103.226 163.475 103.086 163.473 102.946C163.475 102.689 163.505 102.432 163.561 102.182C163.614 101.93 163.681 101.681 163.761 101.437C163.823 101.246 163.895 101.059 163.977 100.876C164.045 100.727 164.093 100.653 164.118 100.653C164.176 100.645 164.235 100.659 164.284 100.692C164.332 100.725 164.367 100.775 164.382 100.832C164.415 100.969 164.422 101.11 164.401 101.249H164.399ZM171.734 103.674C171.676 103.83 171.541 103.884 171.281 103.734C170.842 103.482 171.345 103.021 171.105 102.711C171.079 102.678 170.757 102.915 170.726 102.933C170.981 102.785 171.083 101.282 171.294 101.282C171.332 101.282 171.343 101.32 171.323 101.4C171.256 101.658 171.472 102.026 171.555 102.261C171.614 102.442 171.87 103.321 171.735 103.674H171.734Z" fill="#5A5758"/>
</g>
<path d="M148 78.2792C148 76.3725 149.353 74.7696 151.251 74.589C154.149 74.3132 159.165 74 167 74C174.835 74 179.851 74.3132 182.749 74.589C184.647 74.7696 186 76.3725 186 78.2792V122C186 124.209 184.209 126 182 126H152C149.791 126 148 124.209 148 122V78.2792Z" stroke="#5A5758" stroke-width="2"/>
<path d="M157.977 27.9768C157.99 27.4337 158.434 27 158.977 27H176.023C176.566 27 177.01 27.4337 177.023 27.9768L177.976 68.9768C177.989 69.538 177.538 70 176.976 70H158.024C157.462 70 157.011 69.538 157.024 68.9768L157.977 27.9768Z" stroke="#5A5758" stroke-width="2"/>
<path d="M159 70H176C176 72.5022 177 74 177 74H158C158 74 159 72.5 159 70Z" stroke="#5A5758" stroke-width="2"/>
<path d="M167.5 24.002C170.484 24.002 175 24.5 175 26.002H160C160 24.5 164.516 24.002 167.5 24.002Z" fill="#FFBC3A"/>
<defs>
<clipPath id="clip0">
<rect width="38" height="21" fill="white" transform="translate(102 88)"/>
</clipPath>
<clipPath id="clip1">
<rect width="38" height="21" fill="white" transform="translate(60 88)"/>
</clipPath>
<clipPath id="clip2">
<rect width="38" height="21" fill="white" transform="translate(144 88)"/>
</clipPath>
</defs>
</svg>
