<svg width="169" height="50" viewBox="0 0 169 50" fill="none" xmlns="http://www.w3.org/2000/svg">
<g clip-path="url(#clip0)">
<path d="M167.572 44.0959C167.572 46.7415 165.429 48.8843 162.779 48.8843H5.91237C3.26311 48.8843 1.11281 46.7415 1.11281 44.0959V5.9099C1.11281 3.26564 3.26322 1.11523 5.91237 1.11523H162.777C165.429 1.11523 167.571 3.26564 167.571 5.9099L167.572 44.0959Z" fill="white"/>
<path d="M162.779 49.9977H5.91237C2.653 49.9977 0 47.351 0 44.0953V5.91058C0 2.65246 2.653 0.00195312 5.91237 0.00195312H162.777C166.033 0.00195312 168.69 2.65246 168.69 5.91058V44.0953C168.692 47.351 166.035 49.9977 162.779 49.9977Z" fill="#A6A6A6"/>
<path d="M167.572 44.0959C167.572 46.7415 165.429 48.8843 162.779 48.8843H5.91237C3.26311 48.8843 1.11281 46.7415 1.11281 44.0959V5.9099C1.11281 3.26564 3.26322 1.11523 5.91237 1.11523H162.777C165.429 1.11523 167.571 3.26564 167.571 5.9099L167.572 44.0959Z" fill="#2C3034"/>
<path d="M37.6671 24.7374C37.6309 20.7079 40.9665 18.7475 41.119 18.6562C39.2299 15.9019 36.302 15.5256 35.273 15.4956C32.8138 15.2368 30.4284 16.9671 29.1756 16.9671C27.8979 16.9671 25.9688 15.5206 23.8896 15.5631C21.2141 15.6044 18.7112 17.1534 17.3384 19.5589C14.5054 24.4636 16.6182 31.6712 19.3326 35.6357C20.6903 37.5786 22.2769 39.7453 24.3535 39.669C26.3851 39.5865 27.144 38.375 29.5957 38.375C32.0248 38.375 32.7376 39.669 34.8554 39.6202C37.0359 39.5865 38.4085 37.6699 39.7189 35.7107C41.2879 33.4866 41.9179 31.2936 41.9431 31.1811C41.8929 31.1636 37.7096 29.5658 37.6671 24.7374ZM33.6664 12.8876C34.759 11.5211 35.5067 9.662 35.2992 7.77539C33.7175 7.8454 31.7398 8.86935 30.6007 10.2059C29.593 11.3836 28.6928 13.314 28.9254 15.1293C30.7021 15.2618 32.5262 14.2329 33.6664 12.8876Z" fill="white"/>
<path opacity="0.4" d="M162.779 0.00195312H78.7562L111.666 49.9977H162.779C166.034 49.9977 168.691 47.351 168.691 44.0916V5.91058C168.692 2.65246 166.035 0.00195312 162.779 0.00195312Z" fill="url(#paint0_linear)"/>
<path d="M67.094 39.3901H64.2548L62.6994 34.5029H57.2933L55.8118 39.3901H53.0476L58.4049 22.7519H61.713L67.094 39.3901ZM62.2307 32.4525L60.8242 28.108C60.6754 27.6641 60.3954 26.6189 59.9852 24.9736H59.9353C59.7702 25.6813 59.5064 26.7264 59.1451 28.108L57.7624 32.4525H62.2307ZM80.8443 33.2439C80.8443 35.2843 80.2904 36.8971 79.1813 38.0812C78.1888 39.135 76.9548 39.6615 75.4831 39.6615C73.8941 39.6615 72.7514 39.095 72.0575 37.9599V44.2549H69.392V31.3361C69.392 30.0545 69.3583 28.7406 69.2933 27.3928H71.6375L71.7863 29.2944H71.8362C72.7251 27.8617 74.0741 27.1452 75.8845 27.1452C77.2997 27.1452 78.4812 27.704 79.4264 28.823C80.3703 29.9446 80.8443 31.4173 80.8443 33.2439ZM78.1287 33.3414C78.1287 32.1737 77.8661 31.211 77.3385 30.4522C76.7621 29.6633 75.9882 29.2683 75.0181 29.2683C74.3604 29.2683 73.7628 29.4882 73.229 29.9221C72.6939 30.3596 72.3438 30.931 72.1801 31.6386C72.0976 31.9687 72.0563 32.2375 72.0563 32.4501V34.4517C72.0563 35.3231 72.3239 36.0596 72.859 36.6622C73.3941 37.2623 74.0892 37.5635 74.9444 37.5635C75.9484 37.5635 76.7298 37.1748 77.2886 36.4033C77.8486 35.6294 78.1287 34.6092 78.1287 33.3414ZM94.6431 33.2439C94.6431 35.2843 94.0892 36.8971 92.9802 38.0812C91.9863 39.135 90.7536 39.6615 89.2808 39.6615C87.6917 39.6615 86.549 39.095 85.8551 37.9599V44.2549H83.1896V31.3361C83.1896 30.0545 83.1559 28.7406 83.0908 27.3928H85.435L85.5838 29.2944H85.6338C86.5215 27.8617 87.8705 27.1452 89.682 27.1452C91.096 27.1452 92.2775 27.704 93.2253 28.823C94.1681 29.9446 94.6431 31.4173 94.6431 33.2439ZM91.9263 33.3414C91.9263 32.1737 91.6626 31.211 91.1349 30.4522C90.5585 29.6633 89.7871 29.2683 88.8169 29.2683C88.1593 29.2683 87.5617 29.4882 87.0253 29.9221C86.4902 30.3596 86.1415 30.931 85.9776 31.6386C85.8964 31.9687 85.8526 32.2375 85.8526 32.4501V34.4517C85.8526 35.3231 86.1214 36.0596 86.654 36.6622C87.1891 37.261 87.8843 37.5635 88.7419 37.5635C89.747 37.5635 90.5284 37.1748 91.0861 36.4033C91.6462 35.6294 91.9263 34.6092 91.9263 33.3414ZM110.071 34.723C110.071 36.1395 109.576 37.2909 108.592 38.1799C107.509 39.15 105.998 39.6364 104.06 39.6364C102.27 39.6364 100.834 39.2913 99.7515 38.5999L100.368 36.3783C101.537 37.0709 102.821 37.416 104.219 37.416C105.224 37.416 106.005 37.1884 106.563 36.7371C107.122 36.2845 107.404 35.6794 107.404 34.9242C107.404 34.248 107.17 33.6815 106.712 33.2203C106.25 32.7602 105.488 32.3314 104.416 31.9375C101.503 30.8511 100.045 29.262 100.045 27.1716C100.045 25.8064 100.56 24.6887 101.588 23.8148C102.616 22.9421 103.979 22.5059 105.674 22.5059C107.188 22.5059 108.45 22.7697 109.451 23.296L108.782 25.4688C107.839 24.9587 106.775 24.7037 105.585 24.7037C104.645 24.7037 103.907 24.935 103.38 25.3951C102.936 25.8064 102.711 26.3078 102.711 26.9028C102.711 27.5593 102.967 28.1044 103.477 28.532C103.92 28.9257 104.727 29.3547 105.895 29.8147C107.328 30.3923 108.381 31.065 109.055 31.8376C109.733 32.6101 110.071 33.574 110.071 34.723ZM118.907 29.3932H115.968V35.2181C115.968 36.6996 116.486 37.4385 117.524 37.4385C118 37.4385 118.395 37.3984 118.708 37.3147L118.781 39.3388C118.256 39.5352 117.565 39.6339 116.709 39.6339C115.656 39.6339 114.833 39.3126 114.239 38.67C113.648 38.0273 113.35 36.9509 113.35 35.4356V29.3882H111.6V27.3878H113.35V25.1912L115.968 24.401V27.3878H118.907V29.3932ZM132.136 33.2927C132.136 35.1367 131.609 36.6507 130.556 37.8348C129.455 39.0538 127.989 39.6614 126.163 39.6614C124.4 39.6614 122.998 39.0775 121.953 37.9111C120.908 36.742 120.385 35.2693 120.385 33.4927C120.385 31.6335 120.926 30.1108 122.002 28.9269C123.081 27.7416 124.534 27.1491 126.36 27.1491C128.121 27.1491 129.535 27.7341 130.605 28.9019C131.628 30.0346 132.136 31.4973 132.136 33.2927ZM129.373 33.354C129.373 32.2549 129.136 31.3122 128.66 30.5233C128.101 29.5706 127.301 29.0944 126.264 29.0944C125.196 29.0944 124.378 29.5706 123.82 30.5233C123.342 31.3122 123.105 32.2711 123.105 33.4039C123.105 34.5042 123.342 35.4492 123.82 36.2357C124.396 37.1884 125.2 37.6648 126.242 37.6648C127.261 37.6648 128.059 37.1784 128.637 36.212C129.127 35.4043 129.373 34.4554 129.373 33.354ZM140.804 29.737C140.541 29.6882 140.258 29.6632 139.964 29.6632C139.027 29.6632 138.301 30.0158 137.791 30.7259C137.349 31.351 137.126 32.1411 137.126 33.095V39.39H134.461V31.171C134.461 29.7895 134.435 28.5293 134.383 27.3941H136.705L136.803 29.6894H136.876C137.159 28.9006 137.601 28.2641 138.209 27.7878C138.803 27.3591 139.444 27.1452 140.136 27.1452C140.382 27.1452 140.605 27.1627 140.802 27.194L140.804 29.737ZM152.725 32.8238C152.725 33.3014 152.694 33.7039 152.628 34.0328H144.631C144.661 35.2181 145.049 36.1257 145.792 36.7508C146.466 37.3086 147.337 37.5885 148.407 37.5885C149.591 37.5885 150.671 37.401 151.643 37.0221L152.06 38.8712C150.925 39.3663 149.585 39.6126 148.038 39.6126C146.178 39.6126 144.718 39.0649 143.655 37.9723C142.595 36.8784 142.063 35.4081 142.063 33.5665C142.063 31.7585 142.557 30.2521 143.546 29.0506C144.581 27.7679 145.98 27.1264 147.741 27.1264C149.47 27.1264 150.779 27.7678 151.668 29.0506C152.372 30.0671 152.725 31.3273 152.725 32.8238ZM150.184 32.1325C150.202 31.3411 150.027 30.6597 149.666 30.0833C149.205 29.3407 148.495 28.9706 147.543 28.9706C146.672 28.9706 145.962 29.3319 145.422 30.0571C144.978 30.6334 144.714 31.3261 144.633 32.13L150.184 32.1325Z" fill="white"/>
<path d="M60.9454 16.797H59.5488L58.7849 14.3952H56.1281L55.3992 16.797H54.0402L56.6732 8.61914H58.2985L60.9454 16.797ZM58.5548 13.3876L57.8634 11.2521C57.7909 11.0334 57.6572 10.5245 57.4509 9.71185H57.4259C57.3409 10.0632 57.2196 10.5733 57.037 11.2521L56.3582 13.3876H58.5548ZM67.529 10.9008L65.2961 16.797H64.022L61.8617 10.9008H63.2695L64.2772 14.0189C64.4472 14.5403 64.5922 15.0379 64.701 15.5105H64.7373C64.8349 15.0866 64.9798 14.589 65.1611 14.0189L66.1563 10.9008H67.529ZM72.2824 16.797L72.1849 16.118H72.1486C71.7485 16.6643 71.1659 16.9306 70.4258 16.9306C69.3705 16.9306 68.6179 16.1905 68.6179 15.1953C68.6179 13.74 69.8794 12.9874 72.0635 12.9874V12.8786C72.0635 12.1022 71.651 11.7134 70.8383 11.7134C70.2556 11.7134 69.7456 11.8597 69.298 12.151L69.0316 11.2895C69.578 10.9495 70.2569 10.7795 71.0582 10.7795C72.5985 10.7795 73.3762 11.5921 73.3762 13.2187V15.3903C73.3762 15.9854 73.4012 16.4468 73.4612 16.7981L72.2824 16.797ZM72.0999 13.8601C70.6435 13.8601 69.9157 14.2127 69.9157 15.0491C69.9157 15.668 70.2921 15.9705 70.8134 15.9705C71.4809 15.9705 72.0999 15.4617 72.0999 14.7703V13.8601ZM76.2944 9.92939C75.8581 9.92939 75.518 9.58933 75.518 9.14049C75.518 8.69166 75.8695 8.36409 76.3195 8.36409C76.7683 8.36409 77.1321 8.69166 77.1197 9.14049C77.1197 9.61433 76.7809 9.92939 76.2944 9.92939ZM76.9746 16.797H75.6643V10.9008H76.9746V16.797ZM80.6128 16.797H79.3025V8.19531H80.6128V16.797ZM86.1813 16.797L86.0837 16.118H86.0475C85.6475 16.6643 85.0649 16.9306 84.3247 16.9306C83.2695 16.9306 82.5169 16.1905 82.5169 15.1953C82.5169 13.74 83.7783 12.9874 85.9624 12.9874V12.8786C85.9624 12.1022 85.5498 11.7134 84.7372 11.7134C84.1546 11.7134 83.6445 11.8597 83.1969 12.151L82.9295 11.2883C83.4758 10.9482 84.1547 10.7782 84.9561 10.7782C86.4964 10.7782 87.2739 11.5909 87.2739 13.2174V15.3891C87.2739 15.9842 87.3003 16.4455 87.3578 16.7968H86.1813V16.797ZM85.9988 13.8601C84.5423 13.8601 83.8146 14.2127 83.8146 15.0491C83.8146 15.668 84.1908 15.9705 84.7122 15.9705C85.3798 15.9705 85.9988 15.4617 85.9988 14.7703V13.8601ZM92.5826 16.9307C91.7462 16.9307 91.1285 16.5782 90.7284 15.8868H90.7022L90.6272 16.797H89.5107C89.547 16.3244 89.5595 15.7893 89.5595 15.2079V8.19531H90.871V11.7635H90.896C91.2847 11.1084 91.9138 10.7808 92.7763 10.7808C94.1966 10.7808 95.1918 11.9948 95.1918 13.7651C95.1918 15.5955 94.0866 16.9307 92.5826 16.9307ZM92.3162 11.8098C91.5623 11.8098 90.8723 12.4649 90.8723 13.375V14.4065C90.8723 15.2191 91.4923 15.8868 92.2938 15.8868C93.2753 15.8868 93.8591 15.0866 93.8591 13.8126C93.8578 12.6237 93.2502 11.8098 92.3162 11.8098ZM98.4386 16.797H97.1297V8.19531H98.4386V16.797ZM105.571 14.1639H101.638C101.664 15.2804 102.402 15.9105 103.495 15.9105C104.077 15.9105 104.611 15.813 105.084 15.6317L105.287 16.5419C104.73 16.7844 104.075 16.9057 103.311 16.9057C101.465 16.9057 100.374 15.7405 100.374 13.9339C100.374 12.1261 101.492 10.7671 103.163 10.7671C104.667 10.7671 105.615 11.8835 105.615 13.5701C105.62 13.8001 105.609 14.0064 105.571 14.1639ZM104.37 13.23C104.37 12.3198 103.908 11.6772 103.071 11.6772C102.318 11.6772 101.726 12.3323 101.638 13.23H104.37ZM113.513 16.9307C111.79 16.9307 110.673 15.6442 110.673 13.8976C110.673 12.0773 111.814 10.7796 113.612 10.7796C115.308 10.7796 116.451 12.0048 116.451 13.8014C116.451 15.6442 115.273 16.9307 113.513 16.9307ZM113.563 11.7372C112.616 11.7372 112.01 12.6224 112.01 13.8601C112.01 15.0741 112.629 15.9593 113.55 15.9593C114.472 15.9593 115.089 15.0129 115.089 13.8351C115.091 12.6349 114.484 11.7372 113.563 11.7372ZM123.495 16.797H122.186V13.4113C122.186 12.3686 121.786 11.846 120.997 11.846C120.22 11.846 119.685 12.5136 119.685 13.29V16.797H118.376V12.5861C118.376 12.0648 118.363 11.5059 118.328 10.8996H119.48L119.542 11.8098H119.578C119.928 11.1796 120.645 10.7783 121.446 10.7783C122.682 10.7783 123.495 11.7247 123.495 13.265V16.797H123.495ZM132.068 11.8835H130.626V14.7466C130.626 15.4754 130.88 15.8393 131.389 15.8393C131.62 15.8393 131.815 15.8143 131.971 15.778L132.008 16.7732C131.752 16.8708 131.411 16.9195 130.99 16.9195C129.957 16.9195 129.341 16.3494 129.341 14.8566V11.8835H128.481V10.9008H129.341V9.82062L130.626 9.4318V10.8996H132.068V11.8835ZM139.006 16.797H137.695V13.4363C137.695 12.3811 137.295 11.8473 136.506 11.8473C135.827 11.8473 135.197 12.3086 135.197 13.2425V16.797H133.885V8.19531H135.197V11.7372H135.222C135.635 11.0946 136.23 10.7783 136.994 10.7783C138.243 10.7783 139.006 11.7485 139.006 13.29V16.797ZM145.701 14.1639H141.769C141.794 15.2804 142.532 15.9105 143.625 15.9105C144.209 15.9105 144.741 15.813 145.214 15.6317L145.419 16.5419C144.861 16.7844 144.205 16.9057 143.441 16.9057C141.596 16.9057 140.504 15.7405 140.504 13.9339C140.504 12.1261 141.622 10.7671 143.294 10.7671C144.798 10.7671 145.745 11.8835 145.745 13.5701C145.75 13.8001 145.738 14.0064 145.701 14.1639ZM144.5 13.23C144.5 12.3198 144.04 11.6772 143.202 11.6772C142.448 11.6772 141.856 12.3323 141.769 13.23H144.5Z" fill="white"/>
</g>
<defs>
<linearGradient id="paint0_linear" x1="123.724" y1="50.1336" x2="123.724" y2="5.0675" gradientUnits="userSpaceOnUse">
<stop stop-color="#1A1A1A" stop-opacity="0.1"/>
<stop offset="0.123" stop-color="#212121" stop-opacity="0.151"/>
<stop offset="0.308" stop-color="#353535" stop-opacity="0.227"/>
<stop offset="0.532" stop-color="#575757" stop-opacity="0.318"/>
<stop offset="0.783" stop-color="#858585" stop-opacity="0.421"/>
<stop offset="1" stop-color="#B3B3B3" stop-opacity="0.51"/>
</linearGradient>
<clipPath id="clip0">
<rect width="168.691" height="50" fill="white"/>
</clipPath>
</defs>
</svg>
