<svg width="176" height="51" viewBox="0 0 176 51" fill="none" xmlns="http://www.w3.org/2000/svg">
<rect x="0.625092" y="0.625092" width="174.75" height="48.7572" rx="4.37565" fill="#3F4245" stroke="#A6A6A6" stroke-width="1.25018"/>
<path d="M40.23 24.5966L15.3075 10.3552C14.0574 9.64082 12.5018 10.5435 12.5018 11.9834V39.9576C12.5018 41.3846 14.0323 42.2887 15.2821 41.6L40.2046 27.8672C41.4868 27.1607 41.5011 25.323 40.23 24.5966Z" fill="url(#paint0_linear)"/>
<path fill-rule="evenodd" clip-rule="evenodd" d="M13.6511 10.2537L32.6479 32.0306L40.2035 27.8674C41.4857 27.1608 41.5 25.3231 40.2289 24.5967L15.3064 10.3553C14.7613 10.0438 14.158 10.0398 13.6511 10.2537Z" fill="url(#paint1_linear)"/>
<path fill-rule="evenodd" clip-rule="evenodd" d="M15.3064 10.3553L40.2289 24.5967C41.5 25.3231 41.4857 27.1608 40.2035 27.8674L32.6479 32.0306L13.6511 10.2537C14.158 10.0398 14.7613 10.0438 15.3064 10.3553Z" fill="url(#paint2_linear)"/>
<path fill-rule="evenodd" clip-rule="evenodd" d="M32.4097 20.127L40.23 24.5957C41.5011 25.322 41.4869 27.1598 40.2046 27.8663L15.2821 41.5991C14.7295 41.9036 14.1219 41.8967 13.6161 41.6708L32.4097 20.127Z" fill="url(#paint3_linear)"/>
<path fill-rule="evenodd" clip-rule="evenodd" d="M13.6161 41.6708C14.1219 41.8967 14.7295 41.9036 15.2821 41.5991L40.2046 27.8663C41.4869 27.1598 41.5011 25.322 40.23 24.5957L32.4097 20.127L13.6161 41.6708Z" fill="url(#paint4_linear)"/>
<path fill-rule="evenodd" clip-rule="evenodd" d="M32.4098 20.127L40.2301 24.5957C41.5013 25.322 41.487 27.1598 40.2047 27.8663L32.6492 32.0296L27.338 25.9411L32.4098 20.127Z" fill="url(#paint5_linear)"/>
<path fill-rule="evenodd" clip-rule="evenodd" d="M32.6492 32.0296L40.2047 27.8663C41.487 27.1598 41.5013 25.322 40.2301 24.5957L32.4098 20.127L27.338 25.9411L32.6492 32.0296Z" fill="url(#paint6_linear)"/>
<path d="M65.3946 32.3189C65.3946 34.4442 64.7641 36.1374 63.5031 37.3984C62.0862 38.9003 60.2231 39.6513 57.9135 39.6513C55.7032 39.6513 53.8329 38.8861 52.3027 37.3559C50.7725 35.8257 50.0074 33.9412 50.0074 31.7026C50.0074 29.4639 50.7725 27.5795 52.3027 26.0492C53.8329 24.519 55.7032 23.7539 57.9135 23.7539C59.0329 23.7539 60.0884 23.9523 61.0803 24.349C62.0721 24.7457 62.8868 25.3054 63.5244 26.028L62.1217 27.4307C61.6541 26.8639 61.0448 26.4247 60.2939 26.113C59.5571 25.7871 58.7637 25.6242 57.9135 25.6242C56.2558 25.6242 54.8531 26.198 53.7054 27.3457C52.5719 28.5075 52.0052 29.9598 52.0052 31.7026C52.0052 33.4453 52.5719 34.8976 53.7054 36.0595C54.8531 37.2071 56.2558 37.781 57.9135 37.781C59.4296 37.781 60.6906 37.3559 61.6966 36.5058C62.7026 35.6557 63.2835 34.4867 63.4394 32.999H57.9135V31.1713H65.2884C65.3592 31.568 65.3946 31.9505 65.3946 32.3189Z" fill="white"/>
<path d="M66.3064 34.1042C66.3064 32.5031 66.8094 31.1783 67.8153 30.1298C68.8355 29.0814 70.1178 28.5571 71.6622 28.5571C73.2066 28.5571 74.4817 29.0814 75.4877 30.1298C76.5079 31.1783 77.018 32.5031 77.018 34.1042C77.018 35.7194 76.5079 37.0442 75.4877 38.0785C74.4817 39.127 73.2066 39.6513 71.6622 39.6513C70.1178 39.6513 68.8355 39.127 67.8153 38.0785C66.8094 37.03 66.3064 35.7053 66.3064 34.1042ZM68.2617 34.1042C68.2617 35.2235 68.5875 36.1303 69.2393 36.8246C69.8911 37.5189 70.6987 37.866 71.6622 37.866C72.6256 37.866 73.4333 37.5189 74.085 36.8246C74.7368 36.1303 75.0627 35.2235 75.0627 34.1042C75.0627 32.999 74.7368 32.0993 74.085 31.405C73.4191 30.6966 72.6115 30.3424 71.6622 30.3424C70.7129 30.3424 69.9052 30.6966 69.2393 31.405C68.5875 32.0993 68.2617 32.999 68.2617 34.1042Z" fill="white"/>
<path d="M77.7739 34.1042C77.7739 32.5031 78.2769 31.1783 79.2829 30.1298C80.3031 29.0814 81.5853 28.5571 83.1297 28.5571C84.6741 28.5571 85.9493 29.0814 86.9553 30.1298C87.9754 31.1783 88.4855 32.5031 88.4855 34.1042C88.4855 35.7194 87.9754 37.0442 86.9553 38.0785C85.9493 39.127 84.6741 39.6513 83.1297 39.6513C81.5853 39.6513 80.3031 39.127 79.2829 38.0785C78.2769 37.03 77.7739 35.7053 77.7739 34.1042ZM79.7292 34.1042C79.7292 35.2235 80.0551 36.1303 80.7069 36.8246C81.3586 37.5189 82.1663 37.866 83.1297 37.866C84.0932 37.866 84.9008 37.5189 85.5526 36.8246C86.2043 36.1303 86.5302 35.2235 86.5302 34.1042C86.5302 32.999 86.2043 32.0993 85.5526 31.405C84.8867 30.6966 84.079 30.3424 83.1297 30.3424C82.1804 30.3424 81.3728 30.6966 80.7069 31.405C80.0551 32.0993 79.7292 32.999 79.7292 34.1042Z" fill="white"/>
<path d="M94.5123 37.866C95.4757 37.866 96.2621 37.5189 96.8714 36.8246C97.509 36.1303 97.8278 35.2235 97.8278 34.1042C97.8278 33.0132 97.509 32.1135 96.8714 31.405C96.2479 30.6966 95.4616 30.3424 94.5123 30.3424C93.5771 30.3424 92.7908 30.6966 92.1532 31.405C91.5156 32.1135 91.1968 33.0132 91.1968 34.1042C91.1968 35.2093 91.5156 36.1091 92.1532 36.8033C92.7908 37.5118 93.5771 37.866 94.5123 37.866ZM94.4485 44.2419C93.8676 44.2419 93.3221 44.164 92.812 44.0081C92.3019 43.8665 91.8344 43.661 91.4093 43.3918C90.9984 43.1226 90.6442 42.8038 90.3467 42.4354C90.0491 42.067 89.8224 41.6561 89.6666 41.2027L91.5156 40.4376C91.7281 41.0469 92.0965 41.5357 92.6207 41.9041C93.145 42.2725 93.7542 42.4567 94.4485 42.4567C95.5112 42.4567 96.34 42.1379 96.9351 41.5003C97.5302 40.8627 97.8278 39.9842 97.8278 38.8649V37.866H97.7428C97.3744 38.4186 96.8714 38.8578 96.2338 39.1837C95.6104 39.4954 94.9303 39.6513 94.1935 39.6513C92.8333 39.6513 91.6644 39.1199 90.6867 38.0573C89.7232 36.9663 89.2415 35.6486 89.2415 34.1042C89.2415 32.5598 89.7232 31.2492 90.6867 30.1724C91.6644 29.0955 92.8333 28.5571 94.1935 28.5571C94.9303 28.5571 95.6104 28.7201 96.2338 29.0459C96.8714 29.3577 97.3744 29.7898 97.7428 30.3424H97.8278V28.8972H99.698V38.8649C99.698 40.5368 99.2234 41.8474 98.2741 42.7967C97.3106 43.7602 96.0354 44.2419 94.4485 44.2419Z" fill="white"/>
<path d="M103.612 24.094V39.3112H101.657V24.094H103.612Z" fill="white"/>
<path d="M122.976 33.1478V39.3112H121.02V24.094H126.206C127.524 24.094 128.643 24.5332 129.564 25.4117C130.499 26.2901 130.967 27.3599 130.967 28.6209C130.967 29.9102 130.499 30.9871 129.564 31.8514C128.657 32.7156 127.538 33.1478 126.206 33.1478H122.976ZM122.976 25.9642V31.2775H126.249C127.028 31.2775 127.672 31.0154 128.183 30.4912C128.707 29.9669 128.969 29.3435 128.969 28.6209C128.969 27.9124 128.707 27.2961 128.183 26.7719C127.672 26.2334 127.028 25.9642 126.249 25.9642H122.976Z" fill="white"/>
<path d="M134.311 24.094V39.3112H132.355V24.094H134.311Z" fill="white"/>
<path d="M137.588 36.1232C137.588 36.6333 137.801 37.0584 138.226 37.3984C138.665 37.7385 139.175 37.9085 139.756 37.9085C140.578 37.9085 141.308 37.6039 141.945 36.9946C142.597 36.3854 142.923 35.6698 142.923 34.848C142.314 34.3663 141.463 34.1254 140.372 34.1254C139.579 34.1254 138.913 34.3167 138.375 34.6993C137.85 35.0818 137.588 35.5565 137.588 36.1232ZM140.117 28.5571C141.563 28.5571 142.703 28.9468 143.539 29.726C144.375 30.4912 144.793 31.5467 144.793 32.8928V39.3112H142.923V37.866H142.838C142.03 39.0562 140.953 39.6513 139.607 39.6513C138.46 39.6513 137.496 39.3112 136.717 38.6311C135.952 37.951 135.569 37.1009 135.569 36.0807C135.569 35.0039 135.973 34.1467 136.781 33.5091C137.602 32.8715 138.693 32.5527 140.054 32.5527C141.215 32.5527 142.172 32.7652 142.923 33.1903V32.744C142.923 32.0639 142.654 31.49 142.115 31.0225C141.577 30.5407 140.946 30.2999 140.224 30.2999C139.133 30.2999 138.268 30.7604 137.631 31.6813L135.909 30.5974C136.859 29.2372 138.261 28.5571 140.117 28.5571Z" fill="white"/>
<path d="M155.675 28.8972L149.15 43.9019H147.131L149.554 38.6524L145.261 28.8972H147.386L150.489 36.3783H150.531L153.549 28.8972H155.675Z" fill="white"/>
<path fill-rule="evenodd" clip-rule="evenodd" d="M110.142 39.6513C108.611 39.6513 107.35 39.127 106.359 38.0785C105.367 37.03 104.871 35.7053 104.871 34.1042C104.871 32.5173 105.353 31.1996 106.316 30.1511C107.28 29.0884 108.512 28.5571 110.014 28.5571C111.559 28.5571 112.784 29.0601 113.691 30.0661C114.24 30.6569 114.625 31.3911 114.847 32.2686L107.427 36.3792C107.558 36.5777 107.712 36.7616 107.889 36.9309C108.541 37.5543 109.32 37.866 110.227 37.866C111.473 37.866 112.451 37.2426 113.16 35.9957L114.902 36.8458C114.435 37.7243 113.783 38.4115 112.947 38.9074C112.125 39.4033 111.19 39.6513 110.142 39.6513ZM109.972 30.3424C110.864 30.3424 111.573 30.5832 112.097 31.065C112.22 31.1717 112.33 31.285 112.428 31.405L106.73 34.811C106.359 33.0228 106.908 31.9919 108.059 31.0225C108.597 30.5691 109.235 30.3424 109.972 30.3424Z" fill="white"/>
<path d="M52.8472 9.9286V11.6483C52.8472 13.5566 52.5455 15.0198 51.9421 16.0381H55.9245V9.9286H52.8472ZM57.8705 18.7534H56.8749V17.0337H51.003V18.7534H50.0074V16.0381H50.7654C51.1048 15.6911 51.3688 15.1217 51.5574 14.3297C51.7459 13.5302 51.8365 12.6288 51.8289 11.6257V8.93298H56.9654V16.0381H57.8705V18.7534Z" fill="white"/>
<path d="M66.9627 12.9833C66.9627 14.1826 66.5629 15.1858 65.7634 15.9928C64.9563 16.8074 63.9682 17.2147 62.7991 17.2147C61.6225 17.2147 60.6344 16.8074 59.8349 15.9928C59.0354 15.1858 58.6356 14.1826 58.6356 12.9833C58.6356 11.7841 59.0354 10.7809 59.8349 9.97385C60.6344 9.15925 61.6225 8.75195 62.7991 8.75195C63.9758 8.75195 64.9639 9.16302 65.7634 9.98517C66.5629 10.7922 66.9627 11.7916 66.9627 12.9833ZM59.6991 12.9833C59.6991 13.9186 59.9933 14.6917 60.5816 15.3027C61.1775 15.9136 61.9167 16.2191 62.7991 16.2191C63.6816 16.2191 64.417 15.9136 65.0053 15.3027C65.6012 14.6993 65.8991 13.9262 65.8991 12.9833C65.8991 12.0405 65.6012 11.2674 65.0053 10.664C64.417 10.053 63.6816 9.74758 62.7991 9.74758C61.9167 9.74758 61.1775 10.053 60.5816 10.664C59.9933 11.2749 59.6991 12.0481 59.6991 12.9833Z" fill="white"/>
<path d="M71.9817 17.2147C70.7824 17.2147 69.7792 16.8112 68.9722 16.0042C68.1727 15.1971 67.7729 14.1902 67.7729 12.9833C67.7729 11.7765 68.1727 10.7734 68.9722 9.97385C69.7717 9.15925 70.7749 8.75195 71.9817 8.75195C73.2036 8.75195 74.1954 9.19319 74.9572 10.0757L74.2105 10.7998C73.6297 10.0983 72.8868 9.74758 71.9817 9.74758C71.0841 9.74758 70.3336 10.0493 69.7302 10.6527C69.1344 11.2486 68.8364 12.0254 68.8364 12.9833C68.8364 13.9413 69.1344 14.7181 69.7302 15.314C70.3336 15.9174 71.0841 16.2191 71.9817 16.2191C72.9245 16.2191 73.7429 15.8231 74.4368 15.0312L75.1948 15.7666C74.8102 16.2267 74.3387 16.5849 73.7806 16.8414C73.2224 17.0903 72.6228 17.2147 71.9817 17.2147Z" fill="white"/>
<path d="M79.1718 9.9286V17.0337H78.131V9.9286H75.8682V8.93298H81.4346V9.9286H79.1718Z" fill="white"/>
<path d="M87.2262 8.93298H88.4481L85.3368 15.7666C84.9219 16.732 84.2921 17.2147 83.4473 17.2147C83.2135 17.2147 82.9458 17.1544 82.644 17.0337L82.9156 16.072C83.0966 16.1701 83.2776 16.2191 83.4586 16.2191C83.6925 16.2191 83.8697 16.1739 83.9904 16.0834C84.1186 15.9928 84.2431 15.8194 84.3638 15.5629L84.6466 14.9633L81.9086 8.93298H83.1305L85.1557 13.764H85.201L87.2262 8.93298Z" fill="white"/>
<path d="M90.4344 17.0337H89.3935V8.93298H95.2541V17.0337H94.2132V9.9286H90.4344V17.0337Z" fill="white"/>
<path d="M97.9254 17.0337H96.8845V8.93298H97.9254V12.4063H101.976V8.93298H103.017V17.0337H101.976V13.3793H97.9254V17.0337Z" fill="white"/>
<path d="M112.461 12.9833C112.461 14.1826 112.062 15.1858 111.262 15.9928C110.455 16.8074 109.467 17.2147 108.298 17.2147C107.121 17.2147 106.133 16.8074 105.334 15.9928C104.534 15.1858 104.134 14.1826 104.134 12.9833C104.134 11.7841 104.534 10.7809 105.334 9.97385C106.133 9.15925 107.121 8.75195 108.298 8.75195C109.474 8.75195 110.462 9.16302 111.262 9.98517C112.062 10.7922 112.461 11.7916 112.461 12.9833ZM105.198 12.9833C105.198 13.9186 105.492 14.6917 106.08 15.3027C106.676 15.9136 107.415 16.2191 108.298 16.2191C109.18 16.2191 109.916 15.9136 110.504 15.3027C111.1 14.6993 111.398 13.9262 111.398 12.9833C111.398 12.0405 111.1 11.2674 110.504 10.664C109.916 10.053 109.18 9.74758 108.298 9.74758C107.415 9.74758 106.676 10.053 106.08 10.664C105.492 11.2749 105.198 12.0481 105.198 12.9833Z" fill="white"/>
<path d="M116.264 17.0337V8.93298H119.194C119.835 8.93298 120.386 9.14417 120.846 9.56655C121.306 9.9814 121.536 10.5056 121.536 11.1392C121.536 11.9387 121.17 12.5006 120.439 12.825V12.8702C120.854 13.006 121.186 13.2436 121.434 13.583C121.683 13.9149 121.808 14.2958 121.808 14.7257C121.808 15.3894 121.566 15.94 121.084 16.3775C120.616 16.815 120.039 17.0337 119.353 17.0337H116.264ZM117.305 9.9286V12.4063H119.194C119.564 12.4063 119.873 12.2819 120.122 12.033C120.371 11.7765 120.495 11.4861 120.495 11.1618C120.495 10.845 120.375 10.5584 120.133 10.302C119.892 10.0531 119.594 9.9286 119.24 9.9286H117.305ZM117.305 13.3793V16.0381H119.398C119.775 16.0381 120.096 15.9061 120.36 15.6421C120.616 15.3781 120.744 15.0651 120.744 14.7031C120.744 14.3486 120.612 14.0393 120.348 13.7753C120.084 13.5113 119.752 13.3793 119.353 13.3793H117.305Z" fill="white"/>
<defs>
<linearGradient id="paint0_linear" x1="13.752" y1="41.8818" x2="31.8797" y2="18.1283" gradientUnits="userSpaceOnUse">
<stop stop-color="#00D9F9"/>
<stop offset="1" stop-color="#01C5F2"/>
</linearGradient>
<linearGradient id="paint1_linear" x1="31.2535" y1="13.7522" x2="24.3775" y2="30.0046" gradientUnits="userSpaceOnUse">
<stop stop-color="#01DD6A"/>
<stop offset="1" stop-color="#00F073"/>
</linearGradient>
<linearGradient id="paint2_linear" x1="31.2535" y1="13.7522" x2="24.3775" y2="30.0046" gradientUnits="userSpaceOnUse">
<stop stop-color="#01DD6A"/>
<stop offset="1" stop-color="#00F073"/>
</linearGradient>
<linearGradient id="paint3_linear" x1="34.3801" y1="26.8784" x2="14.3771" y2="43.7559" gradientUnits="userSpaceOnUse">
<stop stop-color="#F9273E"/>
<stop offset="1" stop-color="#F84137"/>
</linearGradient>
<linearGradient id="paint4_linear" x1="34.3801" y1="26.8784" x2="14.3771" y2="43.7559" gradientUnits="userSpaceOnUse">
<stop stop-color="#F9273E"/>
<stop offset="1" stop-color="#F84137"/>
</linearGradient>
<linearGradient id="paint5_linear" x1="37.1403" y1="18.9586" x2="33.1301" y2="32.5043" gradientUnits="userSpaceOnUse">
<stop stop-color="#F3C000"/>
<stop offset="1" stop-color="#FFC801"/>
</linearGradient>
<linearGradient id="paint6_linear" x1="37.1403" y1="18.9586" x2="33.1301" y2="32.5043" gradientUnits="userSpaceOnUse">
<stop stop-color="#F3C000"/>
<stop offset="1" stop-color="#FFC801"/>
</linearGradient>
</defs>
</svg>
