<svg width="176" height="51" viewBox="0 0 176 51" fill="none" xmlns="http://www.w3.org/2000/svg">
<rect width="176" height="50.0074" rx="5.00074" fill="#3F4245"/>
<path d="M40.2301 24.5966L15.3076 10.3552C14.0575 9.64082 12.502 10.5435 12.502 11.9834V39.9576C12.502 41.3846 14.0324 42.2887 15.2822 41.6L40.2047 27.8672C41.487 27.1607 41.5012 25.323 40.2301 24.5966Z" fill="url(#paint0_linear)"/>
<path fill-rule="evenodd" clip-rule="evenodd" d="M13.6514 10.2527L32.6483 32.0296L40.2038 27.8664C41.486 27.1598 41.5003 25.3221 40.2292 24.5958L15.3067 10.3543C14.7616 10.0428 14.1583 10.0388 13.6514 10.2527Z" fill="url(#paint1_linear)"/>
<path fill-rule="evenodd" clip-rule="evenodd" d="M15.3067 10.3543L40.2292 24.5958C41.5003 25.3221 41.486 27.1598 40.2038 27.8664L32.6483 32.0296L13.6514 10.2527C14.1583 10.0388 14.7616 10.0428 15.3067 10.3543Z" fill="url(#paint2_linear)"/>
<path fill-rule="evenodd" clip-rule="evenodd" d="M32.4098 20.127L40.2301 24.5957C41.5012 25.322 41.487 27.1598 40.2047 27.8663L15.2822 41.5991C14.7296 41.9036 14.122 41.8967 13.6162 41.6708L32.4098 20.127Z" fill="url(#paint3_linear)"/>
<path fill-rule="evenodd" clip-rule="evenodd" d="M13.6162 41.6708C14.122 41.8967 14.7296 41.9036 15.2822 41.5991L40.2047 27.8663C41.487 27.1598 41.5012 25.322 40.2301 24.5957L32.4098 20.127L13.6162 41.6708Z" fill="url(#paint4_linear)"/>
<path fill-rule="evenodd" clip-rule="evenodd" d="M32.4098 20.127L40.2301 24.5957C41.5012 25.322 41.4869 27.1598 40.2047 27.8663L32.6491 32.0296L27.3379 25.9411L32.4098 20.127Z" fill="url(#paint5_linear)"/>
<path fill-rule="evenodd" clip-rule="evenodd" d="M32.6491 32.0296L40.2047 27.8663C41.4869 27.1598 41.5012 25.322 40.2301 24.5957L32.4098 20.127L27.3379 25.9411L32.6491 32.0296Z" fill="url(#paint6_linear)"/>
<path d="M65.3951 32.3189C65.3951 34.4442 64.7646 36.1374 63.5036 37.3984C62.0867 38.9003 60.2235 39.6513 57.914 39.6513C55.7037 39.6513 53.8334 38.8861 52.3032 37.3559C50.7729 35.8257 50.0078 33.9412 50.0078 31.7026C50.0078 29.4639 50.7729 27.5795 52.3032 26.0492C53.8334 24.519 55.7037 23.7539 57.914 23.7539C59.0333 23.7539 60.0889 23.9523 61.0807 24.349C62.0725 24.7457 62.8872 25.3054 63.5248 26.028L62.1221 27.4307C61.6545 26.8639 61.0453 26.4247 60.2943 26.113C59.5576 25.7871 58.7641 25.6242 57.914 25.6242C56.2562 25.6242 54.8535 26.198 53.7059 27.3457C52.5724 28.5075 52.0056 29.9598 52.0056 31.7026C52.0056 33.4453 52.5724 34.8976 53.7059 36.0595C54.8535 37.2071 56.2562 37.781 57.914 37.781C59.43 37.781 60.6911 37.3559 61.697 36.5058C62.703 35.6557 63.2839 34.4867 63.4398 32.999H57.914V31.1713H65.2888C65.3597 31.568 65.3951 31.9505 65.3951 32.3189Z" fill="white"/>
<path d="M66.3068 34.1042C66.3068 32.5031 66.8098 31.1783 67.8158 30.1298C68.8359 29.0814 70.1182 28.5571 71.6626 28.5571C73.207 28.5571 74.4822 29.0814 75.4882 30.1298C76.5083 31.1783 77.0184 32.5031 77.0184 34.1042C77.0184 35.7194 76.5083 37.0442 75.4882 38.0785C74.4822 39.127 73.207 39.6513 71.6626 39.6513C70.1182 39.6513 68.8359 39.127 67.8158 38.0785C66.8098 37.03 66.3068 35.7053 66.3068 34.1042ZM68.2621 34.1042C68.2621 35.2235 68.588 36.1303 69.2397 36.8246C69.8915 37.5189 70.6991 37.866 71.6626 37.866C72.6261 37.866 73.4337 37.5189 74.0855 36.8246C74.7372 36.1303 75.0631 35.2235 75.0631 34.1042C75.0631 32.999 74.7372 32.0993 74.0855 31.405C73.4195 30.6966 72.6119 30.3424 71.6626 30.3424C70.7133 30.3424 69.9057 30.6966 69.2397 31.405C68.588 32.0993 68.2621 32.999 68.2621 34.1042Z" fill="white"/>
<path d="M77.7744 34.1042C77.7744 32.5031 78.2774 31.1783 79.2833 30.1298C80.3035 29.0814 81.5858 28.5571 83.1302 28.5571C84.6746 28.5571 85.9497 29.0814 86.9557 30.1298C87.9759 31.1783 88.486 32.5031 88.486 34.1042C88.486 35.7194 87.9759 37.0442 86.9557 38.0785C85.9497 39.127 84.6746 39.6513 83.1302 39.6513C81.5858 39.6513 80.3035 39.127 79.2833 38.0785C78.2774 37.03 77.7744 35.7053 77.7744 34.1042ZM79.7297 34.1042C79.7297 35.2235 80.0555 36.1303 80.7073 36.8246C81.3591 37.5189 82.1667 37.866 83.1302 37.866C84.0936 37.866 84.9013 37.5189 85.553 36.8246C86.2048 36.1303 86.5307 35.2235 86.5307 34.1042C86.5307 32.999 86.2048 32.0993 85.553 31.405C84.8871 30.6966 84.0795 30.3424 83.1302 30.3424C82.1809 30.3424 81.3732 30.6966 80.7073 31.405C80.0555 32.0993 79.7297 32.999 79.7297 34.1042Z" fill="white"/>
<path d="M94.5127 37.866C95.4762 37.866 96.2626 37.5189 96.8718 36.8246C97.5094 36.1303 97.8282 35.2235 97.8282 34.1042C97.8282 33.0132 97.5094 32.1135 96.8718 31.405C96.2484 30.6966 95.462 30.3424 94.5127 30.3424C93.5776 30.3424 92.7912 30.6966 92.1536 31.405C91.516 32.1135 91.1972 33.0132 91.1972 34.1042C91.1972 35.2093 91.516 36.1091 92.1536 36.8033C92.7912 37.5118 93.5776 37.866 94.5127 37.866ZM94.4489 44.2419C93.868 44.2419 93.3225 44.164 92.8125 44.0081C92.3024 43.8665 91.8348 43.661 91.4098 43.3918C90.9989 43.1226 90.6446 42.8038 90.3471 42.4354C90.0496 42.067 89.8229 41.6561 89.667 41.2027L91.516 40.4376C91.7285 41.0469 92.0969 41.5357 92.6212 41.9041C93.1454 42.2725 93.7547 42.4567 94.4489 42.4567C95.5116 42.4567 96.3405 42.1379 96.9356 41.5003C97.5307 40.8627 97.8282 39.9842 97.8282 38.8649V37.866H97.7432C97.3748 38.4186 96.8718 38.8578 96.2342 39.1837C95.6108 39.4954 94.9307 39.6513 94.1939 39.6513C92.8337 39.6513 91.6648 39.1199 90.6871 38.0573C89.7237 36.9663 89.2419 35.6486 89.2419 34.1042C89.2419 32.5598 89.7237 31.2492 90.6871 30.1724C91.6648 29.0955 92.8337 28.5571 94.1939 28.5571C94.9307 28.5571 95.6108 28.7201 96.2342 29.0459C96.8718 29.3577 97.3748 29.7898 97.7432 30.3424H97.8282V28.8972H99.6985V38.8649C99.6985 40.5368 99.2238 41.8474 98.2745 42.7967C97.311 43.7602 96.0359 44.2419 94.4489 44.2419Z" fill="white"/>
<path d="M103.613 24.094V39.3112H101.657V24.094H103.613Z" fill="white"/>
<path d="M122.976 33.1478V39.3112H121.021V24.094H126.206C127.524 24.094 128.643 24.5332 129.564 25.4117C130.5 26.2901 130.967 27.3599 130.967 28.6209C130.967 29.9102 130.5 30.9871 129.564 31.8514C128.658 32.7156 127.538 33.1478 126.206 33.1478H122.976ZM122.976 25.9642V31.2775H126.249C127.028 31.2775 127.673 31.0154 128.183 30.4912C128.707 29.9669 128.969 29.3435 128.969 28.6209C128.969 27.9124 128.707 27.2961 128.183 26.7719C127.673 26.2334 127.028 25.9642 126.249 25.9642H122.976Z" fill="white"/>
<path d="M134.311 24.094V39.3112H132.356V24.094H134.311Z" fill="white"/>
<path d="M137.589 36.1232C137.589 36.6333 137.801 37.0584 138.226 37.3984C138.665 37.7385 139.176 37.9085 139.756 37.9085C140.578 37.9085 141.308 37.6039 141.946 36.9946C142.597 36.3854 142.923 35.6698 142.923 34.848C142.314 34.3663 141.464 34.1254 140.373 34.1254C139.579 34.1254 138.913 34.3167 138.375 34.6993C137.851 35.0818 137.589 35.5565 137.589 36.1232ZM140.118 28.5571C141.563 28.5571 142.704 28.9468 143.54 29.726C144.376 30.4912 144.793 31.5467 144.793 32.8928V39.3112H142.923V37.866H142.838C142.031 39.0562 140.954 39.6513 139.608 39.6513C138.46 39.6513 137.497 39.3112 136.717 38.6311C135.952 37.951 135.57 37.1009 135.57 36.0807C135.57 35.0039 135.973 34.1467 136.781 33.5091C137.603 32.8715 138.694 32.5527 140.054 32.5527C141.216 32.5527 142.172 32.7652 142.923 33.1903V32.744C142.923 32.0639 142.654 31.49 142.116 31.0225C141.577 30.5407 140.947 30.2999 140.224 30.2999C139.133 30.2999 138.269 30.7604 137.631 31.6813L135.91 30.5974C136.859 29.2372 138.262 28.5571 140.118 28.5571Z" fill="white"/>
<path d="M155.675 28.8972L149.15 43.9019H147.131L149.554 38.6524L145.261 28.8972H147.386L150.489 36.3783H150.532L153.55 28.8972H155.675Z" fill="white"/>
<path fill-rule="evenodd" clip-rule="evenodd" d="M110.142 39.6513C108.612 39.6513 107.351 39.127 106.359 38.0785C105.367 37.03 104.871 35.7053 104.871 34.1042C104.871 32.5173 105.353 31.1996 106.317 30.1511C107.28 29.0884 108.513 28.5571 110.015 28.5571C111.559 28.5571 112.785 29.0601 113.691 30.0661C114.24 30.6569 114.625 31.3911 114.847 32.2686L107.427 36.3792C107.558 36.5777 107.712 36.7616 107.889 36.9309C108.541 37.5543 109.32 37.866 110.227 37.866C111.474 37.866 112.452 37.2426 113.16 35.9957L114.903 36.8458C114.435 37.7243 113.783 38.4115 112.947 38.9074C112.126 39.4033 111.191 39.6513 110.142 39.6513ZM109.972 30.3424C110.865 30.3424 111.573 30.5832 112.097 31.065C112.22 31.1717 112.331 31.285 112.428 31.405L106.73 34.811C106.359 33.0228 106.908 31.9919 108.059 31.0225C108.598 30.5691 109.235 30.3424 109.972 30.3424Z" fill="white"/>
<path d="M52.8476 9.9286V11.6483C52.8476 13.5566 52.5459 15.0198 51.9425 16.0381H55.925V9.9286H52.8476ZM57.871 18.7534H56.8753V17.0337H51.0034V18.7534H50.0078V16.0381H50.7658C51.1053 15.6911 51.3693 15.1217 51.5578 14.3297C51.7464 13.5302 51.8369 12.6288 51.8293 11.6257V8.93298H56.9659V16.0381H57.871V18.7534Z" fill="white"/>
<path d="M66.9631 12.9833C66.9631 14.1826 66.5633 15.1858 65.7638 15.9928C64.9568 16.8074 63.9687 17.2147 62.7996 17.2147C61.6229 17.2147 60.6349 16.8074 59.8353 15.9928C59.0358 15.1858 58.6361 14.1826 58.6361 12.9833C58.6361 11.7841 59.0358 10.7809 59.8353 9.97385C60.6349 9.15925 61.6229 8.75195 62.7996 8.75195C63.9762 8.75195 64.9643 9.16302 65.7638 9.98517C66.5633 10.7922 66.9631 11.7916 66.9631 12.9833ZM59.6996 12.9833C59.6996 13.9186 59.9937 14.6917 60.5821 15.3027C61.1779 15.9136 61.9171 16.2191 62.7996 16.2191C63.6821 16.2191 64.4175 15.9136 65.0058 15.3027C65.6016 14.6993 65.8996 13.9262 65.8996 12.9833C65.8996 12.0405 65.6016 11.2674 65.0058 10.664C64.4175 10.053 63.6821 9.74758 62.7996 9.74758C61.9171 9.74758 61.1779 10.053 60.5821 10.664C59.9937 11.2749 59.6996 12.0481 59.6996 12.9833Z" fill="white"/>
<path d="M71.9821 17.2147C70.7828 17.2147 69.7797 16.8112 68.9726 16.0042C68.1731 15.1971 67.7734 14.1902 67.7734 12.9833C67.7734 11.7765 68.1731 10.7734 68.9726 9.97385C69.7721 9.15925 70.7753 8.75195 71.9821 8.75195C73.204 8.75195 74.1959 9.19319 74.9577 10.0757L74.211 10.7998C73.6302 10.0983 72.8872 9.74758 71.9821 9.74758C71.0846 9.74758 70.3341 10.0493 69.7307 10.6527C69.1348 11.2486 68.8369 12.0254 68.8369 12.9833C68.8369 13.9413 69.1348 14.7181 69.7307 15.314C70.3341 15.9174 71.0846 16.2191 71.9821 16.2191C72.9249 16.2191 73.7433 15.8231 74.4372 15.0312L75.1953 15.7666C74.8106 16.2267 74.3392 16.5849 73.781 16.8414C73.2229 17.0903 72.6232 17.2147 71.9821 17.2147Z" fill="white"/>
<path d="M79.1723 9.9286V17.0337H78.1314V9.9286H75.8686V8.93298H81.435V9.9286H79.1723Z" fill="white"/>
<path d="M87.2266 8.93298H88.4485L85.3372 15.7666C84.9223 16.732 84.2925 17.2147 83.4478 17.2147C83.2139 17.2147 82.9462 17.1544 82.6445 17.0337L82.916 16.072C83.097 16.1701 83.2781 16.2191 83.4591 16.2191C83.6929 16.2191 83.8702 16.1739 83.9908 16.0834C84.1191 15.9928 84.2435 15.8194 84.3642 15.5629L84.647 14.9633L81.9091 8.93298H83.131L85.1562 13.764H85.2014L87.2266 8.93298Z" fill="white"/>
<path d="M90.4348 17.0337H89.3939V8.93298H95.2545V17.0337H94.2136V9.9286H90.4348V17.0337Z" fill="white"/>
<path d="M97.9258 17.0337H96.8849V8.93298H97.9258V12.4063H101.976V8.93298H103.017V17.0337H101.976V13.3793H97.9258V17.0337Z" fill="white"/>
<path d="M112.462 12.9833C112.462 14.1826 112.062 15.1858 111.262 15.9928C110.455 16.8074 109.467 17.2147 108.298 17.2147C107.122 17.2147 106.133 16.8074 105.334 15.9928C104.534 15.1858 104.135 14.1826 104.135 12.9833C104.135 11.7841 104.534 10.7809 105.334 9.97385C106.133 9.15925 107.122 8.75195 108.298 8.75195C109.475 8.75195 110.463 9.16302 111.262 9.98517C112.062 10.7922 112.462 11.7916 112.462 12.9833ZM105.198 12.9833C105.198 13.9186 105.492 14.6917 106.081 15.3027C106.677 15.9136 107.416 16.2191 108.298 16.2191C109.181 16.2191 109.916 15.9136 110.504 15.3027C111.1 14.6993 111.398 13.9262 111.398 12.9833C111.398 12.0405 111.1 11.2674 110.504 10.664C109.916 10.053 109.181 9.74758 108.298 9.74758C107.416 9.74758 106.677 10.053 106.081 10.664C105.492 11.2749 105.198 12.0481 105.198 12.9833Z" fill="white"/>
<path d="M116.264 17.0337V8.93298H119.195C119.836 8.93298 120.386 9.14417 120.847 9.56655C121.307 9.9814 121.537 10.5056 121.537 11.1392C121.537 11.9387 121.171 12.5006 120.439 12.825V12.8702C120.854 13.006 121.186 13.2436 121.435 13.583C121.684 13.9149 121.808 14.2958 121.808 14.7257C121.808 15.3894 121.567 15.94 121.084 16.3775C120.616 16.815 120.039 17.0337 119.353 17.0337H116.264ZM117.305 9.9286V12.4063H119.195C119.564 12.4063 119.874 12.2819 120.122 12.033C120.371 11.7765 120.496 11.4861 120.496 11.1618C120.496 10.845 120.375 10.5584 120.134 10.302C119.892 10.0531 119.594 9.9286 119.24 9.9286H117.305ZM117.305 13.3793V16.0381H119.398C119.775 16.0381 120.096 15.9061 120.36 15.6421C120.616 15.3781 120.745 15.0651 120.745 14.7031C120.745 14.3486 120.613 14.0393 120.349 13.7753C120.085 13.5113 119.753 13.3793 119.353 13.3793H117.305Z" fill="white"/>
<defs>
<linearGradient id="paint0_linear" x1="13.7521" y1="41.8818" x2="31.8798" y2="18.1283" gradientUnits="userSpaceOnUse">
<stop stop-color="#00D9F9"/>
<stop offset="1" stop-color="#01C5F2"/>
</linearGradient>
<linearGradient id="paint1_linear" x1="31.2538" y1="13.7513" x2="24.3778" y2="30.0037" gradientUnits="userSpaceOnUse">
<stop stop-color="#01DD6A"/>
<stop offset="1" stop-color="#00F073"/>
</linearGradient>
<linearGradient id="paint2_linear" x1="31.2538" y1="13.7513" x2="24.3778" y2="30.0037" gradientUnits="userSpaceOnUse">
<stop stop-color="#01DD6A"/>
<stop offset="1" stop-color="#00F073"/>
</linearGradient>
<linearGradient id="paint3_linear" x1="34.3802" y1="26.8784" x2="14.3772" y2="43.7559" gradientUnits="userSpaceOnUse">
<stop stop-color="#F9273E"/>
<stop offset="1" stop-color="#F84137"/>
</linearGradient>
<linearGradient id="paint4_linear" x1="34.3802" y1="26.8784" x2="14.3772" y2="43.7559" gradientUnits="userSpaceOnUse">
<stop stop-color="#F9273E"/>
<stop offset="1" stop-color="#F84137"/>
</linearGradient>
<linearGradient id="paint5_linear" x1="37.1402" y1="18.9586" x2="33.13" y2="32.5043" gradientUnits="userSpaceOnUse">
<stop stop-color="#F3C000"/>
<stop offset="1" stop-color="#FFC801"/>
</linearGradient>
<linearGradient id="paint6_linear" x1="37.1402" y1="18.9586" x2="33.13" y2="32.5043" gradientUnits="userSpaceOnUse">
<stop stop-color="#F3C000"/>
<stop offset="1" stop-color="#FFC801"/>
</linearGradient>
</defs>
</svg>
