<svg width="32" height="32" viewBox="0 0 32 32" fill="none" xmlns="http://www.w3.org/2000/svg">
<g clip-path="url(#clip0)">
<path fill-rule="evenodd" clip-rule="evenodd" d="M17.6714 0.0398279C17.1405 0.0500821 16.5913 0.0606895 16.0232 0.0606895C15.4158 0.0606895 14.8294 0.0444465 14.2633 0.0287668C13.188 -0.00101589 12.1862 -0.0287662 11.2535 0.0606895C3.06681 0.0606895 0.076958 2.89495 0.076958 10.7598C-0.036148 11.7627 -0.00149122 12.8528 0.0361493 14.0369C0.0561331 14.6655 0.076958 15.3205 0.076958 16.0031C0.076958 16.5078 0.0678655 16.9975 0.0590443 17.4726C0.0421684 18.3815 0.0262851 19.237 0.076958 20.0418C0.076958 27.765 2.07017 31.9454 11.2535 31.9454C12.179 32.0258 13.177 32.001 14.2529 31.9742C14.821 31.9601 15.4109 31.9454 16.0232 31.9454C16.5935 31.9454 17.1442 31.9559 17.6761 31.966C18.6868 31.9853 19.6294 32.0032 20.508 31.9454C29.1218 31.9454 31.9694 28.8987 31.9694 20.0418C32.0146 19.2398 32.0005 18.3859 31.9854 17.4767C31.9776 17.0008 31.9694 16.5097 31.9694 16.0031C31.9694 15.6766 31.9734 15.2042 31.9779 14.6751C31.9887 13.4007 32.0022 11.7976 31.9694 11.1141C31.9694 2.1864 28.8371 0.0606895 20.508 0.0606895C19.6262 0.00207443 18.682 0.0203112 17.6714 0.0398279ZM17.7444 21.6102C17.7504 22.0464 17.5346 22.3944 17.0069 22.3944C16.8855 22.3944 16.7601 22.3957 16.6312 22.397C15.0148 22.4131 12.8266 22.4349 10.6146 20.0733C8.16549 17.4591 5.60026 12.2151 5.60026 11.6992C5.60026 11.394 5.85592 11.2569 6.2823 11.2569H9.10318C9.76833 11.2569 9.89094 11.5477 10.0581 11.9441C10.0782 11.9919 10.099 12.0412 10.1215 12.0917C10.9872 14.0468 13.0654 17.9725 13.6183 15.7817C13.9355 14.5234 14.0664 11.61 12.7049 11.3589C11.9327 11.2166 13.2916 10.3997 15.2615 10.3997C15.7537 10.3997 16.2841 10.4512 16.8292 10.5755C17.8276 10.8052 17.831 11.2483 17.818 11.8946C17.8059 12.4934 17.7789 13.0443 17.7546 13.541C17.6795 15.0739 17.6298 16.09 18.1213 16.4039C18.7436 16.8025 20.3824 14.1968 21.2447 12.1851C21.276 12.1122 21.304 12.0424 21.3306 11.9761C21.5065 11.5382 21.6194 11.2569 22.2006 11.2569H25.6506C27.4169 11.2569 25.5031 13.7137 23.958 15.6971C23.9232 15.7418 23.8885 15.7863 23.8541 15.8305C22.6097 17.4274 22.6629 17.4762 24.0772 18.7743L24.1254 18.8185C25.1688 19.7768 26.4003 21.0822 26.4003 21.8219C26.4003 22.1716 26.1247 22.3944 25.4244 22.3944H22.6512C21.4705 22.3944 21.0283 21.8921 20.3294 21.0983C20.1014 20.8392 19.846 20.5491 19.5287 20.2353C18.3631 19.0825 17.7175 19.967 17.7444 21.6102Z" fill="#4E6F93"/>
</g>
<defs>
<clipPath id="clip0">
<rect width="32" height="32" fill="white"/>
</clipPath>
</defs>
</svg>
