<svg width="33" height="32" viewBox="0 0 33 32" fill="none" xmlns="http://www.w3.org/2000/svg">
<path fill-rule="evenodd" clip-rule="evenodd" d="M3.75399 0.800171C2.30662 0.800171 1.1333 1.97349 1.1333 3.42086V28.5795C1.1333 30.0268 2.30662 31.2002 3.75399 31.2002H17.7636V19.1796H14.2376V14.5672H17.7636V11.1078C17.7636 9.57873 18.2896 8.08334 19.3917 7.0021C20.4937 5.92085 22.0817 5.34233 23.6403 5.34233H27.1664V9.95474H23.6403C23.3286 9.95474 23.0297 10.0762 22.8093 10.2925C22.5888 10.5087 22.465 10.802 22.465 11.1078V14.5672H27.1664V19.1796H22.465V31.2002H28.9126C30.36 31.2002 31.5333 30.0268 31.5333 28.5795V3.42086C31.5333 1.97349 30.36 0.800171 28.9126 0.800171H3.75399Z" fill="#3B5999"/>
</svg>
