<svg width="74" height="41" viewBox="0 0 74 41" fill="none" xmlns="http://www.w3.org/2000/svg">
<g clip-path="url(#clip0)">
<path d="M46.9164 32.7885C46.4392 34.1633 45.6281 35.3928 44.5585 36.3626C42.9896 37.7941 40.9662 38.6641 38.8909 39.0323C34.6294 39.8056 30.1623 38.7883 26.0884 37.5341C24.1261 36.9311 22.347 36.2821 20.7916 35.6469C20.0094 35.3385 19.2995 35.0186 18.5761 34.7631C17.9158 34.5238 17.2345 34.3496 16.5414 34.243C15.8565 34.1425 15.1627 34.1201 14.4729 34.1763C14.8244 33.9976 15.1622 33.7922 15.4834 33.5618C16.5098 32.7839 17.2626 31.5711 17.769 30.2086L17.8233 30.0751C18.5286 28.1985 18.6579 26.148 18.194 24.195C17.6911 22.1588 16.5863 20.3288 15.029 18.9523C13.3742 17.4011 11.3395 16.7084 9.696 15.1319C8.98387 14.4415 8.28757 13.5531 8.15419 12.3702C8.10445 11.7189 8.16775 10.9502 8.57468 10.4945C8.82788 10.1908 9.30263 10.101 9.5287 10.4945C9.75478 10.8881 9.60557 10.9548 9.60557 11.4151C9.55398 11.7839 9.57456 12.1594 9.66613 12.52C9.75769 12.8806 9.91844 13.2192 10.1391 13.5163C10.6432 14.2459 11.6312 14.8512 12.1737 13.9881C12.4789 13.5025 12.3523 13.3828 12.7141 12.8765C12.8949 12.4968 13.2182 12.5313 13.3923 12.1493C13.8195 11.4312 13.8941 10.4968 13.9552 9.6177C14.3282 9.54866 14.6515 9.28169 14.9725 9.51184C14.9544 8.94338 14.9273 8.75696 14.6108 8.31969C14.1586 7.6891 13.494 7.29096 12.9446 6.76163C10.9236 4.81922 9.12856 2.61905 6.02686 2.96426C1.65011 3.46598 -0.224024 9.07687 0.0382191 12.8604C0.264291 16.2573 1.45117 19.4126 2.86864 22.2457C3.85657 24.2042 5.05023 26.02 5.75105 28.1949C5.9952 29.0165 6.20319 29.9508 5.95451 30.8139C5.9141 31.0339 5.81082 31.2368 5.6576 31.3973C5.50437 31.5578 5.30803 31.6687 5.09318 31.716C4.69981 31.8449 4.14368 31.6723 3.92891 32.2454C3.89668 32.4274 3.92017 32.615 3.99619 32.783C4.07221 32.9509 4.19709 33.0911 4.35393 33.1844C5.14744 33.5802 6.13311 33.2327 6.61464 32.3029C7.13354 31.1642 7.29156 29.8894 7.06678 28.6551C6.76159 27.0441 5.90704 25.7346 5.49785 24.1766C5.4255 23.8452 5.33055 23.3181 5.63575 23.134C6.02685 23.0512 6.36144 23.4401 6.59203 23.8014C7.22503 24.8647 7.27025 26.264 7.34259 27.5459C7.39911 29.1085 7.44885 30.7863 8.15871 32.1257C8.52422 32.8144 9.05424 33.3982 9.69985 33.8234C10.3455 34.2485 11.0859 34.5013 11.8527 34.5583C12.913 34.6435 13.962 34.5583 15.0177 34.7332C16.113 34.9132 17.1783 35.2478 18.1827 35.7274C18.8135 36.0381 19.5233 36.4179 20.2965 36.7953C22.0256 37.6443 23.8 38.3942 25.6114 39.0415C27.7699 39.8217 29.9961 40.392 32.2602 40.7446C34.6837 41.0806 37.34 41.1818 40.0258 40.5144C42.248 39.9782 44.4025 38.8482 45.9036 37.0623C46.6586 36.1711 47.2657 35.1606 47.7009 34.0704C47.728 33.9991 47.8071 33.7229 47.9066 33.3616C47.5605 33.2009 47.2291 33.0091 46.9164 32.7885Z" fill="url(#paint0_linear)"/>
<path d="M28.3449 12.3449C28.259 12.2805 27.4406 11.7603 27.3818 11.7926C28.2386 11.2793 29.161 10.4301 29.2447 9.38987C29.2945 8.92846 29.2302 8.46169 29.0576 8.03202C28.8851 7.60235 28.6098 7.2234 28.2567 6.92964C28.1127 6.48034 27.8193 6.09622 27.427 5.84336C26.9743 5.57471 26.4565 5.44075 25.9327 5.45672C25.3839 5.47733 24.8386 5.55444 24.305 5.68687C23.6101 5.84193 22.9241 6.03554 22.25 6.26682C21.642 6.46968 21.0503 6.71974 20.4799 7.01479C19.978 7.28022 19.7271 7.51574 19.7271 7.72133C19.7893 7.88921 19.8796 8.04492 19.9938 8.18162C19.9396 8.41176 19.7677 8.83062 19.8582 9.06537C19.8989 9.17583 20.4098 9.4451 20.4098 9.4382C20.4899 9.20388 20.6411 9.00157 20.8416 8.86054C21.1521 8.59296 21.547 8.44833 21.9539 8.45318C22.146 8.45318 22.241 8.62119 22.241 8.9572C22.241 10.4876 22.0578 11.9997 21.9991 13.5232L21.8793 16.568C21.8521 17.2815 21.5108 18.5473 22.3902 18.8695C22.6705 18.9707 23.3555 19.2055 23.6358 19.0375C23.8619 18.9017 23.8619 18.2872 23.8958 18.0709C24.0608 18.1606 25.1505 19.362 27.1625 18.3171C27.9357 17.9167 28.745 17.3045 29.1316 16.5381C29.8302 15.1411 29.6448 13.2885 28.3449 12.3449ZM23.6494 7.91695C23.8706 7.81442 24.097 7.72377 24.3276 7.64538C25.1528 7.36691 25.9101 7.08153 26.8008 7.21502C26.9981 7.2351 27.1891 7.29703 27.3615 7.39683C28.4195 8.07345 27.002 9.765 26.4188 10.2552C25.8355 10.7454 24.9945 11.1942 24.2553 11.1942C23.6381 11.1942 24.2417 8.95029 24.4452 8.61659C24.4333 8.53336 24.4034 8.45385 24.3576 8.38381C24.3119 8.31376 24.2514 8.25492 24.1807 8.21153C24.024 8.07753 23.8437 7.97521 23.6494 7.91005V7.91695ZM27.4384 15.2263C27.4111 15.3216 27.3786 15.4154 27.3411 15.5071C27.2199 15.8268 27.0257 16.1125 26.7745 16.3406C26.5233 16.5687 26.2223 16.7326 25.8965 16.8189C25.3969 16.9478 24.0066 17.1411 23.932 16.5611C23.8574 15.9812 23.8755 13.8247 23.8958 13.1895C23.9094 12.7822 25.7044 12.6924 26.5295 12.9801C27.4881 13.3023 27.687 14.3356 27.4384 15.2194V15.2263ZM74.0091 15.0491C74.0091 14.9708 73.9842 14.934 73.9345 14.934C73.8683 15.0089 73.8134 15.0935 73.7717 15.1849C73.5847 15.5638 73.3482 15.9153 73.0686 16.2297C72.9488 16.3517 72.7363 16.5657 72.5554 16.5381C72.3294 16.5036 72.2254 16.2159 72.1666 16.0272C72.09 15.7129 72.064 15.388 72.0897 15.0652C72.1345 14.3912 72.242 13.7231 72.4108 13.0699C72.4695 12.8052 72.5306 12.5405 72.5894 12.2736C72.6097 12.1838 72.6052 12.0917 72.6233 12.0043C72.6504 11.8547 72.7657 11.7419 72.6956 11.5785C72.6255 11.4151 72.4266 11.3116 72.3068 11.231C71.9757 11.0327 71.6046 10.9138 71.2216 10.8835C71.0227 10.8559 70.9074 10.8444 70.869 10.8444C70.8017 10.8356 70.7403 10.801 70.6971 10.7477C70.2156 10.2552 69.7816 10.0573 69.3927 10.1562C67.6859 10.5797 67.3784 12.8443 67.1523 14.2988C67.1139 14.529 67.0709 14.7821 67.037 15.0261C66.9085 15.32 66.7644 15.6065 66.6052 15.8845C66.4877 16.0801 66.3679 16.2734 66.2435 16.4645C66.1667 16.5818 65.9496 16.8327 65.7462 16.8005C65.4003 16.7452 65.294 16.522 65.1787 16.2366C65.1254 16.0729 65.1047 15.9 65.1177 15.728C65.1331 14.9621 65.2087 14.1986 65.3438 13.445C65.4636 12.7845 65.875 11.9813 65.7959 11.3093C65.753 10.9157 65.0521 10.7523 64.756 10.605C64.5299 10.4992 64.3762 10.4301 64.1976 10.6441C64.0583 10.8121 63.8854 10.9478 63.6905 11.0423C63.4956 11.1367 63.2831 11.1877 63.0672 11.1919C62.9406 11.1919 62.8773 11.1597 62.8773 11.0952V10.964C62.8773 10.536 63.187 9.82944 62.8886 9.49343C62.5902 9.15742 62.077 9.38526 61.8103 9.65223C61.3174 10.1447 61.4825 10.9065 61.4486 11.5348C61.4386 11.9959 61.5298 12.4535 61.7153 12.8742C61.7428 12.9348 61.7611 12.9992 61.7696 13.0653C61.7696 13.0653 61.7583 13.132 61.7447 13.2425C61.6701 13.8086 61.6791 14.3679 61.4712 14.9133C61.2723 15.3701 61.0046 15.7926 60.6776 16.1653C59.9994 16.9363 59.3484 17.1848 58.7267 17.1848C58.5806 17.1808 58.4377 17.1408 58.3101 17.0683C58.1825 16.9957 58.0741 16.8928 57.9942 16.7683C57.7831 16.4881 57.6723 16.1431 57.6799 15.7901C57.6799 15.636 57.7365 15.56 57.8517 15.56C58.1215 15.5976 58.3934 15.6169 58.6656 15.6175C59.4953 15.5094 60.2006 14.6509 60.5036 13.9053C60.7327 13.3239 60.7925 12.6877 60.6758 12.0726C60.5592 11.4576 60.271 10.8897 59.8457 10.437C59.7405 10.332 59.6138 10.2519 59.4747 10.2026C59.3355 10.1533 59.1874 10.1359 59.0409 10.1516C58.5873 10.1444 58.1353 10.2073 57.7003 10.3381C57.5059 10.3979 57.3205 10.4807 57.1283 10.5452C57.0876 10.5613 56.6762 10.6395 56.6762 10.6557C56.6242 10.7983 56.5745 10.9617 56.5225 11.1413C56.1829 12.3099 55.9654 13.5118 55.8736 14.7269C55.8736 14.7936 55.7877 14.8903 55.7629 14.957C55.6249 15.2222 55.4539 15.4682 55.2542 15.6889C55.0634 15.944 54.8557 16.1854 54.6325 16.4115C54.2173 16.8778 53.6379 17.1582 53.0206 17.1917C52.8745 17.1877 52.7316 17.1477 52.604 17.0752C52.4765 17.0026 52.3681 16.8997 52.2881 16.7752C52.0771 16.495 51.9663 16.15 51.9739 15.7971C51.9739 15.606 52.0711 15.5669 52.2407 15.5669C52.4461 15.601 52.655 15.6088 52.8624 15.5899C53.9588 15.461 54.7139 14.4783 54.9513 13.4381C55.142 12.5751 54.9883 11.6703 54.524 10.9226C54.389 10.6986 54.2222 10.4962 54.0289 10.3219C53.9626 10.2532 53.8823 10.2003 53.7935 10.1668C53.7048 10.1334 53.6099 10.1204 53.5157 10.1286L52.9053 10.1862C52.493 10.2107 52.0864 10.296 51.6981 10.4393C51.4646 10.5438 51.2182 10.6151 50.9656 10.6511C50.9136 10.7937 50.8616 10.9571 50.8119 11.1367C50.5589 12.0286 50.3722 12.9387 50.2535 13.8592C50.2535 13.8731 50.2535 13.8869 50.2535 13.9007C50.2063 14.2786 50.097 14.6459 49.9302 14.9869C49.7454 15.3853 49.5081 15.7562 49.2249 16.0893C49.0621 16.2573 48.9219 16.3195 48.7252 16.1906C48.0651 15.7441 48.3613 14.7568 48.4992 14.1193C48.7252 13.1987 48.931 12.2459 49.1028 11.3208L49.1412 11.109C49.1412 10.1493 47.726 10.1885 47.1427 10.4485C46.876 10.5667 46.7426 10.6771 46.7426 10.7799C46.7426 10.8904 46.8262 10.9848 46.8353 11.0906C46.8208 11.2327 46.7825 11.3713 46.7223 11.5003C46.5324 12.1493 46.3176 12.7914 46.1006 13.4335C45.9252 14.0219 45.706 14.5958 45.445 15.1504C45.4698 13.0031 45.8519 10.8927 45.9627 8.75467C45.992 8.18852 46.2656 7.6776 46.3809 7.12986C46.4476 6.67596 46.3495 6.21287 46.1051 5.82725C45.714 5.23118 44.7193 5.52116 44.1993 5.76971C44.1043 5.81344 44.0569 5.85027 44.0569 5.87558C44.4954 9.73278 43.4623 13.5854 43.8308 17.4541C43.8396 17.6374 43.8951 17.8153 43.9918 17.9702C44.0885 18.1252 44.2231 18.2519 44.3824 18.3378C44.5123 18.4745 44.6655 18.586 44.8346 18.6669C45.0874 18.6413 45.3253 18.5331 45.5128 18.3585C45.7388 18.0778 45.5761 17.6796 45.6235 17.3528C45.7404 16.7584 45.8983 16.1732 46.096 15.6014C46.2168 15.1873 46.3594 14.7801 46.5233 14.3817C46.555 14.3057 46.6929 13.8685 46.7878 13.9076C46.8828 13.9467 46.8217 14.0963 46.8172 14.1561C46.7946 14.5865 46.7358 15.0123 46.7109 15.4403C46.6476 16.5151 46.8149 17.9535 48.2392 17.7095C48.8473 17.606 49.4848 17.0628 49.8805 16.6026C49.9768 16.498 50.0534 16.3763 50.1065 16.2435C50.1298 16.2459 50.1533 16.2459 50.1766 16.2435C50.1995 16.7728 50.3863 17.2811 50.7102 17.6957C51.0181 18.1176 51.4331 18.4462 51.9106 18.6462C52.4716 18.8042 53.0708 18.7357 53.5835 18.4552C53.987 18.2633 54.3664 18.023 54.7139 17.7395C55.0246 17.488 55.3033 17.198 55.5436 16.8764C55.6496 16.7348 55.7377 16.5802 55.8058 16.4161C55.8397 16.3885 55.8736 16.3563 55.9053 16.3264C55.9179 16.6227 55.9854 16.914 56.1042 17.1848C56.2766 17.5636 56.5336 17.8961 56.8547 18.1559C57.1758 18.4156 57.5521 18.5953 57.9535 18.6807C58.8193 18.8257 59.6151 18.3793 60.282 17.8637C61.3591 16.9792 62.1241 15.7618 62.4614 14.3955C62.4975 14.2597 62.7372 12.8351 62.8185 12.8328C63.1667 12.8328 63.4968 12.5727 63.6256 12.9847C63.7025 13.231 63.438 13.8546 63.3995 14.1147C63.1735 15.3989 62.805 18.2573 64.7741 18.3908C65.5924 18.4506 66.3204 17.5715 66.8087 16.9984C66.8873 16.9114 66.9487 16.8098 66.9896 16.6992C66.9965 16.6682 67.0011 16.6366 67.0031 16.6049C67.0456 17.078 67.1875 17.5364 67.4191 17.9489C67.6904 18.4299 68.2782 18.9132 68.8411 18.6554C69.5193 18.3447 69.8448 17.7786 70.1975 17.1549C70.3173 16.9248 70.4032 16.7867 70.453 16.7084C70.5747 17.0765 70.8043 17.3978 71.1109 17.629C71.3063 17.7606 71.5217 17.8586 71.7484 17.919C72.0845 17.9243 72.4149 17.8308 72.7001 17.6497C72.9665 17.4788 73.2071 17.2695 73.4145 17.0283C73.65 16.7613 73.8293 16.448 73.9413 16.1077C74.0123 15.7574 74.0291 15.3978 73.991 15.0422L74.0091 15.0491ZM57.8879 13.5693L58.2112 12.101C58.2338 12.002 58.4621 10.8559 58.6294 10.9502C58.7438 10.9932 58.8462 11.0638 58.9277 11.156C59.0092 11.2482 59.0675 11.3593 59.0974 11.4796C59.2051 11.9692 59.2113 12.4764 59.1155 12.9686C59.0296 13.5094 58.9279 14.1653 58.5978 14.6141C58.5246 14.7209 58.4201 14.8014 58.2994 14.8443C58.1683 14.8857 57.7139 14.7936 57.7139 14.5957C57.7325 14.2463 57.7879 13.8998 57.8789 13.5624L57.8879 13.5693ZM52.1186 13.8869C52.2768 13.0606 52.4396 12.2206 52.6702 11.4151C52.7719 11.0607 52.8533 10.9019 52.9166 10.941L53.0703 11.017C53.1386 11.046 53.1988 11.0916 53.2457 11.1497C53.2926 11.2079 53.3247 11.2769 53.3394 11.3507C53.4518 11.8417 53.4733 12.3498 53.4027 12.8489C53.3699 13.1464 53.3155 13.4411 53.2399 13.7304C53.1742 14.0033 53.0754 14.2669 52.946 14.5152C52.9107 14.6101 52.8492 14.6927 52.7691 14.7531C52.6889 14.8135 52.5934 14.8491 52.4939 14.8558C52.3831 14.8491 52.2755 14.816 52.1796 14.7591C52.0598 14.6947 51.9988 14.6348 51.9988 14.5842C52.0235 14.3476 52.0605 14.1126 52.1095 13.88L52.1186 13.8869ZM70.6361 12.5428C70.6022 12.7477 70.557 12.9479 70.5298 13.132C70.4439 13.7027 70.3716 14.2827 70.2676 14.8443C70.1999 15.2609 70.0823 15.6674 69.9172 16.0548C69.7354 16.4289 69.5116 16.7803 69.2503 17.102C69.0039 17.102 68.9021 16.6417 68.8682 16.4507C68.823 16.0893 68.823 15.7235 68.8682 15.3621C68.8987 14.9655 68.953 14.5712 69.031 14.1814C69.1484 13.5862 69.3187 13.0031 69.5397 12.4393C69.6278 12.2091 69.7295 11.9974 69.82 11.7742C69.8584 11.6775 69.9488 11.3668 70.0822 11.3668C70.1888 11.3583 70.2955 11.383 70.3879 11.4377C70.4804 11.4924 70.5544 11.5744 70.5999 11.6729C70.6815 11.9534 70.6909 12.2506 70.6271 12.5359L70.6361 12.5428ZM43.6974 21.9856C42.8361 21.0834 43.9597 19.5047 45.038 20.1859C45.2038 20.2868 45.3422 20.4282 45.4408 20.5973C45.5394 20.7664 45.595 20.9578 45.6026 21.1543C45.6102 21.3508 45.5696 21.5461 45.4845 21.7226C45.3993 21.8991 45.2723 22.0512 45.1149 22.1651C44.8953 22.3052 44.6352 22.3643 44.378 22.3325C44.1208 22.3006 43.8821 22.1798 43.7019 21.9902L43.6974 21.9856ZM42.4608 12.8167C42.4744 12.5866 42.4947 12.3564 42.5151 12.1447C42.5346 11.9263 42.5864 11.7121 42.6688 11.5095C42.7211 11.4114 42.75 11.3022 42.7531 11.1906C42.7562 11.0791 42.7336 10.9684 42.6869 10.8674C42.5218 10.5935 42.185 10.4784 41.9024 10.3726C41.5836 10.2506 41.3417 10.5843 41.0366 10.4692C40.7698 10.3703 40.5844 10.5613 40.4375 10.7408L40.399 10.7017C40.251 10.5511 40.0745 10.4326 39.8802 10.3535C39.6859 10.2744 39.4779 10.2363 39.2687 10.2414C38.8979 10.2989 38.5565 10.7017 38.3644 10.9986C38.079 11.4584 37.8619 11.9586 37.7201 12.483C37.4782 13.2517 37.4217 14.048 37.225 14.8235C37.1083 15.2248 36.9087 15.596 36.6395 15.9121C36.4541 16.1423 36.1873 16.6026 35.8346 16.4783C35.7636 16.4478 35.6999 16.402 35.648 16.344C35.596 16.286 35.5571 16.2171 35.534 16.1423C35.3079 15.5255 35.3689 14.7499 35.5181 14.1216C35.6063 13.7419 35.6854 13.3898 35.7668 13.0077C35.8231 12.8111 35.8639 12.6102 35.8889 12.407C35.874 12.2427 35.9004 12.0771 35.9658 11.926C36.0006 11.8685 36.0258 11.8055 36.0404 11.7396C36.0389 11.6481 36.0133 11.5586 35.9664 11.4805C35.9195 11.4024 35.8529 11.3385 35.7736 11.2955C35.5874 11.1746 35.3858 11.0801 35.1745 11.0147C34.9697 10.9473 34.7594 10.8987 34.546 10.8697C34.3494 10.8421 34.2341 10.8306 34.1956 10.8306C34.1281 10.8224 34.0665 10.7877 34.0238 10.7339C33.54 10.2414 33.106 10.0435 32.7194 10.1424C32.3208 10.247 31.9667 10.4814 31.7111 10.8099C31.1143 11.5371 30.8068 12.6211 30.5807 13.5301C30.2597 14.8903 30.002 16.6716 30.7209 17.942C30.8259 18.1543 30.9815 18.3365 31.1734 18.472C31.3653 18.6075 31.5875 18.6919 31.8196 18.7176C32.3871 18.759 32.7849 18.2458 33.0721 17.8246C33.2226 17.6064 33.3622 17.3806 33.4903 17.148C33.6101 16.9178 33.696 16.7798 33.748 16.7015C34.0103 17.3229 34.4714 17.8752 35.1881 17.8891C35.7917 17.9029 36.332 17.4564 36.7073 17.0122C36.8858 16.8098 37.0378 16.5847 37.1594 16.3425C37.2069 16.2435 37.2408 16.163 37.2679 16.0962L37.3132 16.1216C37.3208 16.4105 37.3903 16.6943 37.5168 16.953C37.6433 17.2118 37.8238 17.4394 38.0456 17.6198C39.0878 18.4115 39.9763 17.5047 40.6048 16.6624C40.5686 16.713 40.6048 16.9248 40.6048 16.9892C40.6048 17.2193 40.6251 17.4702 40.6387 17.7118C40.6387 18.5081 40.7607 19.2883 40.7087 20.0846C40.6907 20.3884 40.5935 20.5449 40.4149 20.5449C39.6372 20.5449 39.0697 19.9511 38.864 19.2262C38.8188 19.072 38.7781 18.996 38.7397 19.0122L38.378 19.2262C38.2976 19.234 38.2202 19.2608 38.1519 19.3044C38.1196 19.3556 38.106 19.4167 38.1134 19.477C38.0604 19.929 38.1341 20.387 38.326 20.7981C38.4682 21.0729 38.6816 21.3028 38.943 21.4631C39.2044 21.6233 39.5039 21.7077 39.809 21.7071C40.2001 21.7071 40.6477 21.3205 40.9393 21.088C41.4932 20.6554 42.0697 20.0915 42.2732 19.3919C42.5104 18.5665 42.5917 17.7028 42.5128 16.8465C42.4316 15.8207 42.4037 14.7913 42.4292 13.7626C42.4246 13.4496 42.4405 13.132 42.4631 12.8167H42.4608ZM33.9605 12.5336C33.9356 12.7914 33.8814 13.0514 33.8362 13.3161C33.6598 14.3126 33.5197 15.2654 33.1286 16.1998C33.0721 16.3333 32.7081 17.0951 32.5544 17.0951C32.4006 17.0951 32.3125 16.9478 32.2424 16.6509C31.8648 15.0537 32.4549 13.2379 33.1173 11.7949C33.2506 11.5049 33.3433 11.3599 33.3931 11.3599C33.5058 11.3441 33.6203 11.3707 33.7152 11.4347C33.8101 11.4986 33.8788 11.5956 33.9085 11.7074C33.9768 11.977 33.9952 12.2572 33.9628 12.5336H33.9605ZM40.7427 11.9813C40.6558 12.3004 40.6139 12.6305 40.6183 12.9617C40.5957 13.2977 40.5663 13.6337 40.5189 13.9674C40.4465 14.4886 40.3407 15.0045 40.2023 15.5117C40.1032 15.9737 39.9073 16.4086 39.6281 16.7867C39.4247 16.7867 39.2822 16.6302 39.1986 16.3264C39.0432 15.6726 39.0324 14.9919 39.1669 14.3333C39.269 13.7834 39.4203 13.2441 39.6191 12.7223C39.705 12.4922 39.7886 12.2621 39.8813 12.0319C39.9468 11.8521 40.0325 11.6807 40.1368 11.521L40.2702 11.5578H40.442C40.4804 11.5578 40.546 11.613 40.6409 11.7235C40.7359 11.834 40.7698 11.9145 40.7449 11.9813H40.7427ZM55.5097 27.2075C55.2468 26.6126 55.0144 26.0042 54.8134 25.3848C54.7003 24.9199 54.6531 24.441 54.6732 23.9625C54.6865 23.8807 54.6742 23.7967 54.6381 23.7224C54.602 23.6481 54.5439 23.5872 54.472 23.5483C54.293 23.4713 54.1028 23.4247 53.9091 23.4102C53.4847 23.3859 53.0643 23.5048 52.7132 23.7485C52.5865 23.8267 52.4712 23.8912 52.3695 23.9418C52.2678 23.9925 52.2181 24.0017 52.2181 23.9625C52.2708 24.5223 52.2419 25.0869 52.1321 25.638C52.004 26.5466 51.8014 27.4427 51.5263 28.3168C51.5104 28.1764 51.4426 28.1672 51.3228 28.2938C51.1465 28.4873 50.9812 28.6909 50.8277 28.9037C50.6378 29.1615 50.4502 29.4169 50.2671 29.6701C49.6996 30.448 48.879 30.2615 48.5693 29.3939C48.4133 28.952 48.3432 28.4089 48.6371 28.013C48.7682 27.8335 48.8948 27.6494 49.0169 27.4653C49.4703 26.7936 49.8608 26.0801 50.1834 25.3342C50.839 23.7922 51.0877 22.05 50.6356 20.4114C50.5564 20.1189 50.4504 19.8346 50.3191 19.5622C50.2397 19.3741 50.1024 19.2174 49.9279 19.1157C49.6701 19.0156 49.4066 18.9311 49.139 18.8626C48.974 18.8154 48.8053 18.7831 48.6348 18.7659C48.4055 18.8143 48.1791 18.8757 47.9566 18.95C47.7982 19.0033 47.6465 19.0751 47.5045 19.164C47.3711 19.2469 47.3033 19.3344 47.3033 19.4264C47.3069 19.6837 47.2834 19.9406 47.2332 20.1928L47.0636 21.3435C46.9054 22.363 46.7652 23.3757 46.6748 24.3998C46.6115 25.1317 46.6183 25.8474 46.6205 26.5816C46.6205 27.0879 46.6205 27.5919 46.6205 28.0982C46.6205 28.1926 46.6205 28.28 46.6205 28.3629C46.6174 28.3612 46.6139 28.3604 46.6103 28.3604C46.6068 28.3604 46.6033 28.3612 46.6002 28.3629C46.4125 28.4181 46.3221 28.7656 46.2294 28.906C45.2799 30.3421 44.9295 29.0395 44.9612 28.0154C45.0149 26.9443 45.2065 25.885 45.5309 24.8647C45.5987 24.6345 45.6688 24.4919 45.567 24.2824C45.4223 23.9878 45.0968 23.806 44.8255 23.6449C44.5158 23.4585 44.0546 23.6012 43.772 23.7807C43.711 23.8175 43.5776 23.7393 43.5075 23.76C43.0056 23.9027 43.4103 24.3469 43.46 24.6184C43.5279 24.9798 43.399 25.3664 43.3402 25.7208C43.2769 26.1144 43.2317 26.5102 43.1752 26.9038C43.1173 27.4744 42.9826 28.0343 42.775 28.5677C42.6213 28.9221 42.2189 29.8243 41.7848 29.8565C41.2061 29.8979 41.1428 29.0326 41.1428 28.6252C41.1602 27.9019 41.2588 27.1831 41.4367 26.4826C41.5452 25.9947 42.0403 24.989 41.5249 24.653C41.0484 24.3556 40.5012 24.1964 39.9424 24.1927C39.9087 24.1886 39.8762 24.1778 39.8467 24.1608C39.8172 24.1438 39.7913 24.121 39.7706 24.0937C39.2898 23.6043 38.855 23.4079 38.4661 23.5045C37.6636 23.7048 37.1956 24.4988 36.8474 25.2099C36.3953 26.1305 36.2936 27.1178 36.1534 28.1258C36.1172 28.3928 36.0901 28.6621 36.0517 28.929C35.6832 29.0717 35.543 29.4422 35.2356 29.6632C35.1321 29.7458 35.009 29.7991 34.8788 29.8177C34.7486 29.8363 34.6158 29.8195 34.494 29.769C34.2815 29.6586 34.1956 29.265 34.1685 29.0464C34.0555 28.1258 34.2725 27.1891 34.4827 26.2847C34.5935 25.8244 34.6274 25.0074 34.8784 24.5908C35.1293 24.1743 34.8151 24.1029 34.537 23.8751C34.0984 23.5115 33.9017 23.4286 33.3456 23.6449C33.1509 23.7198 32.9819 23.851 32.8595 24.0224C32.7536 24.2255 32.6774 24.4434 32.6335 24.6691C32.1678 26.1098 31.788 27.5827 31.2635 29.0027C31.1888 29.2386 31.0989 29.4692 30.9945 29.6931C31.0016 29.4309 31.0258 29.1695 31.0668 28.9106C31.1324 28.2087 31.2047 27.5067 31.2929 26.8071C31.3403 26.4481 31.3946 26.0891 31.4556 25.7323C31.5054 25.4447 31.6817 25.2099 31.6817 24.9015C31.6497 24.7029 31.5562 24.5199 31.4149 24.3791C31.2951 24.2295 31.1889 24.0523 30.9764 24.0684C30.8458 24.0918 30.7173 24.1257 30.592 24.1697C30.4793 24.1917 30.3634 24.1917 30.2507 24.1697C30.1422 24.1489 30.0246 24.0707 29.9206 24.0937C29.6606 24.1512 29.5838 24.4412 29.5114 24.6599L29.681 25.0028C29.6106 25.088 29.5576 25.1866 29.525 25.2929C29.4924 25.3992 29.4809 25.511 29.4911 25.6219C29.5544 27.341 29.3916 29.0878 29.3215 30.8116C29.3032 31.0158 29.3169 31.2217 29.3622 31.4215C29.4843 31.8633 30.4067 32.395 30.8046 32.1901C31.2024 31.9853 31.1324 31.6401 31.2092 31.2903C31.4353 30.2454 31.8987 29.15 32.2492 28.1327C32.378 27.7645 32.4752 27.5597 32.5544 27.5205C32.6312 27.5205 32.6696 27.585 32.6696 27.7162C32.6696 27.7668 32.6425 27.9302 32.5928 28.2087C32.4633 28.8609 32.4533 29.532 32.5634 30.1879C32.6674 30.7425 33.0042 31.3777 33.5943 31.4951C33.921 31.5493 34.2562 31.4927 34.5483 31.334C34.9281 31.143 35.213 30.8254 35.5634 30.5976C35.6651 30.5308 35.8053 30.448 35.8392 30.3214C35.905 30.1259 35.9805 29.9338 36.0652 29.746C36.086 30.2847 36.2316 30.8107 36.4903 31.2811C36.5986 31.5121 36.7686 31.7074 36.9809 31.8446C37.1933 31.9817 37.4392 32.0552 37.6907 32.0567C38.4277 32.0567 38.9567 31.044 39.2732 30.4871C39.393 30.2569 39.4789 30.1189 39.5287 30.0406C39.6511 30.4083 39.8805 30.7294 40.1865 30.9612C41.2852 31.6516 42.4653 30.6942 42.9378 29.6908C43.0101 29.5612 43.0612 29.4205 43.0893 29.2742C43.0893 29.2489 43.0893 29.1937 43.078 29.1108V29.0694C43.1284 29.4204 43.2361 29.7603 43.3967 30.0751C43.4942 30.3568 43.6727 30.602 43.9089 30.779C44.1452 30.9559 44.4284 31.0563 44.7215 31.067C45.4766 31.0786 46.0237 30.4111 46.4962 29.8956L46.573 29.7391C46.6296 29.6402 46.668 29.5665 46.6929 29.509C46.7331 29.7611 46.7951 30.0091 46.8782 30.25C46.9578 30.5228 47.0799 30.7808 47.24 31.0141C47.4505 31.2647 47.7135 31.4643 48.0096 31.5981C48.3057 31.7319 48.6275 31.7966 48.9513 31.7874C49.5233 31.7874 50.0093 31.4376 50.4389 31.097C50.579 30.9819 51.6484 30.1925 51.6122 30.0107C51.622 30.0871 51.622 30.1644 51.6122 30.2408C51.6122 30.3191 51.6122 30.3835 51.6122 30.4342C51.6122 31.0463 51.9694 32.0452 52.6385 32.227C53.7689 32.5239 55.2542 31.0532 55.6724 30.1166C56.1314 29.0717 55.8759 28.135 55.5119 27.2075H55.5097ZM48.4675 25.9878C48.4788 25.6196 48.5014 25.1869 48.5331 24.6898C48.5647 24.1927 48.6032 23.6656 48.6484 23.111C48.6936 22.5564 48.7433 22.0454 48.7999 21.5782C48.8435 21.1916 48.9069 20.8075 48.9898 20.4275C49.0598 20.1237 49.1344 19.9672 49.2158 19.9672C49.3944 19.9672 49.5075 20.2641 49.5594 20.8579C49.5971 21.286 49.622 21.6289 49.6341 21.8866C49.6476 22.1444 49.6544 22.3262 49.6544 22.4298C49.676 23.9362 49.2548 25.4149 48.4449 26.6759C48.4449 26.5839 48.4562 26.356 48.4698 25.9878H48.4675ZM39.7253 25.8704C39.7027 26.0255 39.6718 26.1791 39.6327 26.3307C39.5874 26.5355 39.5852 26.7611 39.5603 26.9705C39.5123 27.3888 39.4436 27.8043 39.3546 28.2156C39.2689 28.6191 39.1463 29.0136 38.9883 29.3939C38.8186 29.7707 38.6004 30.1228 38.3395 30.4411C38.1994 30.4411 38.0954 30.2938 38.0253 29.9969C37.9594 29.7304 37.9245 29.457 37.9213 29.1822C37.9251 28.6802 37.9827 28.1801 38.0931 27.6908C38.1967 27.1992 38.3265 26.7136 38.4819 26.2363C38.6032 25.864 38.7436 25.4983 38.9024 25.1409C39.0358 24.8509 39.1285 24.7059 39.1782 24.7059C39.291 24.6903 39.4054 24.7173 39.5 24.7817C39.5945 24.8462 39.6626 24.9436 39.6914 25.0557C39.7564 25.3222 39.7687 25.5991 39.7276 25.8704H39.7253ZM54.0085 30.6045C53.8955 30.9082 53.6333 31.0141 53.1269 30.7218C52.2723 30.2293 53.2512 29.3295 52.7832 28.7242C52.7335 28.6598 52.105 29.1223 52.0462 29.1569C52.5413 28.8692 52.7403 25.9349 53.1517 25.9349C53.2263 25.9349 53.2467 26.0085 53.2082 26.165C53.0771 26.669 53.4976 27.3871 53.6604 27.845C53.7757 28.1995 54.273 29.914 54.0108 30.6045H54.0085Z" fill="#5A5758"/>
<path d="M41.7352 8.7799C41.9917 8.81168 42.2446 8.86871 42.4903 8.95021C42.5016 8.91569 42.5107 8.88117 42.522 8.84664C40.223 7.01137 37.8228 5.31166 35.3329 3.75588C31.3043 1.29795 27.0406 -0.257817 22.2931 0.0367663C21.6669 0.177154 21.3571 0.957339 21.4227 1.64777C21.4747 2.20011 21.7731 2.68801 22.3428 2.71103C24.7889 2.80999 27.2395 2.73634 29.6653 3.12068C32.0377 3.47689 34.3415 4.20511 36.4949 5.27943C37.6401 5.86478 38.7484 6.52195 39.8136 7.24715C39.9967 7.37833 40.9598 8.18843 41.7352 8.7799Z" fill="#5A5758"/>
</g>
<defs>
<linearGradient id="paint0_linear" x1="19.9958" y1="0.455704" x2="27.5925" y2="42.7787" gradientUnits="userSpaceOnUse">
<stop stop-color="#5A5758"/>
<stop offset="0.25" stop-color="#5A5758"/>
<stop offset="0.78" stop-color="#5A5758"/>
<stop offset="1" stop-color="#D7569C"/>
</linearGradient>
<clipPath id="clip0">
<rect width="74" height="41" fill="white"/>
</clipPath>
</defs>
</svg>
