<svg width="24" height="24" viewBox="0 0 24 24" fill="none" xmlns="http://www.w3.org/2000/svg">
<path d="M0.557544 24C0.422779 24 0.291675 23.9467 0.194446 23.8484C0.0662722 23.7188 0.0168337 23.5305 0.0649905 23.3546L1.62523 17.657C0.653858 15.9005 0.141712 13.9135 0.142444 11.8964C0.145191 5.33661 5.48345 0 12.0427 0C15.2241 0.00128174 18.2135 1.24054 20.4604 3.48907C22.7069 5.73779 23.9436 8.72699 23.9427 11.9059C23.9397 18.4658 18.6015 23.8028 12.0427 23.8028C12.0427 23.8028 12.0377 23.8028 12.0375 23.8028C10.1217 23.8021 8.22234 23.3351 6.53118 22.4507L0.687 23.9833C0.644153 23.9945 0.600574 24 0.557544 24Z" fill="#E5E5E5"/>
<path d="M0.557556 23.4904L2.17328 17.5901C1.17664 15.8633 0.652405 13.9044 0.653137 11.8976C0.655701 5.61945 5.76471 0.511719 12.0427 0.511719C15.0892 0.513 17.9487 1.69879 20.0991 3.85101C22.2493 6.00323 23.4331 8.86407 23.432 11.9067C23.4293 18.1847 18.3195 23.2932 12.0427 23.2932C12.0423 23.2932 12.0428 23.2932 12.0427 23.2932H12.0377C10.1316 23.2924 8.25879 22.8143 6.59528 21.907L0.557556 23.4904ZM6.87488 19.8458L7.22076 20.0507C8.67389 20.9131 10.34 21.3693 12.039 21.3702H12.0427C17.2601 21.3702 21.5067 17.1243 21.5089 11.906C21.5098 9.37714 20.5261 6.99915 18.7388 5.21039C16.9514 3.42163 14.5748 2.43597 12.0461 2.43488C6.82452 2.43488 2.57812 6.68018 2.57611 11.8983C2.57538 13.6865 3.07562 15.4279 4.02338 16.9348L4.2486 17.293L3.29205 20.7852L6.87488 19.8458Z" fill="white"/>
<path d="M0.953613 23.0934L2.51349 17.3972C1.55109 15.7302 1.04517 13.8389 1.04572 11.9018C1.0481 5.841 5.98041 0.910156 12.0406 0.910156C14.9821 0.911438 17.7427 2.05621 19.8182 4.13391C21.8943 6.21161 23.0369 8.97339 23.0358 11.9104C23.0332 17.9714 18.1007 22.9028 12.0412 22.9028C12.0406 22.9028 12.0414 22.9028 12.0412 22.9028H12.0363C10.1962 22.902 8.38806 22.4402 6.78223 21.565L0.953613 23.0934Z" fill="#2BC54D"/>
<path d="M0.557556 23.4865L2.17328 17.5862C1.17664 15.8594 0.652405 13.9005 0.653137 11.8937C0.655701 5.61554 5.76471 0.507812 12.0427 0.507812C15.0892 0.509094 17.9487 1.69489 20.0991 3.84711C22.2493 5.99933 23.4331 8.86017 23.432 11.9028C23.4293 18.1808 18.3195 23.2892 12.0427 23.2892C12.0423 23.2892 12.0428 23.2892 12.0427 23.2892H12.0377C10.1316 23.2885 8.25879 22.8104 6.59528 21.9031L0.557556 23.4865ZM6.87488 19.8419L7.22076 20.0468C8.67389 20.9092 10.34 21.3654 12.039 21.3663H12.0427C17.2601 21.3663 21.5067 17.1204 21.5089 11.9021C21.5098 9.37323 20.5261 6.99524 18.7388 5.20648C16.9514 3.41772 14.5748 2.43207 12.0461 2.43097C6.82452 2.43097 2.57812 6.67627 2.57611 11.8944C2.57538 13.6826 3.07562 15.424 4.02338 16.9309L4.2486 17.2891L3.29205 20.7812L6.87488 19.8419Z" fill="white"/>
<path fill-rule="evenodd" clip-rule="evenodd" d="M9.19611 7.13514C8.98297 6.66126 8.75848 6.65174 8.5556 6.6435C8.38971 6.63636 8.19983 6.63672 8.01031 6.63672C7.82062 6.63672 7.51227 6.70813 7.25153 6.99286C6.9906 7.27759 6.25525 7.96607 6.25525 9.36628C6.25525 10.7667 7.27515 12.1196 7.41742 12.3097C7.55969 12.4996 9.38617 15.4648 12.2787 16.6055C14.6827 17.5537 15.1718 17.3651 15.6936 17.3176C16.2155 17.2702 17.3773 16.6292 17.6144 15.9647C17.8517 15.3002 17.8517 14.7307 17.7805 14.6115C17.7092 14.493 17.5195 14.4218 17.235 14.2795C16.9504 14.1373 15.5513 13.4486 15.2904 13.3538C15.0295 13.2587 14.8398 13.2115 14.6501 13.4964C14.4602 13.7809 13.9153 14.4218 13.7492 14.6115C13.5831 14.8018 13.4171 14.8256 13.1325 14.6831C12.848 14.5405 11.9313 14.2402 10.8441 13.2706C9.99811 12.5164 9.42682 11.5848 9.26074 11.2999C9.09485 11.0153 9.258 10.8747 9.3858 10.7192C9.61597 10.4393 10.0021 9.93592 10.097 9.74622C10.1918 9.55616 10.1444 9.39008 10.0734 9.24762C10.0021 9.10535 9.44897 7.698 9.19611 7.13514Z" fill="white"/>
</svg>
